<svg width="200" height="200" viewBox="0 0 200 200" fill="none" xmlns="http://www.w3.org/2000/svg">
<path d="M100 200C155.228 200 200 155.228 200 100C200 44.7715 155.228 0 100 0C44.7715 0 0 44.7715 0 100C0 155.228 44.7715 200 100 200Z" fill="#76C6E3"/>
<path d="M100.375 198.161C154.795 198.161 198.911 154.045 198.911 99.6252C198.911 45.2056 154.795 1.08984 100.375 1.08984C45.9556 1.08984 1.83984 45.2056 1.83984 99.6252C1.83984 154.045 45.9556 198.161 100.375 198.161Z" fill="#9FDBFD"/>
<path d="M105.616 185.032C155.678 185.032 196.262 144.448 196.262 94.3851C196.262 44.3223 155.678 3.73828 105.616 3.73828C55.5527 3.73828 14.9688 44.3223 14.9688 94.3851C14.9688 144.448 55.5527 185.032 105.616 185.032Z" fill="#BDECFE"/>
<path d="M168.216 59.9283C166.807 64.5017 160.237 64.0367 154.883 62.3874C149.528 60.7381 147.085 57.295 148.494 52.7214C149.903 48.148 155.385 45.7775 160.739 47.4267C166.094 49.0763 169.624 55.355 168.216 59.9283Z" fill="#FEFFFD"/>
<path d="M178.964 67.3295C179.755 64.7622 177.96 61.9305 174.954 61.0046C171.949 60.0788 168.871 61.4094 168.08 63.9766C167.29 66.5439 169.085 69.3756 172.091 70.3014C175.096 71.2273 178.174 69.8967 178.964 67.3295Z" fill="#FEFFFD"/>
<path d="M169.505 77.143C168.043 78.2292 165.826 77.7224 164.555 76.0106C163.283 74.2991 164.132 71.6523 165.594 70.5661C167.056 69.4799 168.577 70.3651 169.849 72.0769C171.121 73.7884 170.967 76.0566 169.505 77.143Z" fill="#FEFFFD"/>
</svg>
