<svg width="480" height="37" viewBox="0 0 480 37" fill="none" xmlns="http://www.w3.org/2000/svg">
<path d="M26.1669 4.032C26.9989 4.448 27.4789 5.104 27.6069 6C27.7669 6.896 27.5429 7.712 26.9349 8.448C26.5189 9.024 25.9749 9.344 25.3029 9.408C24.6629 9.472 24.0069 9.344 23.3349 9.024C22.5669 8.672 21.7509 8.4 20.8869 8.208C20.0549 8.016 19.1749 7.92 18.2469 7.92C16.5189 7.92 14.9669 8.192 13.5909 8.736C12.2469 9.28 11.0949 10.064 10.1349 11.088C9.17488 12.08 8.43888 13.264 7.92688 14.64C7.44688 16.016 7.20688 17.536 7.20688 19.2C7.20688 21.152 7.47888 22.848 8.02288 24.288C8.59888 25.728 9.38288 26.928 10.3749 27.888C11.3669 28.848 12.5349 29.568 13.8789 30.048C15.2229 30.496 16.6789 30.72 18.2469 30.72C19.1109 30.72 19.9749 30.64 20.8389 30.48C21.7029 30.32 22.5349 30.032 23.3349 29.616C24.0069 29.296 24.6629 29.184 25.3029 29.28C25.9749 29.376 26.5349 29.712 26.9829 30.288C27.6229 31.088 27.8469 31.92 27.6549 32.784C27.4949 33.616 27.0149 34.224 26.2149 34.608C25.3829 35.024 24.5189 35.376 23.6229 35.664C22.7589 35.92 21.8789 36.112 20.9829 36.24C20.0869 36.4 19.1749 36.48 18.2469 36.48C15.9429 36.48 13.7509 36.112 11.6709 35.376C9.62288 34.64 7.78288 33.552 6.15088 32.112C4.55088 30.672 3.28688 28.88 2.35888 26.736C1.43088 24.56 0.966875 22.048 0.966875 19.2C0.966875 16.736 1.38288 14.464 2.21487 12.384C3.07888 10.304 4.27888 8.512 5.81488 7.008C7.38288 5.472 9.22288 4.288 11.3349 3.456C13.4469 2.592 15.7509 2.16 18.2469 2.16C19.6549 2.16 21.0309 2.32 22.3749 2.64C23.7189 2.96 24.9829 3.424 26.1669 4.032ZM53.2846 9.84C54.1166 9.84 54.8046 10.112 55.3486 10.656C55.8926 11.2 56.1646 11.904 56.1646 12.768V33.072C56.1646 33.904 55.8926 34.608 55.3486 35.184C54.8046 35.728 54.1166 36 53.2846 36C52.4526 36 51.7646 35.728 51.2206 35.184C50.6766 34.608 50.4046 33.904 50.4046 33.072V30.72L51.4606 31.152C51.4606 31.568 51.2366 32.08 50.7886 32.688C50.3406 33.264 49.7326 33.84 48.9646 34.416C48.1966 34.992 47.2846 35.488 46.2286 35.904C45.2046 36.288 44.0846 36.48 42.8686 36.48C40.6606 36.48 38.6606 35.92 36.8686 34.8C35.0766 33.648 33.6526 32.08 32.5966 30.096C31.5726 28.08 31.0606 25.776 31.0606 23.184C31.0606 20.56 31.5726 18.256 32.5966 16.272C33.6526 14.256 35.0606 12.688 36.8206 11.568C38.5806 10.416 40.5326 9.84 42.6766 9.84C44.0526 9.84 45.3166 10.048 46.4686 10.464C47.6206 10.88 48.6126 11.408 49.4446 12.048C50.3086 12.688 50.9646 13.344 51.4126 14.016C51.8926 14.656 52.1326 15.2 52.1326 15.648L50.4046 16.272V12.768C50.4046 11.936 50.6766 11.248 51.2206 10.704C51.7646 10.128 52.4526 9.84 53.2846 9.84ZM43.5886 31.2C44.9966 31.2 46.2286 30.848 47.2846 30.144C48.3406 29.44 49.1566 28.48 49.7326 27.264C50.3406 26.048 50.6446 24.688 50.6446 23.184C50.6446 21.648 50.3406 20.272 49.7326 19.056C49.1566 17.84 48.3406 16.88 47.2846 16.176C46.2286 15.472 44.9966 15.12 43.5886 15.12C42.2126 15.12 40.9966 15.472 39.9406 16.176C38.8846 16.88 38.0526 17.84 37.4446 19.056C36.8686 20.272 36.5806 21.648 36.5806 23.184C36.5806 24.688 36.8686 26.048 37.4446 27.264C38.0526 28.48 38.8846 29.44 39.9406 30.144C40.9966 30.848 42.2126 31.2 43.5886 31.2ZM76.1293 9.84C78.4973 9.84 80.2893 10.336 81.5053 11.328C82.7533 12.32 83.6013 13.648 84.0493 15.312C84.5293 16.944 84.7693 18.768 84.7693 20.784V33.072C84.7693 33.904 84.4973 34.608 83.9532 35.184C83.4093 35.728 82.7213 36 81.8893 36C81.0573 36 80.3693 35.728 79.8253 35.184C79.2813 34.608 79.0093 33.904 79.0093 33.072V20.784C79.0093 19.728 78.8653 18.784 78.5773 17.952C78.3213 17.088 77.8413 16.4 77.1373 15.888C76.4333 15.376 75.4253 15.12 74.1133 15.12C72.8333 15.12 71.7453 15.376 70.8493 15.888C69.9853 16.4 69.3133 17.088 68.8333 17.952C68.3853 18.784 68.1613 19.728 68.1613 20.784V33.072C68.1613 33.904 67.8893 34.608 67.3453 35.184C66.8013 35.728 66.1133 36 65.2812 36C64.4493 36 63.7613 35.728 63.2173 35.184C62.6733 34.608 62.4013 33.904 62.4013 33.072V13.248C62.4013 12.416 62.6733 11.728 63.2173 11.184C63.7613 10.608 64.4493 10.32 65.2812 10.32C66.1133 10.32 66.8013 10.608 67.3453 11.184C67.8893 11.728 68.1613 12.416 68.1613 13.248V15.312L67.4413 15.168C67.7293 14.624 68.1453 14.048 68.6893 13.44C69.2333 12.8 69.8733 12.208 70.6093 11.664C71.3453 11.12 72.1773 10.688 73.1053 10.368C74.0333 10.016 75.0413 9.84 76.1293 9.84ZM126.336 2.256C127.072 2.256 127.728 2.544 128.304 3.12C128.912 3.664 129.216 4.368 129.216 5.232C129.216 5.52 129.168 5.824 129.072 6.144C129.008 6.432 128.88 6.72 128.688 7.008L117.792 22.608L118.656 19.296V33.072C118.656 33.904 118.368 34.608 117.792 35.184C117.248 35.728 116.608 36 115.872 36C115.072 36 114.384 35.728 113.808 35.184C113.264 34.608 112.992 33.904 112.992 33.072V19.68L113.376 21.216L103.008 7.44C102.688 7.024 102.464 6.624 102.336 6.24C102.208 5.856 102.144 5.504 102.144 5.184C102.144 4.32 102.48 3.616 103.152 3.072C103.824 2.528 104.512 2.256 105.216 2.256C106.112 2.256 106.896 2.704 107.568 3.6L116.784 16.32L115.44 16.128L123.936 3.696C124.608 2.736 125.408 2.256 126.336 2.256ZM155.985 23.184C155.985 25.808 155.393 28.128 154.209 30.144C153.057 32.128 151.489 33.68 149.505 34.8C147.553 35.92 145.361 36.48 142.929 36.48C140.497 36.48 138.289 35.92 136.305 34.8C134.353 33.68 132.785 32.128 131.601 30.144C130.449 28.128 129.873 25.808 129.873 23.184C129.873 20.56 130.449 18.256 131.601 16.272C132.785 14.256 134.353 12.688 136.305 11.568C138.289 10.416 140.497 9.84 142.929 9.84C145.361 9.84 147.553 10.416 149.505 11.568C151.489 12.688 153.057 14.256 154.209 16.272C155.393 18.256 155.985 20.56 155.985 23.184ZM150.225 23.184C150.225 21.552 149.889 20.144 149.217 18.96C148.577 17.744 147.697 16.8 146.577 16.128C145.489 15.456 144.273 15.12 142.929 15.12C141.585 15.12 140.353 15.456 139.233 16.128C138.145 16.8 137.265 17.744 136.593 18.96C135.953 20.144 135.633 21.552 135.633 23.184C135.633 24.784 135.953 26.192 136.593 27.408C137.265 28.592 138.145 29.52 139.233 30.192C140.353 30.864 141.585 31.2 142.929 31.2C144.273 31.2 145.489 30.864 146.577 30.192C147.697 29.52 148.577 28.592 149.217 27.408C149.889 26.192 150.225 24.784 150.225 23.184ZM180.082 10.32C180.914 10.32 181.602 10.608 182.146 11.184C182.69 11.728 182.962 12.416 182.962 13.248V25.44C182.962 28.832 182.018 31.52 180.13 33.504C178.242 35.488 175.522 36.48 171.97 36.48C168.418 36.48 165.698 35.488 163.81 33.504C161.954 31.52 161.026 28.832 161.026 25.44V13.248C161.026 12.416 161.298 11.728 161.842 11.184C162.386 10.608 163.074 10.32 163.906 10.32C164.738 10.32 165.426 10.608 165.97 11.184C166.514 11.728 166.786 12.416 166.786 13.248V25.44C166.786 27.392 167.218 28.848 168.082 29.808C168.946 30.736 170.242 31.2 171.97 31.2C173.73 31.2 175.042 30.736 175.906 29.808C176.77 28.848 177.202 27.392 177.202 25.44V13.248C177.202 12.416 177.474 11.728 178.018 11.184C178.562 10.608 179.25 10.32 180.082 10.32ZM206.587 36C205.691 36 204.891 35.728 204.187 35.184C203.483 34.608 203.131 33.904 203.131 33.072V5.328C203.131 4.496 203.403 3.808 203.947 3.264C204.523 2.688 205.227 2.4 206.059 2.4H219.883C221.547 2.4 223.099 2.848 224.539 3.744C226.011 4.608 227.195 5.824 228.091 7.392C228.987 8.928 229.435 10.704 229.435 12.72C229.435 13.936 229.179 15.12 228.667 16.272C228.187 17.424 227.515 18.464 226.651 19.392C225.819 20.32 224.875 21.04 223.819 21.552L223.867 20.448C224.763 20.928 225.499 21.504 226.075 22.176C226.683 22.816 227.147 23.52 227.467 24.288C227.819 25.024 228.027 25.824 228.091 26.688C228.219 27.488 228.299 28.192 228.331 28.8C228.395 29.408 228.491 29.92 228.619 30.336C228.779 30.752 229.067 31.072 229.483 31.296C230.187 31.712 230.619 32.32 230.779 33.12C230.971 33.888 230.795 34.576 230.251 35.184C229.899 35.6 229.451 35.872 228.907 36C228.363 36.096 227.819 36.096 227.275 36C226.731 35.872 226.283 35.712 225.931 35.52C225.387 35.2 224.843 34.736 224.299 34.128C223.755 33.488 223.307 32.64 222.955 31.584C222.635 30.528 222.475 29.168 222.475 27.504C222.475 26.96 222.379 26.464 222.187 26.016C221.995 25.536 221.723 25.136 221.371 24.816C221.019 24.464 220.571 24.208 220.027 24.048C219.483 23.856 218.843 23.76 218.107 23.76H208.411L209.131 22.656V33.072C209.131 33.904 208.907 34.608 208.459 35.184C208.011 35.728 207.387 36 206.587 36ZM208.459 18.816H219.643C220.219 18.816 220.779 18.56 221.323 18.048C221.867 17.504 222.315 16.784 222.667 15.888C223.019 14.96 223.195 13.952 223.195 12.864C223.195 11.456 222.811 10.288 222.043 9.36C221.307 8.4 220.507 7.92 219.643 7.92H208.555L209.131 6.384V19.968L208.459 18.816ZM247.466 36.48C244.746 36.48 242.378 35.92 240.362 34.8C238.378 33.648 236.842 32.096 235.754 30.144C234.698 28.192 234.17 25.984 234.17 23.52C234.17 20.64 234.746 18.192 235.898 16.176C237.082 14.128 238.618 12.56 240.506 11.472C242.394 10.384 244.394 9.84 246.506 9.84C248.138 9.84 249.674 10.176 251.114 10.848C252.586 11.52 253.882 12.448 255.002 13.632C256.122 14.784 257.002 16.128 257.642 17.664C258.314 19.2 258.65 20.832 258.65 22.56C258.618 23.328 258.314 23.952 257.738 24.432C257.162 24.912 256.49 25.152 255.722 25.152H237.386L235.946 20.352H253.562L252.506 21.312V20.016C252.442 19.088 252.106 18.256 251.498 17.52C250.922 16.784 250.186 16.208 249.29 15.792C248.426 15.344 247.498 15.12 246.506 15.12C245.546 15.12 244.65 15.248 243.818 15.504C242.986 15.76 242.266 16.192 241.658 16.8C241.05 17.408 240.57 18.224 240.218 19.248C239.866 20.272 239.69 21.568 239.69 23.136C239.69 24.864 240.042 26.336 240.746 27.552C241.482 28.736 242.41 29.648 243.53 30.288C244.682 30.896 245.898 31.2 247.178 31.2C248.362 31.2 249.306 31.104 250.01 30.912C250.714 30.72 251.274 30.496 251.69 30.24C252.138 29.952 252.538 29.712 252.89 29.52C253.466 29.232 254.01 29.088 254.522 29.088C255.226 29.088 255.802 29.328 256.25 29.808C256.73 30.288 256.97 30.848 256.97 31.488C256.97 32.352 256.522 33.136 255.626 33.84C254.794 34.544 253.626 35.168 252.122 35.712C250.618 36.224 249.066 36.48 247.466 36.48ZM277.171 9.84C279.731 9.84 281.619 10.464 282.835 11.712C284.051 12.928 284.851 14.512 285.234 16.464L284.419 16.032L284.802 15.264C285.187 14.528 285.779 13.744 286.579 12.912C287.379 12.048 288.339 11.328 289.459 10.752C290.611 10.144 291.891 9.84 293.299 9.84C295.603 9.84 297.347 10.336 298.531 11.328C299.747 12.32 300.579 13.648 301.027 15.312C301.475 16.944 301.699 18.768 301.699 20.784V33.072C301.699 33.904 301.427 34.608 300.883 35.184C300.339 35.728 299.651 36 298.819 36C297.987 36 297.299 35.728 296.755 35.184C296.211 34.608 295.939 33.904 295.939 33.072V20.784C295.939 19.728 295.811 18.784 295.555 17.952C295.299 17.088 294.835 16.4 294.163 15.888C293.491 15.376 292.531 15.12 291.283 15.12C290.067 15.12 289.027 15.376 288.163 15.888C287.299 16.4 286.643 17.088 286.195 17.952C285.779 18.784 285.571 19.728 285.571 20.784V33.072C285.571 33.904 285.299 34.608 284.755 35.184C284.211 35.728 283.523 36 282.691 36C281.859 36 281.171 35.728 280.627 35.184C280.083 34.608 279.811 33.904 279.811 33.072V20.784C279.811 19.728 279.683 18.784 279.427 17.952C279.171 17.088 278.707 16.4 278.035 15.888C277.363 15.376 276.403 15.12 275.155 15.12C273.939 15.12 272.899 15.376 272.035 15.888C271.171 16.4 270.515 17.088 270.067 17.952C269.651 18.784 269.443 19.728 269.443 20.784V33.072C269.443 33.904 269.171 34.608 268.627 35.184C268.083 35.728 267.395 36 266.562 36C265.731 36 265.043 35.728 264.499 35.184C263.955 34.608 263.683 33.904 263.683 33.072V13.248C263.683 12.416 263.955 11.728 264.499 11.184C265.043 10.608 265.731 10.32 266.562 10.32C267.395 10.32 268.083 10.608 268.627 11.184C269.171 11.728 269.443 12.416 269.443 13.248V15.312L268.723 15.168C269.011 14.624 269.411 14.048 269.923 13.44C270.435 12.8 271.059 12.208 271.795 11.664C272.531 11.12 273.347 10.688 274.243 10.368C275.139 10.016 276.115 9.84 277.171 9.84ZM320.029 36.48C317.309 36.48 314.941 35.92 312.925 34.8C310.941 33.648 309.405 32.096 308.317 30.144C307.261 28.192 306.733 25.984 306.733 23.52C306.733 20.64 307.309 18.192 308.461 16.176C309.645 14.128 311.181 12.56 313.069 11.472C314.957 10.384 316.957 9.84 319.069 9.84C320.701 9.84 322.237 10.176 323.677 10.848C325.149 11.52 326.445 12.448 327.565 13.632C328.685 14.784 329.565 16.128 330.205 17.664C330.877 19.2 331.213 20.832 331.213 22.56C331.181 23.328 330.877 23.952 330.301 24.432C329.725 24.912 329.053 25.152 328.285 25.152H309.949L308.509 20.352H326.125L325.069 21.312V20.016C325.005 19.088 324.669 18.256 324.061 17.52C323.485 16.784 322.749 16.208 321.853 15.792C320.989 15.344 320.061 15.12 319.069 15.12C318.109 15.12 317.213 15.248 316.381 15.504C315.549 15.76 314.829 16.192 314.221 16.8C313.613 17.408 313.133 18.224 312.781 19.248C312.429 20.272 312.253 21.568 312.253 23.136C312.253 24.864 312.605 26.336 313.309 27.552C314.045 28.736 314.973 29.648 316.093 30.288C317.245 30.896 318.461 31.2 319.741 31.2C320.925 31.2 321.869 31.104 322.573 30.912C323.277 30.72 323.837 30.496 324.253 30.24C324.701 29.952 325.101 29.712 325.453 29.52C326.029 29.232 326.573 29.088 327.085 29.088C327.789 29.088 328.365 29.328 328.812 29.808C329.293 30.288 329.533 30.848 329.533 31.488C329.533 32.352 329.085 33.136 328.189 33.84C327.357 34.544 326.189 35.168 324.685 35.712C323.181 36.224 321.629 36.48 320.029 36.48ZM349.733 9.84C352.293 9.84 354.181 10.464 355.397 11.712C356.613 12.928 357.413 14.512 357.797 16.464L356.981 16.032L357.365 15.264C357.749 14.528 358.341 13.744 359.141 12.912C359.941 12.048 360.901 11.328 362.021 10.752C363.173 10.144 364.453 9.84 365.861 9.84C368.165 9.84 369.909 10.336 371.093 11.328C372.309 12.32 373.141 13.648 373.589 15.312C374.037 16.944 374.261 18.768 374.261 20.784V33.072C374.261 33.904 373.989 34.608 373.445 35.184C372.901 35.728 372.213 36 371.381 36C370.549 36 369.861 35.728 369.317 35.184C368.773 34.608 368.501 33.904 368.501 33.072V20.784C368.501 19.728 368.373 18.784 368.117 17.952C367.861 17.088 367.397 16.4 366.725 15.888C366.053 15.376 365.093 15.12 363.845 15.12C362.629 15.12 361.589 15.376 360.725 15.888C359.861 16.4 359.205 17.088 358.757 17.952C358.341 18.784 358.133 19.728 358.133 20.784V33.072C358.133 33.904 357.861 34.608 357.317 35.184C356.773 35.728 356.085 36 355.253 36C354.421 36 353.733 35.728 353.189 35.184C352.645 34.608 352.373 33.904 352.373 33.072V20.784C352.373 19.728 352.245 18.784 351.989 17.952C351.733 17.088 351.269 16.4 350.597 15.888C349.925 15.376 348.965 15.12 347.717 15.12C346.501 15.12 345.461 15.376 344.597 15.888C343.733 16.4 343.077 17.088 342.629 17.952C342.213 18.784 342.005 19.728 342.005 20.784V33.072C342.005 33.904 341.733 34.608 341.189 35.184C340.645 35.728 339.957 36 339.125 36C338.293 36 337.605 35.728 337.061 35.184C336.517 34.608 336.245 33.904 336.245 33.072V13.248C336.245 12.416 336.517 11.728 337.061 11.184C337.605 10.608 338.293 10.32 339.125 10.32C339.957 10.32 340.645 10.608 341.189 11.184C341.733 11.728 342.005 12.416 342.005 13.248V15.312L341.285 15.168C341.573 14.624 341.973 14.048 342.485 13.44C342.997 12.8 343.621 12.208 344.357 11.664C345.093 11.12 345.909 10.688 346.805 10.368C347.701 10.016 348.677 9.84 349.733 9.84ZM393.791 9.84C396.031 9.84 398.031 10.416 399.791 11.568C401.583 12.688 402.991 14.24 404.015 16.224C405.071 18.208 405.599 20.512 405.599 23.136C405.599 25.76 405.071 28.08 404.015 30.096C402.991 32.08 401.599 33.648 399.839 34.8C398.111 35.92 396.159 36.48 393.983 36.48C392.703 36.48 391.503 36.272 390.383 35.856C389.263 35.44 388.271 34.912 387.407 34.272C386.575 33.632 385.919 32.992 385.439 32.352C384.991 31.68 384.767 31.12 384.767 30.672L386.255 30.048V33.552C386.255 34.384 385.983 35.088 385.439 35.664C384.895 36.208 384.207 36.48 383.375 36.48C382.543 36.48 381.855 36.208 381.311 35.664C380.767 35.12 380.495 34.416 380.495 33.552V3.408C380.495 2.576 380.767 1.888 381.311 1.344C381.855 0.767999 382.543 0.48 383.375 0.48C384.207 0.48 384.895 0.767999 385.439 1.344C385.983 1.888 386.255 2.576 386.255 3.408V15.6L385.439 15.168C385.439 14.752 385.663 14.256 386.111 13.68C386.559 13.072 387.167 12.48 387.935 11.904C388.703 11.296 389.583 10.8 390.575 10.416C391.599 10.032 392.671 9.84 393.791 9.84ZM393.071 15.12C391.663 15.12 390.431 15.472 389.375 16.176C388.319 16.88 387.487 17.84 386.879 19.056C386.303 20.24 386.015 21.6 386.015 23.136C386.015 24.64 386.303 26.016 386.879 27.264C387.487 28.48 388.319 29.44 389.375 30.144C390.431 30.848 391.663 31.2 393.071 31.2C394.479 31.2 395.695 30.848 396.719 30.144C397.775 29.44 398.591 28.48 399.167 27.264C399.775 26.016 400.079 24.64 400.079 23.136C400.079 21.6 399.775 20.24 399.167 19.056C398.591 17.84 397.775 16.88 396.719 16.176C395.695 15.472 394.479 15.12 393.071 15.12ZM422.732 36.48C420.012 36.48 417.644 35.92 415.628 34.8C413.644 33.648 412.108 32.096 411.02 30.144C409.964 28.192 409.436 25.984 409.436 23.52C409.436 20.64 410.012 18.192 411.164 16.176C412.348 14.128 413.884 12.56 415.772 11.472C417.66 10.384 419.66 9.84 421.772 9.84C423.404 9.84 424.94 10.176 426.38 10.848C427.852 11.52 429.148 12.448 430.268 13.632C431.388 14.784 432.268 16.128 432.908 17.664C433.58 19.2 433.916 20.832 433.916 22.56C433.884 23.328 433.58 23.952 433.004 24.432C432.428 24.912 431.756 25.152 430.988 25.152H412.652L411.212 20.352H428.828L427.772 21.312V20.016C427.708 19.088 427.372 18.256 426.764 17.52C426.188 16.784 425.452 16.208 424.556 15.792C423.692 15.344 422.764 15.12 421.772 15.12C420.812 15.12 419.916 15.248 419.084 15.504C418.252 15.76 417.532 16.192 416.924 16.8C416.316 17.408 415.836 18.224 415.484 19.248C415.132 20.272 414.956 21.568 414.956 23.136C414.956 24.864 415.308 26.336 416.012 27.552C416.748 28.736 417.676 29.648 418.796 30.288C419.948 30.896 421.164 31.2 422.444 31.2C423.628 31.2 424.572 31.104 425.276 30.912C425.98 30.72 426.54 30.496 426.956 30.24C427.404 29.952 427.804 29.712 428.156 29.52C428.732 29.232 429.276 29.088 429.788 29.088C430.492 29.088 431.068 29.328 431.516 29.808C431.996 30.288 432.236 30.848 432.236 31.488C432.236 32.352 431.788 33.136 430.892 33.84C430.06 34.544 428.892 35.168 427.388 35.712C425.884 36.224 424.332 36.48 422.732 36.48ZM441.828 36C440.996 36 440.308 35.728 439.764 35.184C439.22 34.608 438.948 33.904 438.948 33.072V13.248C438.948 12.416 439.22 11.728 439.764 11.184C440.308 10.608 440.996 10.32 441.828 10.32C442.66 10.32 443.348 10.608 443.892 11.184C444.436 11.728 444.708 12.416 444.708 13.248V17.76L444.372 14.544C444.724 13.776 445.172 13.104 445.716 12.528C446.292 11.92 446.932 11.424 447.636 11.04C448.34 10.624 449.092 10.32 449.892 10.128C450.692 9.936 451.492 9.84 452.292 9.84C453.252 9.84 454.052 10.112 454.692 10.656C455.364 11.2 455.7 11.84 455.7 12.576C455.7 13.632 455.428 14.4 454.884 14.88C454.34 15.328 453.748 15.552 453.108 15.552C452.5 15.552 451.94 15.44 451.428 15.216C450.948 14.992 450.388 14.88 449.748 14.88C449.172 14.88 448.58 15.024 447.972 15.312C447.396 15.568 446.852 15.984 446.34 16.56C445.86 17.136 445.46 17.856 445.14 18.72C444.852 19.552 444.708 20.544 444.708 21.696V33.072C444.708 33.904 444.436 34.608 443.892 35.184C443.348 35.728 442.66 36 441.828 36ZM464.129 20.832C464.129 20 464.401 19.312 464.945 18.768C465.489 18.192 466.177 17.904 467.009 17.904C468.321 17.904 469.505 17.712 470.561 17.328C471.617 16.912 472.449 16.256 473.057 15.36C473.697 14.464 474.017 13.28 474.017 11.808C474.017 10.72 473.745 9.76 473.201 8.928C472.689 8.096 471.969 7.44 471.041 6.96C470.145 6.48 469.121 6.24 467.969 6.24C467.073 6.24 466.225 6.4 465.425 6.72C464.657 7.04 463.953 7.472 463.313 8.016C462.801 8.464 462.177 8.8 461.441 9.024C460.737 9.216 460.017 9.04 459.281 8.496C458.513 7.92 458.097 7.232 458.033 6.432C457.969 5.632 458.273 4.896 458.945 4.224C460.097 3.04 461.441 2.128 462.977 1.488C464.545 0.815999 466.209 0.48 467.969 0.48C470.177 0.48 472.161 0.992 473.921 2.016C475.713 3.008 477.137 4.352 478.193 6.048C479.249 7.744 479.777 9.664 479.777 11.808C479.777 13.408 479.537 14.832 479.057 16.08C478.577 17.296 477.889 18.352 476.993 19.248C476.129 20.112 475.105 20.816 473.921 21.36C472.769 21.872 471.505 22.24 470.129 22.464C470.065 22.496 470.001 22.528 469.937 22.56C469.905 22.592 469.889 22.64 469.889 22.704V24.48C469.889 25.312 469.617 26.016 469.073 26.592C468.529 27.136 467.841 27.408 467.009 27.408C466.177 27.408 465.489 27.136 464.945 26.592C464.401 26.016 464.129 25.312 464.129 24.48V20.832ZM466.769 36C465.841 36 465.121 35.76 464.609 35.28C464.129 34.768 463.889 34.048 463.889 33.12V32.304C463.889 31.376 464.129 30.672 464.609 30.192C465.121 29.68 465.841 29.424 466.769 29.424H467.393C468.321 29.424 469.025 29.68 469.505 30.192C470.017 30.672 470.273 31.376 470.273 32.304V33.12C470.273 34.048 470.017 34.768 469.505 35.28C469.025 35.76 468.321 36 467.393 36H466.769Z" fill="white"/>
</svg>
