<svg width="49" height="48" viewBox="0 0 49 48" fill="none" xmlns="http://www.w3.org/2000/svg">
<path d="M24.5 48C37.7548 48 48.5 37.2548 48.5 24C48.5 10.7452 37.7548 0 24.5 0C11.2452 0 0.5 10.7452 0.5 24C0.5 37.2548 11.2452 48 24.5 48Z" fill="#76C6E3"/>
<path d="M24.5899 47.5587C37.6506 47.5587 48.2384 36.9709 48.2384 23.9102C48.2384 10.8495 37.6506 0.261719 24.5899 0.261719C11.5292 0.261719 0.941406 10.8495 0.941406 23.9102C0.941406 36.9709 11.5292 47.5587 24.5899 47.5587Z" fill="#9FDBFD"/>
<path d="M25.847 44.4089C37.8621 44.4089 47.6023 34.6688 47.6023 22.6537C47.6023 10.6386 37.8621 0.898438 25.847 0.898438C13.832 0.898438 4.0918 10.6386 4.0918 22.6537C4.0918 34.6688 13.832 44.4089 25.847 44.4089Z" fill="#BDECFE"/>
<path d="M40.8723 14.3841C40.5342 15.4817 38.9574 15.37 37.6724 14.9742C36.3874 14.5784 35.801 13.7521 36.1391 12.6544C36.4772 11.5568 37.793 10.9878 39.078 11.3837C40.363 11.7796 41.2104 13.2864 40.8723 14.3841Z" fill="#FEFFFD"/>
<path d="M43.4519 16.1578C43.6417 15.5417 43.2108 14.8621 42.4895 14.6399C41.7682 14.4177 41.0296 14.737 40.8398 15.3531C40.65 15.9693 41.0809 16.6489 41.8022 16.8711C42.5235 17.0933 43.2621 16.774 43.4519 16.1578Z" fill="#FEFFFD"/>
<path d="M41.1808 18.5131C40.8299 18.7738 40.298 18.6521 39.9928 18.2413C39.6876 17.8305 39.8913 17.1953 40.2422 16.9346C40.5931 16.6739 40.9583 16.8864 41.2635 17.2972C41.5687 17.708 41.5318 18.2523 41.1808 18.5131Z" fill="#FEFFFD"/>
<g clip-path="url(#clip0_7129_28061)">
<path d="M41.5636 37.2128L48.1387 42.3268C48.5824 42.6719 48.6232 43.3277 48.2258 43.7251L44.2253 47.7256C43.8279 48.123 43.1721 48.0822 42.827 47.6386L37.713 41.0635C37.3679 40.6198 36.7121 40.579 36.3147 40.9764L34.5427 42.7484C34.0341 43.257 33.1655 43.0242 32.9794 42.3294L29.7945 30.4389C29.6084 29.7441 30.2441 29.1084 30.9389 29.2945L42.8294 32.4794C43.5242 32.6655 43.7571 33.534 43.2484 34.0427L41.4764 35.8147C41.079 36.2121 41.12 36.8677 41.5636 37.2128Z" fill="#333F61"/>
<path d="M26.0683 26.2691C25.8886 26.2691 25.7097 26.2007 25.5728 26.0639L23.7405 24.2315C23.4667 23.9577 23.4667 23.5143 23.7405 23.2405C24.0143 22.9667 24.4577 22.9667 24.7315 23.2405L26.5639 25.0728C26.8376 25.3466 26.8376 25.7901 26.5639 26.0639C26.427 26.2007 26.2482 26.2691 26.0683 26.2691Z" fill="#333F61"/>
<path d="M23.7924 31.7649H21.2008C20.8139 31.7649 20.5 31.451 20.5 31.0641C20.5 30.6771 20.8139 30.3633 21.2008 30.3633H23.7924C24.1793 30.3633 24.4931 30.6771 24.4931 31.0641C24.4931 31.451 24.1793 31.7649 23.7924 31.7649Z" fill="#333F61"/>
<path d="M24.236 39.0934C24.0563 39.0934 23.8773 39.0249 23.7405 38.8881C23.4667 38.6143 23.4667 38.1708 23.7405 37.8971L25.5728 36.0647C25.8466 35.7909 26.2901 35.7909 26.5639 36.0647C26.8376 36.3385 26.8376 36.782 26.5639 37.0557L24.7315 38.8881C24.5947 39.0249 24.4158 39.0934 24.236 39.0934Z" fill="#333F61"/>
<path d="M31.566 23.9931C31.1791 23.9931 30.8652 23.6793 30.8652 23.2924V20.7008C30.8652 20.3139 31.1792 20 31.566 20C31.9529 20 32.2668 20.3139 32.2668 20.7008V23.2924C32.2668 23.6793 31.9529 23.9931 31.566 23.9931Z" fill="#333F61"/>
<path d="M37.0622 26.2691C36.8825 26.2691 36.7035 26.2007 36.5667 26.0639C36.2929 25.7901 36.2929 25.3466 36.5667 25.0728L38.399 23.2405C38.6728 22.9667 39.1162 22.9667 39.39 23.2405C39.6638 23.5143 39.6638 23.9577 39.39 24.2315L37.5577 26.0639C37.4208 26.2007 37.242 26.2691 37.0622 26.2691Z" fill="#333F61"/>
</g>
<defs>
<clipPath id="clip0_7129_28061">
<rect width="28" height="28" fill="white" transform="translate(20.5 20)"/>
</clipPath>
</defs>
</svg>
