<svg width="100" height="100" viewBox="0 0 100 100" fill="none" xmlns="http://www.w3.org/2000/svg">
<path d="M50 100C77.6143 100 100 77.6142 100 50C100 22.3858 77.6143 0 50 0C22.3858 0 0 22.3858 0 50C0 77.6142 22.3858 100 50 100Z" fill="#58CC02"/>
<path d="M50.1869 99.0803C77.3967 99.0803 99.4546 77.0224 99.4546 49.8126C99.4546 22.6028 77.3967 0.544922 50.1869 0.544922C22.9771 0.544922 0.919189 22.6028 0.919189 49.8126C0.919189 77.0224 22.9771 99.0803 50.1869 99.0803Z" fill="#B7EB90"/>
<path d="M52.8076 92.514C77.839 92.514 98.1309 72.222 98.1309 47.1906C98.1309 22.1592 77.839 1.86719 52.8076 1.86719C27.7761 1.86719 7.48413 22.1592 7.48413 47.1906C7.48413 72.222 27.7761 92.514 52.8076 92.514Z" fill="#DFF5CF"/>
<path d="M84.1073 29.9622C83.4029 32.2489 80.1179 32.0164 77.4409 31.1917C74.7637 30.3671 73.5421 28.6456 74.2464 26.3587C74.9509 24.0721 77.6921 22.8868 80.3693 23.7114C83.0463 24.5362 84.8118 27.6755 84.1073 29.9622Z" fill="#FEFFFD"/>
<path d="M89.482 33.6638C89.8774 32.3801 88.9797 30.9643 87.4769 30.5013C85.9741 30.0384 84.4353 30.7037 84.0399 31.9873C83.6445 33.271 84.5422 34.6868 86.045 35.1497C87.5478 35.6127 89.0866 34.9474 89.482 33.6638Z" fill="#FEFFFD"/>
<path d="M84.7521 38.5735C84.0211 39.1166 82.9129 38.8632 82.2771 38.0073C81.6412 37.1515 82.0656 35.8281 82.7966 35.285C83.5276 34.7419 84.2885 35.1845 84.9244 36.0404C85.5603 36.8962 85.4832 38.0302 84.7521 38.5735Z" fill="#FEFFFD"/>
</svg>
