<svg width="168" height="119" viewBox="0 0 168 119" fill="none" xmlns="http://www.w3.org/2000/svg">
<path d="M142.133 112.192C142.031 112.286 141.919 112.364 141.8 112.427C141.486 112.516 141.222 112.606 140.998 112.695C139.923 113.132 139.776 113.572 139.776 113.572C138.328 115.553 136.242 116.395 135.135 116.718C134.672 116.852 134.381 116.897 134.381 116.897C131.088 117.307 129.938 117.716 129.612 117.863C129.53 117.901 129.5 117.921 129.5 117.921C128.851 118.333 128.281 118.568 127.791 118.687C126.151 119.086 125.389 118.176 125.389 118.176L99.4414 86.1984C99.9043 85.7385 99.9988 85.3695 99.9988 85.1521C99.9988 85.0055 99.959 84.9247 99.959 84.9247C101.487 84.9272 102.963 84.6468 104.327 84.2171C104.327 84.2171 104.327 84.2171 104.329 84.2171C108.699 82.8399 111.903 79.9413 111.903 79.9413C111.91 79.9312 111.917 79.9236 111.925 79.916C112.893 80.0904 114.11 81.5915 114.11 81.5915L141.855 110.499C142.78 111.267 142.502 111.848 142.133 112.192Z" fill="#AA4724"/>
<path d="M142.133 112.193C142.031 112.286 141.919 112.364 141.801 112.428C141.644 112.472 141.5 112.517 141.366 112.561C141.266 112.595 141.172 112.629 141.085 112.662C141.055 112.673 141.027 112.684 140.999 112.696C140.763 112.792 140.572 112.888 140.418 112.979C140.351 113.017 140.292 113.056 140.239 113.093C140.203 113.117 140.17 113.141 140.14 113.165C140.079 113.212 140.027 113.257 139.985 113.298C139.974 113.309 139.964 113.318 139.954 113.328C139.934 113.347 139.918 113.366 139.902 113.384C139.886 113.402 139.872 113.419 139.861 113.435C139.848 113.451 139.838 113.464 139.829 113.478C139.788 113.538 139.776 113.573 139.776 113.573C139.625 113.779 139.344 114.203 139.005 114.711C137.801 115.868 136.424 116.479 135.493 116.786C135.454 116.74 135.414 116.693 135.373 116.645C135.334 116.599 135.295 116.552 135.254 116.504C131.329 111.861 119.5 97.8757 112.841 90.003C112.296 89.3589 111.785 88.7558 111.317 88.2022C109.378 85.9109 108.155 84.4648 108.155 84.4648C108.155 84.4648 107.968 84.2354 107.678 83.9417C107.49 83.7501 107.258 83.5312 107.007 83.3302C106.958 83.2902 106.909 83.2512 106.858 83.2144L106.857 83.2134C106.905 83.1913 106.952 83.1681 106.998 83.146C107.045 83.1229 107.092 83.0997 107.137 83.0776C107.184 83.0545 107.23 83.0312 107.276 83.0081C107.408 82.9419 107.537 82.8755 107.665 82.8082C107.979 82.6419 108.28 82.4735 108.568 82.3051C108.608 82.282 108.648 82.2578 108.687 82.2346C108.887 82.1157 109.078 81.9978 109.262 81.8831C109.298 81.86 109.333 81.8378 109.368 81.8157C109.648 81.6368 109.909 81.4621 110.147 81.2968V81.2958C110.215 81.2495 110.281 81.2031 110.345 81.1579C110.403 81.1169 110.459 81.0769 110.514 81.0368C110.563 81.001 110.612 80.9652 110.659 80.9316C110.717 80.8884 110.773 80.8474 110.827 80.8063C110.928 80.7305 111.022 80.6589 111.109 80.5927C111.15 80.5611 111.189 80.5306 111.227 80.5C111.264 80.4706 111.3 80.4432 111.333 80.4158C111.403 80.36 111.466 80.3096 111.523 80.2643C111.543 80.2485 111.561 80.2327 111.579 80.219C111.58 80.2168 111.581 80.2158 111.583 80.2148C111.61 80.1917 111.637 80.1706 111.661 80.1495C111.673 80.139 111.685 80.1295 111.697 80.1201C111.73 80.0906 111.76 80.0654 111.786 80.0433C111.811 80.0212 111.833 80.0033 111.85 79.9875C111.862 79.978 111.871 79.9686 111.88 79.9623C111.881 79.9612 111.881 79.9601 111.882 79.9612C111.896 79.9475 111.903 79.9423 111.903 79.9423V79.9413C111.91 79.9318 111.917 79.9244 111.924 79.916C111.985 79.9265 112.047 79.9434 112.109 79.9644C112.451 80.077 112.811 80.3264 113.13 80.5959C113.274 80.7191 113.411 80.8464 113.534 80.9675C113.546 80.979 113.558 80.9917 113.57 81.0033C113.583 81.0148 113.594 81.0275 113.606 81.0391C113.617 81.0506 113.629 81.0622 113.641 81.0738C113.913 81.3517 114.095 81.5737 114.109 81.5916C114.11 81.5927 114.11 81.5927 114.11 81.5927L141.854 110.5V110.501C141.912 110.549 141.966 110.595 142.014 110.642C142.746 111.338 142.478 111.87 142.133 112.193Z" fill="#90321E"/>
<path d="M141.97 110.376L114.238 81.4805C114.141 81.3615 112.953 79.9301 111.955 79.7501L111.866 79.7344L111.803 79.7986C111.794 79.807 111.786 79.8155 111.777 79.826C111.691 79.9028 111.058 80.4554 110.033 81.1659C108.686 82.0984 106.66 83.3014 104.303 84.0487L104.275 84.0561C104.161 84.0918 104.046 84.1276 103.931 84.1603C102.576 84.556 101.248 84.756 99.9781 84.756H99.9592L99.6992 84.7592L99.8034 84.9991C99.8044 84.9991 99.8276 85.0549 99.8276 85.1538C99.8276 85.3117 99.7624 85.6412 99.3204 86.079L99.2109 86.1884L125.257 118.289C125.286 118.321 125.837 118.962 126.983 118.962C127.237 118.962 127.519 118.931 127.831 118.855C128.387 118.72 128.98 118.455 129.593 118.066C129.594 118.065 129.62 118.05 129.682 118.021C129.945 117.902 131.064 117.484 134.406 117.069C134.419 117.066 134.714 117.02 135.182 116.884C135.279 116.856 135.382 116.824 135.493 116.788C136.424 116.48 137.801 115.87 139.005 114.713C139.324 114.408 139.631 114.063 139.914 113.675L139.936 113.632C139.938 113.629 140.1 113.247 141.061 112.857C141.302 112.761 141.566 112.672 141.845 112.593L141.879 112.581C142.013 112.509 142.137 112.422 142.248 112.32L142.249 112.319C142.523 112.063 142.658 111.781 142.649 111.48C142.639 111.115 142.41 110.743 141.97 110.376ZM134.557 116.692C134.431 116.719 134.359 116.731 134.359 116.731C131.066 117.14 129.893 117.552 129.541 117.71C129.452 117.751 129.414 117.775 129.408 117.779C128.829 118.146 128.27 118.397 127.75 118.523C126.242 118.889 125.548 118.102 125.521 118.071L99.6686 86.2094C100.079 85.761 100.17 85.3916 100.17 85.1537C100.17 85.1337 100.169 85.1148 100.167 85.0959C101.372 85.078 102.624 84.8864 103.898 84.5254C104.05 84.4822 104.202 84.437 104.353 84.3896L104.381 84.3822C105.314 84.0886 106.196 83.7234 107.007 83.3319C108.299 82.7067 109.409 82.0131 110.254 81.4279C111.206 80.7669 111.82 80.2417 111.977 80.1049C112.859 80.3343 113.965 81.6868 113.977 81.7016L113.981 81.7069L141.73 110.619L141.745 110.633C142.11 110.936 142.3 111.224 142.307 111.49C142.314 111.688 142.216 111.883 142.017 112.069C141.931 112.147 141.837 112.215 141.735 112.27C141.452 112.35 141.182 112.441 140.934 112.539C139.936 112.945 139.681 113.367 139.627 113.489C138.277 115.324 136.372 116.155 135.254 116.506C135.196 116.523 135.141 116.54 135.087 116.556C134.865 116.62 134.683 116.663 134.557 116.692Z" fill="#81291A"/>
<path d="M110.125 81.2698L113.898 85.8648C114.195 86.2263 114.246 86.7697 114.025 87.2133L112.814 90.0649C112.63 90.4337 112.288 90.6703 111.918 90.6851L108.258 90.3262C107.928 90.3393 107.618 90.174 107.424 89.8812L103.993 84.7097C103.628 84.1602 104.148 83.9073 104.689 83.5461L108.82 80.7358C109.242 80.4544 109.804 80.8779 110.125 81.2698Z" fill="#EADDA9"/>
<path d="M111.916 90.8439L111.905 90.8428L108.255 90.4848C107.876 90.4982 107.516 90.3038 107.294 89.969L103.863 84.7974C103.736 84.6054 103.691 84.4284 103.727 84.2565C103.791 83.9445 104.11 83.7372 104.448 83.5177C104.499 83.4843 104.551 83.4503 104.604 83.4152L108.733 80.6057C109.236 80.2703 109.864 80.7003 110.249 81.1702L114.022 85.7652C114.358 86.1746 114.417 86.7851 114.168 87.2845L112.961 90.1271C112.748 90.5552 112.353 90.8264 111.926 90.8434L111.916 90.8439ZM108.265 90.1685L108.276 90.1695L111.924 90.5274C112.232 90.5109 112.518 90.3077 112.674 89.9951L113.881 87.1523C114.08 86.7538 114.037 86.2805 113.778 85.9657L110.005 81.3706C109.69 80.9865 109.213 80.6652 108.91 80.8677L104.78 83.6772C104.725 83.7137 104.672 83.7483 104.62 83.7823C104.339 83.965 104.074 84.1374 104.036 84.3205C104.018 84.4057 104.048 84.5047 104.126 84.6229L107.557 89.7945C107.72 90.0399 107.98 90.1783 108.254 90.1689L108.265 90.1685Z" fill="#EAA936"/>
<path d="M108.566 88.1384L106.602 85.1779C106.473 84.9841 106.525 84.7228 106.717 84.592L108.771 83.1947C108.953 83.0711 109.199 83.1065 109.338 83.2763L111.858 86.3449C111.958 86.4671 111.982 86.6349 111.92 86.7804L111.29 88.2635C111.218 88.4343 111.043 88.5382 110.858 88.5201L108.879 88.3261C108.752 88.3137 108.637 88.2448 108.566 88.1384Z" fill="#FCB638"/>
<path d="M110.9 88.632C110.882 88.632 110.865 88.6311 110.847 88.6294L108.868 88.4354C108.708 88.4199 108.566 88.3343 108.478 88.2009L106.514 85.2406C106.354 84.9999 106.418 84.6719 106.657 84.5094L108.711 83.1122C108.939 82.9569 109.243 83.0008 109.419 83.214L111.938 86.2826C112.064 86.4357 112.094 86.6439 112.016 86.8261L111.386 88.3091C111.302 88.5071 111.111 88.632 110.9 88.632ZM109.01 83.2303C108.948 83.2303 108.885 83.2485 108.83 83.2863L106.775 84.6835C106.632 84.7814 106.593 84.9791 106.689 85.1242L108.653 88.0846C108.706 88.165 108.792 88.2164 108.888 88.2259L110.867 88.42C111.006 88.4335 111.138 88.3562 111.193 88.227L111.822 86.7439C111.869 86.6341 111.851 86.5085 111.775 86.4164L109.256 83.3477C109.193 83.2708 109.102 83.2303 109.01 83.2303Z" fill="#9B3F00"/>
<path d="M97.6426 53.9218C104.202 53.9218 109.52 49.5168 109.52 44.083C109.52 38.6491 104.202 34.2441 97.6426 34.2441C91.0831 34.2441 85.7656 38.6491 85.7656 44.083C85.7656 49.5168 91.0831 53.9218 97.6426 53.9218Z" fill="#FCB638"/>
<path d="M97.6443 54.029C91.0373 54.029 85.6621 49.5681 85.6621 44.0848C85.6621 38.6015 91.0373 34.1406 97.6443 34.1406C104.251 34.1406 109.627 38.6015 109.627 44.0848C109.627 49.5681 104.251 54.029 97.6443 54.029ZM97.6443 34.3512C91.1534 34.3512 85.8726 38.7177 85.8726 44.0848C85.8726 49.4519 91.1534 53.8184 97.6443 53.8184C104.135 53.8184 109.416 49.4519 109.416 44.0848C109.416 38.7177 104.135 34.3512 97.6443 34.3512Z" fill="#9B3F00"/>
<path d="M97.6428 53.4342C103.504 53.4342 108.256 49.5275 108.256 44.7083C108.256 39.8891 103.504 35.9824 97.6428 35.9824C91.7811 35.9824 87.0293 39.8891 87.0293 44.7083C87.0293 49.5275 91.7811 53.4342 97.6428 53.4342Z" fill="#EAA936"/>
<path opacity="0.5" d="M97.6425 53.3454C103.086 53.3454 107.498 49.7834 107.498 45.3895C107.498 40.9956 103.086 37.4336 97.6425 37.4336C92.1995 37.4336 87.7871 40.9956 87.7871 45.3895C87.7871 49.7834 92.1995 53.3454 97.6425 53.3454Z" fill="#EADDA9"/>
<path d="M97.4312 54.1665C100.432 54.1665 102.864 52.5259 102.864 50.5022C102.864 48.4785 100.432 46.8379 97.4312 46.8379C94.4305 46.8379 91.998 48.4785 91.998 50.5022C91.998 52.5259 94.4305 54.1665 97.4312 54.1665Z" fill="#5B0829"/>
<path d="M97.431 54.2656C94.3771 54.2656 91.8926 52.5746 91.8926 50.4961C91.8926 48.4176 94.3771 46.7266 97.431 46.7266C100.485 46.7266 102.969 48.4175 102.969 50.4961C102.969 52.5745 100.485 54.2656 97.431 54.2656ZM97.431 46.937C94.4931 46.937 92.1031 48.5336 92.1031 50.4961C92.1031 52.4586 94.4932 54.0552 97.431 54.0552C100.369 54.0552 102.759 52.4586 102.759 50.4961C102.759 48.5336 100.369 46.937 97.431 46.937Z" fill="#894366"/>
<path d="M97.3511 54.1281C100.028 54.1281 102.198 52.6644 102.198 50.859C102.198 49.0535 100.028 47.5898 97.3511 47.5898C94.6741 47.5898 92.5039 49.0535 92.5039 50.859C92.5039 52.6644 94.6741 54.1281 97.3511 54.1281Z" fill="#6C0B26"/>
<path d="M97.319 54.1593C99.5953 54.1593 101.441 52.9147 101.441 51.3794C101.441 49.8442 99.5953 48.5996 97.319 48.5996C95.0426 48.5996 93.1973 49.8442 93.1973 51.3794C93.1973 52.9147 95.0426 54.1593 97.319 54.1593Z" fill="#7F1418"/>
<path d="M81.3867 70.1934L79.9077 70.3357C79.9077 70.3357 78.1016 71.9623 78.8597 75.5003H80.326C80.3189 75.2661 80.4632 71.9372 81.3867 70.1934Z" fill="#2C150C"/>
<path d="M95.0679 52.1154C95.2252 53.8629 95.7754 61.3304 93.8887 63.2464C93.8887 63.2464 100.048 62.3325 101.836 63.0562C101.836 63.0562 99.4157 59.0038 100.05 52.1193C100.068 51.9204 99.9134 51.748 99.7136 51.748H95.4044C95.2058 51.7481 95.05 51.9177 95.0679 52.1154Z" fill="#D35027"/>
<path d="M97.9924 52.1193C97.4549 57.9568 99.1127 61.7568 99.6295 62.778C100.546 62.7844 101.351 62.8602 101.836 63.0562C101.836 63.0562 99.4152 59.0038 100.049 52.1193C100.068 51.9204 99.9129 51.748 99.7131 51.748H97.6562C97.856 51.7481 98.0108 51.9204 97.9924 52.1193Z" fill="#BF3611"/>
<path d="M93.5918 63.3965L93.8125 63.1724C95.6825 61.2734 95.0982 53.6362 94.9619 52.1245C94.9508 52.0012 94.9922 51.8781 95.0757 51.7868C95.1596 51.6952 95.2788 51.6426 95.4033 51.6426H99.7124C99.8364 51.6426 99.9554 51.6951 100.039 51.7866C100.123 51.879 100.165 52.0037 100.153 52.1287C99.5301 58.8951 101.901 62.9617 101.925 63.002L102.086 63.2709L101.795 63.1534C100.054 62.4485 93.9641 63.3409 93.9028 63.3501L93.5918 63.3965ZM95.4033 51.8531C95.337 51.8531 95.2758 51.88 95.2312 51.9288C95.187 51.9774 95.1657 52.0402 95.1717 52.1057C95.3582 54.1778 95.8156 60.9146 94.1502 63.1025C95.3261 62.9401 99.8078 62.3719 101.617 62.8725C101.124 61.9038 99.3993 58.023 99.9439 52.1094C99.9501 52.0423 99.9287 51.978 99.8836 51.9286C99.8391 51.8799 99.7784 51.8531 99.7126 51.8531H95.4033Z" fill="#82291A"/>
<path d="M98.4446 86.746C108.493 86.746 116.639 81.202 116.639 74.3632C116.639 67.5244 108.493 61.9805 98.4446 61.9805C88.396 61.9805 80.25 67.5244 80.25 74.3632C80.25 81.202 88.396 86.746 98.4446 86.746Z" fill="url(#paint0_linear_6491_31635)"/>
<path d="M98.4446 62.3041C108.303 62.3041 116.323 67.7173 116.323 74.3711C116.323 81.025 108.303 86.4382 98.4446 86.4382C88.5861 86.4382 80.5657 81.025 80.5657 74.3711C80.5657 67.7173 88.5861 62.3041 98.4446 62.3041ZM98.4446 61.9883C88.396 61.9883 80.25 67.5322 80.25 74.371C80.25 81.2098 88.396 86.7538 98.4446 86.7538C108.493 86.7538 116.639 81.2098 116.639 74.371C116.639 67.5322 108.493 61.9883 98.4446 61.9883Z" fill="#9B3F00"/>
<path d="M98.9488 86.7565C107.602 86.7565 114.616 82.1743 114.616 76.5218C114.616 70.8693 107.602 66.2871 98.9488 66.2871C90.2959 66.2871 83.2812 70.8693 83.2812 76.5218C83.2812 82.1743 90.2959 86.7565 98.9488 86.7565Z" fill="url(#paint1_linear_6491_31635)"/>
<g opacity="0.5">
<path d="M98.9834 86.5006C106.782 86.5006 113.104 82.3709 113.104 77.2767C113.104 72.1824 106.782 68.0527 98.9834 68.0527C91.1851 68.0527 84.8633 72.1824 84.8633 77.2767C84.8633 82.3709 91.1851 86.5006 98.9834 86.5006Z" fill="#DA4526"/>
</g>
<path d="M99.0124 86.3934C105.898 86.3934 111.48 82.7634 111.48 78.2856C111.48 73.8077 105.898 70.1777 99.0124 70.1777C92.1268 70.1777 86.5449 73.8077 86.5449 78.2856C86.5449 82.7634 92.1268 86.3934 99.0124 86.3934Z" fill="#FCB638"/>
<path d="M99.0102 70.2769C105.827 70.2769 111.372 73.8669 111.372 78.2795C111.372 82.6921 105.827 86.2821 99.0102 86.2821C92.1936 86.2821 86.648 82.6921 86.648 78.2795C86.648 73.8669 92.1936 70.2769 99.0102 70.2769ZM99.0102 70.0664C92.0665 70.0664 86.4375 73.7435 86.4375 78.2795C86.4375 82.8154 92.0665 86.4925 99.0102 86.4925C105.954 86.4925 111.583 82.8154 111.583 78.2795C111.583 73.7435 105.954 70.0664 99.0102 70.0664Z" fill="#9B3F00"/>
<g opacity="0.5">
<path d="M99.0116 84.4209C104.383 84.4209 108.738 82.0182 108.738 79.0542C108.738 76.0903 104.383 73.6875 99.0116 73.6875C93.6398 73.6875 89.2852 76.0903 89.2852 79.0542C89.2852 82.0182 93.6398 84.4209 99.0116 84.4209Z" fill="#EA9103"/>
</g>
<path d="M99.016 82.5941C101.107 82.5941 102.802 81.487 102.802 80.1213C102.802 78.7556 101.107 77.6484 99.016 77.6484C96.9253 77.6484 95.2305 78.7556 95.2305 80.1213C95.2305 81.487 96.9253 82.5941 99.016 82.5941Z" fill="#9B3F00"/>
<path d="M99.0214 81.455C100.21 81.455 101.174 80.9172 101.174 80.2539C101.174 79.5905 100.21 79.0527 99.0214 79.0527C97.8327 79.0527 96.8691 79.5905 96.8691 80.2539C96.8691 80.9172 97.8327 81.455 99.0214 81.455Z" fill="#7C3200"/>
<path d="M104.207 62.7181L105.42 60.7578L112.218 63.4532L111.46 65.9035C111.46 65.9035 108.088 63.2471 104.207 62.7181Z" fill="#2C150C"/>
<path d="M166.504 13.7603C166.098 14.2034 165.542 14.7633 164.776 15.4696C161.983 18.045 123.859 58.4072 117.705 64.837C117.308 65.2517 116.927 65.9431 116.356 65.9789C116.108 65.9937 115.633 66.161 114.746 65.8168C114.514 65.7263 114.243 65.62 113.96 65.4305C113.525 65.139 113.027 64.839 112.492 64.538C110.21 63.255 107.265 61.9647 105.673 61.2943C104.995 61.008 104.563 60.8343 104.532 60.8217C103.056 60.207 101.346 59.1682 102.773 58.0189L146.304 1.47458C146.304 1.47458 147.332 -0.555718 150.605 0.456775C150.605 0.456775 154.4 0.964051 156.427 0.709386C156.427 0.709386 159.672 0.438878 162.012 2.57861C162.133 2.69019 162.254 2.80913 162.371 2.93543C163.076 3.69326 163.667 4.70156 164.018 6.05401C164.018 6.05401 164.61 8.04217 166.67 10.9639C167.275 11.8206 167.21 12.9857 166.504 13.7603Z" fill="#AA4724"/>
<path d="M158.397 0.846424C157.931 1.19271 157.743 1.54269 157.743 1.54269L108.866 61.3022C108.348 61.6954 108.197 62.0765 108.29 62.4337C106.263 61.5103 104.594 60.8417 104.531 60.8152C103.056 60.202 101.345 59.163 102.773 58.0135L146.304 1.4693C146.304 1.4693 147.332 -0.561596 150.605 0.450812C150.605 0.450812 154.4 0.958258 156.427 0.703337C156.427 0.703337 157.265 0.633633 158.397 0.846424Z" fill="#90321E"/>
<path d="M118.034 58.4695L112.276 64.3325C112.258 64.3502 112.241 64.3669 112.222 64.3836C110.092 63.1858 107.342 61.9813 105.857 61.3553C105.768 60.9701 105.831 60.5496 106.068 60.1919L110.426 53.6067C110.707 53.1832 111.183 52.9297 111.692 52.9336L115.586 52.9681C116.162 52.9729 116.684 53.3071 116.931 53.8288L118.321 56.7766C118.589 57.3454 118.474 58.0204 118.034 58.4695Z" fill="#EADDA9"/>
<path d="M112.244 64.5801L112.145 64.5249C110.016 63.3275 107.253 62.1186 105.796 61.5044L105.721 61.4731L105.703 61.3944C105.6 60.9476 105.683 60.4909 105.936 60.1085L110.295 53.5233C110.607 53.0531 111.129 52.77 111.694 52.7795L115.588 52.8139C116.22 52.8192 116.803 53.1926 117.074 53.765L118.464 56.7128C118.759 57.3377 118.632 58.0896 118.147 58.5836L118.147 58.5837L112.389 64.4467C112.366 64.4691 112.348 64.4871 112.328 64.5051L112.244 64.5801ZM105.995 61.246C107.453 61.8618 110.106 63.0266 112.196 64.1917L117.922 58.3626L117.922 58.3627C118.314 57.9625 118.417 57.3536 118.179 56.8475L116.788 53.8998C116.569 53.4363 116.097 53.134 115.585 53.1296L111.691 53.0952C111.232 53.0895 110.811 53.3169 110.558 53.6977L106.2 60.2828C106.009 60.5702 105.938 60.9094 105.995 61.246Z" fill="#EAA936"/>
<path d="M111.173 62.3014C110.597 61.9665 109.256 61.1835 108.613 60.8064C108.454 60.7131 108.403 60.5073 108.501 60.3511C109.1 59.398 110.758 56.7804 111.548 55.7456C111.683 55.5683 111.92 55.3789 112.178 55.3789L114.469 55.3988C114.737 55.4011 114.98 55.5565 115.094 55.7988L115.793 57.2805C115.92 57.5504 115.865 57.8748 115.656 58.0877L111.57 62.2478C111.466 62.3544 111.302 62.3765 111.173 62.3014Z" fill="#FCB638"/>
<path d="M111.337 62.4546C111.263 62.4546 111.188 62.4354 111.12 62.396C110.544 62.0611 109.203 61.2779 108.559 60.9008C108.458 60.8411 108.386 60.7452 108.358 60.6308C108.33 60.5165 108.349 60.3985 108.412 60.2987C109.069 59.2528 110.682 56.7094 111.464 55.6854C111.615 55.4881 111.881 55.2773 112.178 55.2773L114.47 55.2972C114.777 55.2999 115.059 55.4806 115.189 55.7576L115.888 57.2392C116.034 57.5489 115.971 57.921 115.731 58.1652L111.645 62.3252C111.562 62.4103 111.45 62.4546 111.337 62.4546ZM112.177 55.4877C111.958 55.4877 111.746 55.6629 111.631 55.813C110.855 56.8302 109.246 59.3671 108.59 60.4106C108.558 60.4618 108.548 60.5222 108.563 60.5807C108.577 60.6393 108.614 60.6885 108.666 60.7192C109.309 61.0961 110.65 61.8791 111.226 62.2139C111.313 62.2648 111.424 62.25 111.495 62.1775L115.581 58.0174C115.759 57.8359 115.806 57.5591 115.698 57.3289L114.999 55.8472C114.903 55.6428 114.694 55.5095 114.468 55.5075L112.177 55.4877Z" fill="#9B3F00"/>
<path d="M148.893 0.336641C147.104 0.336641 146.486 1.48537 146.455 1.54677L146.438 1.57332L102.895 58.1333L102.879 58.1461C102.53 58.4271 102.373 58.7093 102.412 58.9844C102.487 59.5086 103.263 60.103 104.597 60.6579L104.637 60.6743C105.712 61.1104 111.217 63.3821 114.054 65.2831C114.323 65.463 114.58 65.5637 114.807 65.6525C115.499 65.9206 115.909 65.8615 116.181 65.8223C116.243 65.8133 116.298 65.8058 116.344 65.8029C116.698 65.781 116.991 65.4203 117.274 65.0715C117.374 64.9486 117.477 64.8216 117.581 64.7129C119.361 62.8534 123.755 58.2187 129.318 52.351C142.599 38.3424 162.671 17.1726 164.659 15.3386C165.354 14.6978 165.932 14.1261 166.376 13.6395C167.022 12.9318 167.086 11.8454 166.53 11.0561C164.477 8.14494 163.878 6.17912 163.853 6.09691C163.537 4.87882 162.996 3.85425 162.244 3.04599C162.138 2.93073 162.024 2.81753 161.895 2.69927C159.637 0.633351 156.472 0.870634 156.44 0.873459C154.421 1.12778 150.737 0.640715 150.581 0.619822L150.553 0.613743C149.912 0.41568 149.363 0.336641 148.893 0.336641ZM115.783 66.1982C115.508 66.1982 115.148 66.151 114.683 65.9709C114.452 65.8802 114.164 65.7676 113.864 65.567C111.054 63.6846 105.578 61.4249 104.509 60.991L104.465 60.9733C102.974 60.3529 102.169 59.7 102.074 59.0329C102.017 58.6349 102.211 58.2515 102.649 57.8931L146.16 1.375C146.274 1.17342 147.441 -0.699484 150.64 0.283467C150.894 0.316521 154.484 0.776268 156.404 0.534191C156.547 0.522117 159.758 0.281497 162.126 2.44769C162.262 2.57262 162.383 2.69259 162.495 2.81444C163.285 3.66398 163.853 4.73787 164.182 6.00563C164.187 6.01933 164.792 7.99928 166.809 10.8598C167.457 11.7789 167.381 13.045 166.628 13.8701C166.178 14.364 165.593 14.9427 164.891 15.5902C162.911 17.4164 142.844 38.5812 129.566 52.5864C124.002 58.4545 119.608 63.0894 117.828 64.9496C117.733 65.048 117.639 65.1643 117.539 65.2873C117.225 65.6744 116.868 66.113 116.365 66.1442C116.326 66.1466 116.281 66.1534 116.229 66.1608C116.114 66.1771 115.967 66.1982 115.783 66.1982Z" fill="#81291A"/>
<path d="M79.7087 70.5092C79.3309 71.2901 78.8973 72.5121 79.0351 73.7435C79.0962 74.2981 79.1404 74.5139 79.6487 75.7222C79.7245 75.9042 79.8119 76.1095 79.9119 76.341C80.0907 76.761 80.0507 77.0662 79.8866 77.2883C79.353 78.0061 77.5133 77.8619 77.5133 77.8619L7.47907 73.7309C6.96864 73.7004 6.48664 73.4909 6.1151 73.1415C6.07717 73.1035 6.03932 73.071 6.00352 73.0352C5.53094 72.5784 5.12472 72.0553 4.77528 71.4996C3.8028 69.9524 2.87245 69.4567 2.44508 69.2389C2.14513 69.0851 1.69045 68.7716 1.43476 68.5516C0.720115 67.938 0.368618 67.3612 0.237093 66.8455C-0.11655 65.4709 1.08326 64.5436 1.08326 64.5436C1.60636 64.0764 2.04102 63.5049 2.29884 62.8502C2.85243 61.4483 4.13856 61.6967 4.13856 61.6967L78.6478 68.5074C80.6696 68.76 80.2023 69.6599 80.2023 69.6599C80.1665 69.6935 79.9487 70.0123 79.7087 70.5092Z" fill="#AA4724"/>
<path d="M79.8872 77.2862C79.3533 78.0041 77.5137 77.8598 77.5137 77.8598L7.4803 73.7282C6.96927 73.6981 6.4871 73.4877 6.11556 73.139C6.07711 73.1017 6.03978 73.0693 6.00373 73.0331C5.53115 72.5762 5.12475 72.0532 4.77608 71.4964C3.80335 69.9501 2.87266 69.4534 2.4458 69.237C2.14525 69.0819 1.69074 68.7693 1.43463 68.5493C0.720404 67.9349 0.369322 67.3588 0.237027 66.843C-0.116444 65.4686 1.08354 64.5415 1.08354 64.5415C1.26627 64.3779 1.43822 64.2024 1.59577 64.0137C1.85428 64.2145 2.20176 64.4453 2.44589 64.5704C2.87274 64.7868 3.80343 65.2834 4.77616 66.8297C5.12484 67.3865 5.53123 67.9095 6.00381 68.3664C6.03986 68.4025 6.0772 68.4349 6.11564 68.4735C6.48718 68.8222 6.96935 69.0314 7.48038 69.0615L77.5138 73.1931C77.5138 73.1931 78.3146 73.2556 79.012 73.0932C79.0036 73.3073 79.0108 73.5237 79.0349 73.7414C79.1071 74.3798 79.1539 74.5698 79.9127 76.3386C80.0916 76.7583 80.0508 77.0638 79.8872 77.2862Z" fill="#90321E"/>
<path d="M79.0358 73.7421C79.0969 74.2967 79.141 74.5125 79.6494 75.7207L68.6616 75.4229C68.4459 75.4114 68.2417 75.3209 68.0881 75.1671L65.9358 73.0148C65.5843 72.6622 65.5958 72.0886 65.9631 71.7519L68.4669 69.4511C68.6553 69.2785 68.91 69.1965 69.1637 69.227L79.7093 70.5078C79.3316 71.2887 78.8979 72.5106 79.0358 73.7421Z" fill="#EADDA9"/>
<path d="M79.8895 75.8831L68.6569 75.5785C68.3974 75.5647 68.157 75.4576 67.9761 75.2766L65.8239 73.1242C65.6226 72.9225 65.5154 72.6548 65.5217 72.3706C65.5281 72.0869 65.6469 71.8251 65.8561 71.6332L68.3599 69.3325C68.583 69.1281 68.8825 69.0323 69.1823 69.0678L79.9475 70.3753L79.8513 70.5742C79.5445 71.208 79.0512 72.4598 79.1924 73.7223L79.1925 73.7226C79.2508 74.2518 79.29 74.4578 79.7947 75.6572L79.8895 75.8831ZM69.0584 69.3763C68.8799 69.3763 68.7068 69.443 68.5731 69.5653L66.0695 71.8659C65.9242 71.9992 65.8417 72.1809 65.8373 72.3776C65.8328 72.5751 65.9074 72.761 66.0472 72.9011L68.1993 75.0533C68.325 75.179 68.4921 75.2535 68.6695 75.263L79.4091 75.5541C78.9765 74.5107 78.9366 74.2858 78.8784 73.7574C78.7471 72.5835 79.1088 71.4429 79.4736 70.636L69.1442 69.3814C69.1156 69.378 69.087 69.3763 69.0584 69.3763Z" fill="#EAA936"/>
<path d="M69.0531 73.6985L68.1677 72.813C67.9508 72.5961 67.9583 72.2422 68.1842 72.0348L69.3113 70.9995C69.4274 70.8928 69.5845 70.8423 69.741 70.8614L76.8253 71.8851C77.1909 71.9379 77.4542 72.2631 77.4298 72.6316L77.3771 73.4288C77.3519 73.8093 77.0298 74.1013 76.6488 74.089L69.4197 73.8562C69.2819 73.8524 69.1507 73.796 69.0531 73.6985Z" fill="#FCB638"/>
<path d="M76.6744 74.2002C76.6654 74.2002 76.6564 74.2 76.6473 74.1996L69.4182 73.9668C69.2532 73.9624 69.0976 73.8955 68.9806 73.7784L68.0951 72.8931C67.9698 72.7677 67.9027 72.601 67.9064 72.4237C67.9102 72.2464 67.9842 72.0828 68.1147 71.9628L69.2419 70.9276C69.381 70.7999 69.5683 70.74 69.7554 70.7624L76.8422 71.7866C77.2594 71.8468 77.5645 72.2235 77.5367 72.6442L77.484 73.4414C77.4556 73.8717 77.1025 74.2002 76.6744 74.2002ZM69.6769 70.968C69.5701 70.968 69.4652 71.0083 69.3844 71.0825L68.2572 72.1177C68.1693 72.1985 68.1195 72.3087 68.117 72.428C68.1144 72.5475 68.1595 72.6597 68.244 72.7442L69.1295 73.6295C69.2082 73.7084 69.313 73.7533 69.4244 73.7563L76.6542 73.9892C76.9813 73.9994 77.2527 73.7531 77.274 73.4273L77.3268 72.63C77.3474 72.3185 77.1214 72.0393 76.8123 71.9946L69.7279 70.9709C69.7108 70.969 69.6939 70.968 69.6769 70.968Z" fill="#9B3F00"/>
<path d="M77.8922 78.0403C77.6721 78.0403 77.5215 78.0292 77.5003 78.0275L7.46952 73.896C6.92202 73.8636 6.39952 73.6381 5.9981 73.2612C5.97678 73.2399 5.95905 73.2235 5.94167 73.2072C5.92163 73.1887 5.90202 73.1703 5.8831 73.1513C5.42876 72.7116 5.00678 72.1839 4.63104 71.5848C3.66191 70.0441 2.75537 69.5829 2.36833 69.386C2.06795 69.232 1.59948 68.9135 1.32358 68.6758C0.648492 68.0961 0.227204 67.4928 0.0717034 66.8828C-0.297181 65.4492 0.872246 64.4877 0.974057 64.4074C1.51368 63.9241 1.90603 63.3776 2.14039 62.7827C2.7105 61.3377 4.02463 61.5005 4.16018 61.5219L78.6639 68.3319C79.5683 68.4447 80.1288 68.7014 80.3356 69.0953C80.4743 69.3595 80.4124 69.6204 80.3539 69.733L80.3406 69.7586L80.3233 69.775C80.152 69.975 78.9971 71.8619 79.2046 73.7191C79.2724 74.3261 79.3091 74.4964 80.0687 76.2686C80.2585 76.7123 80.2434 77.0877 80.0239 77.3849C79.5978 77.9585 78.4893 78.0403 77.8922 78.0403ZM3.90381 61.8438C3.55094 61.8438 2.82926 61.9671 2.45807 62.908C2.2035 63.5542 1.77938 64.1457 1.19745 64.6658L1.18803 64.6736C1.14299 64.7087 0.081725 65.5519 0.402487 66.798C0.540434 67.3391 0.925156 67.8836 1.54613 68.4168C1.80087 68.6363 2.24837 68.9407 2.52357 69.0817C2.89982 69.2732 3.90065 69.7825 4.92013 71.4031C5.28139 71.979 5.6859 72.4853 6.12243 72.9078C6.14059 72.9259 6.15736 72.9414 6.1744 72.9574C6.19453 72.9761 6.21499 72.9953 6.23546 73.0156C6.57506 73.3344 7.02178 73.5272 7.48956 73.555L77.5235 77.6867C78.0126 77.7243 79.3587 77.7075 79.7492 77.1817C79.8933 76.9865 79.8951 76.7317 79.7545 76.4031C79.0007 74.6444 78.9402 74.4316 78.8649 73.7571C78.6455 71.7925 79.8216 69.8675 80.0546 69.5656C80.07 69.526 80.1096 69.3948 80.0299 69.2485C79.9424 69.0875 79.6436 68.7985 78.6269 68.6714L4.11462 61.8607L4.10624 61.8591C4.09502 61.857 4.01907 61.8438 3.90381 61.8438Z" fill="#81291A"/>
<defs>
<linearGradient id="paint0_linear_6491_31635" x1="80.25" y1="74.3632" x2="116.639" y2="74.3632" gradientUnits="userSpaceOnUse">
<stop offset="0.2305" stop-color="#F7432B"/>
<stop offset="0.4228" stop-color="#F96D30"/>
</linearGradient>
<linearGradient id="paint1_linear_6491_31635" x1="83.2813" y1="76.5218" x2="114.616" y2="76.5218" gradientUnits="userSpaceOnUse">
<stop offset="0.5772" stop-color="#F96D30"/>
<stop offset="0.7695" stop-color="#F7432B"/>
</linearGradient>
</defs>
</svg>
