<svg width="175" height="283" viewBox="0 0 175 283" fill="none" xmlns="http://www.w3.org/2000/svg">
<path d="M132.553 272.273C132.553 272.273 129.472 256.136 125.804 239.411C122.137 222.687 120.816 216.525 120.816 216.525C120.816 216.525 127.858 239.118 129.032 248.801C130.205 258.483 126.424 222.613 125.861 216.481C125.175 209.011 130.499 242.932 131.673 248.214C131.673 248.214 132.111 220.823 132.111 216.862C132.111 212.901 134.474 245.748 134.474 245.748L135.922 213.965L138.421 245.28L143.772 221.054C143.772 221.054 142.382 241.759 142.382 242.639C142.382 243.519 150.48 214.516 150.48 214.956C150.48 215.396 146.343 240.438 146.343 240.438C146.343 240.438 159.202 203.257 157.493 210.951C155.891 218.157 148.258 237.67 147.965 243.538C147.671 249.406 156.044 227.685 161.455 219.758C165.742 213.478 151.331 240.027 150.378 248.081C149.424 256.136 160.427 229.582 161.601 228.849C162.774 228.115 154.265 243.959 153.238 252.762C153.238 252.762 165.415 234.864 167.469 232.81C169.523 230.756 156.613 249.534 155.292 258.336C153.972 267.139 153.532 273.447 153.532 273.447L132.553 272.273Z" fill="#39B54A"/>
<path d="M29.4512 266.762C29.4512 266.762 26.3704 250.624 22.7028 233.9C19.0352 217.175 17.7148 211.014 17.7148 211.014C17.7148 211.014 24.7567 233.606 25.9303 243.289C27.1039 252.971 23.3226 217.101 22.7595 210.969C22.0736 203.499 27.3974 237.421 28.5711 242.702C28.5711 242.702 29.0095 215.311 29.0095 211.35C29.0095 207.389 31.3723 240.237 31.3723 240.237L32.8204 208.454L35.3196 239.768L40.671 215.542C40.671 215.542 39.2806 236.247 39.2806 237.127C39.2806 238.007 47.3782 209.004 47.3782 209.444C47.3782 209.884 43.2416 234.927 43.2416 234.927C43.2416 234.927 56.101 197.745 54.3913 205.439C52.7896 212.646 45.1563 232.158 44.863 238.026C44.5695 243.894 52.9422 222.173 58.3536 214.246C62.6405 207.967 48.2298 234.515 47.2761 242.57C46.3225 250.624 57.3253 224.07 58.499 223.337C59.6726 222.603 51.1638 238.447 50.1367 247.25C50.1367 247.25 62.3133 229.352 64.3672 227.298C66.421 225.244 53.511 244.022 52.1906 252.825C50.8703 261.627 50.4302 267.935 50.4302 267.935L29.4512 266.762Z" fill="#39B54A"/>
<path d="M23.2931 268.833C23.2931 268.833 20.2123 258.871 16.5447 248.547C12.877 238.222 11.5566 234.419 11.5566 234.419C11.5566 234.419 18.5985 248.366 19.7722 254.343C20.9458 260.32 17.1645 238.177 16.6014 234.391C15.9154 229.78 21.2392 250.72 22.4129 253.981C22.4129 253.981 22.8514 237.071 22.8514 234.626C22.8514 232.181 25.2141 252.459 25.2141 252.459L26.6623 232.838L29.1614 252.169L34.5128 237.214C34.5128 237.214 33.1225 249.996 33.1225 250.539C33.1225 251.082 41.2201 233.178 41.2201 233.45C41.2201 233.722 37.0835 249.181 37.0835 249.181C37.0835 249.181 49.9429 226.228 48.2331 230.977C46.6315 235.426 38.9983 247.472 38.7049 251.094C38.4115 254.717 46.784 241.307 52.1956 236.414C56.4824 232.538 42.0718 248.927 41.1181 253.899C40.1644 258.871 51.1673 242.479 52.3409 242.026C53.5145 241.573 45.0056 251.354 43.9787 256.788C43.9787 256.788 56.1552 245.739 58.209 244.471C60.263 243.203 47.3529 254.796 46.0326 260.229C44.7122 265.663 44.2721 269.558 44.2721 269.558L23.2931 268.833Z" fill="#39B54A"/>
<path d="M43.3888 267.534C43.3888 267.534 40.308 257.572 36.6404 247.248C32.9727 236.924 31.6523 233.12 31.6523 233.12C31.6523 233.12 38.6942 247.067 39.8679 253.044C41.0415 259.021 37.2602 236.878 36.697 233.092C36.011 228.481 41.3349 249.421 42.5086 252.682C42.5086 252.682 42.947 235.773 42.947 233.327C42.947 230.882 45.3097 251.16 45.3097 251.16L46.7579 231.539L49.257 250.87L54.6084 235.915C54.6084 235.915 53.2181 248.697 53.2181 249.24C53.2181 249.784 61.3157 231.879 61.3157 232.151C61.3157 232.423 57.1791 247.882 57.1791 247.882C57.1791 247.882 70.0384 224.929 68.3287 229.678C66.7271 234.127 59.0938 246.173 58.8004 249.795C58.507 253.418 66.8795 240.009 72.291 235.115C76.5778 231.239 62.1673 247.628 61.2136 252.6C60.2598 257.572 71.2628 241.18 72.4364 240.727C73.61 240.274 65.1011 250.055 64.0742 255.489C64.0742 255.489 76.2507 244.44 78.3046 243.172C80.3584 241.905 67.4484 253.497 66.128 258.931C64.8077 264.364 64.3676 268.259 64.3676 268.259L43.3888 267.534Z" fill="#39B54A"/>
<path d="M66.4142 263.319C66.4142 263.319 63.3334 253.357 59.6657 243.033C55.9981 232.709 54.6777 228.905 54.6777 228.905C54.6777 228.905 61.7196 242.852 62.8933 248.829C64.0669 254.806 60.2856 232.663 59.7224 228.877C59.0364 224.266 64.3603 245.207 65.534 248.467C65.534 248.467 65.9724 231.558 65.9724 229.113C65.9724 226.667 68.3351 246.945 68.3351 246.945L69.7833 227.325L72.2824 246.656L77.6338 231.7C77.6338 231.7 76.2435 244.482 76.2435 245.025C76.2435 245.569 84.341 227.665 84.341 227.936C84.341 228.208 80.2045 243.667 80.2045 243.667C80.2045 243.667 93.0639 220.714 91.3541 225.463C89.7525 229.912 82.1192 241.958 81.8258 245.58C81.5324 249.203 89.9049 235.794 95.3164 230.901C99.6032 227.024 85.1927 243.413 84.239 248.385C83.2852 253.357 94.2881 236.965 95.4618 236.512C96.6354 236.06 88.1265 245.841 87.0996 251.274C87.0996 251.274 99.2761 240.226 101.33 238.958C103.384 237.69 90.4738 249.282 89.1534 254.716C87.8331 260.15 87.393 264.044 87.393 264.044L66.4142 263.319Z" fill="#39B54A"/>
<path d="M89.4377 261.698C89.4377 261.698 86.3568 251.736 82.6892 241.412C79.0216 231.088 77.7012 227.284 77.7012 227.284C77.7012 227.284 84.7431 241.231 85.9167 247.208C87.0903 253.185 83.309 231.042 82.7459 227.256C82.0599 222.645 87.3837 243.586 88.5574 246.846C88.5574 246.846 88.9958 229.937 88.9958 227.491C88.9958 225.046 91.3586 245.324 91.3586 245.324L92.8068 225.703L95.3059 245.034L100.657 230.079C100.657 230.079 99.2669 242.861 99.2669 243.404C99.2669 243.948 107.364 226.043 107.364 226.315C107.364 226.587 103.228 242.046 103.228 242.046C103.228 242.046 116.087 219.093 114.378 223.842C112.776 228.291 105.143 240.337 104.849 243.959C104.556 247.582 112.928 234.173 118.34 229.279C122.627 225.403 108.216 241.792 107.262 246.764C106.309 251.736 117.312 235.344 118.485 234.891C119.659 234.439 111.15 244.219 110.123 249.653C110.123 249.653 122.3 238.605 124.353 237.337C126.407 236.069 113.497 247.661 112.177 253.095C110.856 258.529 110.416 262.423 110.416 262.423L89.4377 261.698Z" fill="#39B54A"/>
<path d="M111.483 263.642C111.483 263.642 108.402 253.68 104.734 243.355C101.066 233.031 99.7461 229.227 99.7461 229.227C99.7461 229.227 106.788 243.174 107.962 249.151C109.135 255.129 105.354 232.985 104.791 229.2C104.105 224.589 109.429 245.529 110.602 248.789C110.602 248.789 111.041 231.88 111.041 229.435C111.041 226.99 113.403 247.267 113.403 247.267L114.852 227.647L117.351 246.978L122.702 232.023C122.702 232.023 121.312 244.804 121.312 245.348C121.312 245.891 129.409 227.987 129.409 228.258C129.409 228.53 125.273 243.989 125.273 243.989C125.273 243.989 138.132 221.036 136.422 225.786C134.821 230.235 127.188 242.28 126.894 245.903C126.601 249.525 134.973 236.116 140.385 231.223C144.672 227.346 130.261 243.735 129.307 248.707C128.354 253.68 139.357 237.287 140.53 236.835C141.704 236.382 133.195 246.163 132.168 251.597C132.168 251.597 144.345 240.548 146.398 239.28C148.452 238.012 135.542 249.604 134.222 255.038C132.901 260.472 132.461 264.366 132.461 264.366L111.483 263.642Z" fill="#39B54A"/>
<path d="M14.9518 267.033C14.9518 267.033 28.6589 257.568 46.9348 261.811C46.9348 261.811 63.9054 254.631 81.8551 254.631C99.8048 254.631 96.2149 258.874 96.2149 258.874C96.2149 258.874 104.374 246.798 122.976 254.957C141.579 263.116 136.031 257.895 151.369 263.443C166.708 268.991 172.582 268.991 174.541 271.275C176.499 273.56 162.465 280.413 126.566 280.413C90.6668 280.413 119.713 280.74 78.918 282.698C38.1232 284.656 40.7341 276.497 28.9853 275.518C17.2364 274.539 -10.5041 279.76 14.9518 267.033Z" fill="#8DC63F"/>
<path d="M45.2003 111.211C45.2003 111.211 37.7062 118.227 34.9956 118.386C32.2849 118.546 27.0232 120.14 27.342 123.01C27.6609 125.88 30.3716 130.823 32.2849 133.215C34.1983 135.606 37.8656 133.215 41.214 128.112C44.5624 123.01 50.1431 121.894 50.1431 121.894L45.2003 111.211Z" fill="#EABA96"/>
<path d="M35.8836 86.2861L17.1035 249.666L23.3276 250.381L42.1077 87.0015L35.8836 86.2861Z" fill="#AD6E4D"/>
<path d="M23.853 218.293L1.89739 225.722C1.89739 225.722 0.77463 242.368 0.0619383 253.153C-0.63129 263.648 4.47277 272.609 16.4729 277.835C16.4729 277.835 16.8022 278.081 16.982 278.051C17.15 278.121 17.5263 277.956 17.5263 277.956C30.3995 275.59 37.4044 268.021 39.111 257.643C40.865 246.978 43.5496 230.511 43.5496 230.511L23.853 218.293Z" fill="#BFBEDB"/>
<path d="M23.0898 224.992C35.6896 226.441 37.193 230.876 43.076 234.254C43.1856 233.581 43.5568 230.511 43.5568 230.511L23.8601 218.293L1.9045 225.722C1.9045 225.722 1.5693 228.795 1.52344 229.476C8.01961 227.521 11.2189 223.627 23.0898 224.992Z" fill="#9696C3"/>
<path d="M0.0654737 253.161C0.0590604 253.262 0.0563742 253.361 0.0507812 253.462L4.53999 225.447L4.12469 224.977L1.90086 225.729C1.90086 225.729 0.778165 242.375 0.0654737 253.161Z" fill="#9696C3"/>
<path d="M39.1164 257.649C39.1 257.749 39.0798 257.847 39.0625 257.945L41.0489 229.643L41.5602 229.279L43.5551 230.517C43.5551 230.517 40.8705 246.984 39.1164 257.649Z" fill="#9696C3"/>
<path d="M24.8893 218.83L23.8047 218.481L23.8274 218.294L23.3451 218.334L22.8841 218.186L22.8649 218.373L21.7286 218.466L17.9844 265.996L18.301 263.412L18.048 265.908L24.8893 218.83Z" fill="#9696C3"/>
<path d="M25.7505 123.022C25.7505 123.022 24.5111 125.072 26.7491 126.166C26.7491 126.166 24.7839 128.284 26.6318 128.985C26.6318 128.985 24.644 130.692 26.6558 131.947C26.6558 131.947 25.4384 133.577 27.723 134.136C27.723 134.136 31.3497 134.818 34.6873 132.849C35.3454 132.46 34.9805 131.146 33.7175 131.036C33.7175 131.036 34.6702 129.059 32.9971 128.602C32.9971 128.602 34.8436 127.071 32.9812 126.049C32.9812 126.049 34.322 125.267 33.2977 124.039C32.2733 122.811 25.7505 123.022 25.7505 123.022Z" fill="#F7C7A6"/>
<path d="M32.1242 125.641C30.9628 125.554 27.0188 124.891 25.4336 124.619C25.5258 125.161 25.8672 125.738 26.7459 126.167C26.7459 126.167 26.7318 126.183 26.7089 126.209C28.9003 126.101 33.3104 125.729 32.1242 125.641Z" fill="#EABA96"/>
<path d="M32.5815 128.377C31.4398 128.292 27.6086 127.649 25.9725 127.369C25.7388 127.964 25.7385 128.626 26.6022 128.968C28.457 128.912 33.8816 128.474 32.5815 128.377Z" fill="#EABA96"/>
<path d="M32.4546 131.311C31.2996 131.224 27.393 130.567 25.7905 130.293C25.6746 130.802 25.8068 131.385 26.5834 131.898C28.531 131.83 33.7304 131.406 32.4546 131.311Z" fill="#EABA96"/>
<path d="M29.9418 119.82C29.9418 119.82 25.8493 122.106 23.1918 122.159C20.5343 122.212 23.989 124.125 26.7528 123.806C29.5165 123.488 31.058 122.69 31.3769 122.212C31.6957 121.734 29.9418 119.82 29.9418 119.82Z" fill="#EABA96"/>
<path d="M92.7017 14.7148C92.7017 14.7148 82.7818 34.2747 81.5117 47.049L92.6427 46.8998C92.6427 46.8998 92.0451 22.8449 94.8838 18.3626L92.7017 14.7148Z" fill="#F15A29"/>
<path d="M85.3241 41.1993C85.8337 38.4474 87.4133 34.4218 88.7382 28.6122C89.4109 25.6633 89.3874 23.5818 89.2013 22.2461C86.3576 28.7757 82.6581 38.3379 81.6445 45.9078C83.3651 45.6517 84.8506 43.7561 85.3241 41.1993Z" fill="#FF5E5A"/>
<path d="M83.4902 45.127L87.8727 29.4316L83.9999 45.178L83.4902 45.127Z" fill="#BE1E2D"/>
<path d="M86.9609 43.288L91.2416 21.375L87.6745 43.3901L86.9609 43.288Z" fill="#BE1E2D"/>
<path d="M94.8867 18.3584L92.754 14.793C92.706 14.8269 92.6586 14.8608 92.6123 14.8948C92.3547 15.411 91.578 16.9842 90.5449 19.2429C91.5499 19.1878 92.8441 19.7142 92.2775 23.067C91.392 28.3046 90.7296 40.4329 91.0863 44.4587C91.0863 44.4587 91.6462 45.4112 92.6203 45.5263C92.5447 40.3677 92.4572 22.1946 94.8867 18.3584Z" fill="#BE1E2D"/>
<path d="M116.202 258.207C116.202 258.207 115.175 260.436 114.604 264.56C114.034 268.684 113.824 272.211 113.824 272.211C113.824 272.211 115.006 273.076 117.699 273.228C120.393 273.38 120.934 273.186 123.086 275.075C125.238 276.964 129.626 277.368 135.015 276.55C140.403 275.732 142.334 273.997 141.446 272.122C140.557 270.247 137.788 267.788 134.827 264.822C131.866 261.856 126.944 258.969 126.944 258.969C126.944 258.969 128.727 264.133 124.672 264.257C120.617 264.381 117.732 260.719 116.202 258.207Z" fill="#413938"/>
<path d="M135.013 276.55C140.401 275.732 142.332 273.997 141.444 272.122C140.555 270.247 137.786 267.788 134.825 264.822C131.864 261.856 126.942 258.969 126.942 258.969C126.942 258.969 128.725 264.133 124.67 264.257C123.137 264.304 121.921 263.857 120.919 263.148C120.637 263.897 120.473 264.764 120.55 265.748C120.85 269.547 126.725 267.979 130.876 270.23C133.756 271.791 133.429 274.347 133.848 276.708C134.231 276.661 134.618 276.61 135.013 276.55Z" fill="#16130E"/>
<path d="M126.1 252.897C126.341 250.656 127.423 244.213 128.569 236.977L117.157 238.115C118.27 245.893 116.291 257.626 116.343 259.48C116.398 261.438 117.536 263.008 119.133 264.952C120.729 266.897 127.34 265.676 128.354 264.594C129.368 263.51 125.535 258.142 126.1 252.897Z" fill="#D79270"/>
<path d="M126.099 252.895C126.337 250.68 127.397 244.362 128.527 237.23L125.665 237.516C125.166 247.044 124.571 255.446 124.061 257.866C123.247 261.732 121.406 264.09 120.553 265.748C123.086 266.424 127.536 265.464 128.353 264.592C129.367 263.508 125.534 258.14 126.099 252.895Z" fill="#AD6E4D"/>
<path d="M81.5075 261.787C81.5075 261.787 82.4762 259.519 89.5091 259.604C96.5418 259.689 97.3773 258.204 97.6655 260.498C97.9537 262.792 95.6829 266.786 95.6829 266.786C95.6829 266.786 92.5223 268.264 89.2052 267.929C85.8878 267.595 81.1777 267.11 80.7989 266.753C80.4199 266.396 81.5075 261.787 81.5075 261.787Z" fill="#16130E"/>
<path d="M94.7645 236.423L83.127 235.719C84.4195 243.368 85.7486 251.012 85.2641 255.744C84.6114 262.113 81.3506 265.253 85.3697 267.232C89.3884 269.211 96.144 267.885 96.144 267.885C96.144 267.885 97.6068 263.567 96.077 257.333C95.0036 252.96 94.3396 244.931 94.7645 236.423Z" fill="#D79270"/>
<path d="M94.7724 236.427L92.2034 236.271C92.2198 239.918 92.2593 243.533 92.1137 246.617C91.689 255.603 94.6686 267.164 94.6686 267.164C94.6686 267.164 95.5252 266.489 96.6513 265.319C96.8636 263.449 96.9034 260.672 96.085 257.337C95.0115 252.964 94.3475 244.935 94.7724 236.427Z" fill="#AD6E4D"/>
<path d="M81.986 261.418C81.986 261.418 84.3645 266.235 90.1969 264.719C96.0295 263.203 97.6618 260.498 97.6618 260.498C97.6618 260.498 98.8071 268.044 97.9405 271.329C97.0744 274.614 95.273 274.239 93.4043 273.858C91.5358 273.478 89.8235 272.841 87.9226 274.594C86.0218 276.348 82.3256 277.86 76.9806 277.937C71.6358 278.014 67.7463 278.313 65.8638 276.33C63.9811 274.347 66.7194 269.963 70.8499 268.416C74.9808 266.869 81.986 261.418 81.986 261.418Z" fill="#413938"/>
<path d="M97.9394 271.329C98.806 268.044 97.6607 260.498 97.6607 260.498C97.6607 260.498 96.6648 262.13 93.4904 263.57C93.4191 265.58 92.8502 267.904 90.7548 268.716C86.7901 270.253 87.4673 273.907 84.8639 275.611C84.2093 276.039 83.4922 276.591 82.7852 277.178C85.0876 276.556 86.8123 275.618 87.9215 274.594C89.8224 272.841 91.5346 273.478 93.4032 273.858C95.2719 274.239 97.0733 274.614 97.9394 271.329Z" fill="#16130E"/>
<path d="M74.8308 168.047C74.8308 168.047 73.2114 200.117 74.6103 209.765C76.0091 219.412 79.0063 228.345 78.6069 236.205C78.2074 244.067 89.9969 246.925 96.8911 236.205C103.785 225.486 107.382 207.62 108.381 197.616C109.381 187.611 109.181 179.036 109.181 179.036L74.8308 168.047Z" fill="#AAA9CC"/>
<path d="M100.355 176.781C99.5794 183.56 101.169 195.069 94.5314 200.235L88.936 204.761C88.936 204.761 98.0983 200.711 101.577 197.615C105.055 194.518 103.263 203.57 102.56 204.761C101.858 205.953 97.2464 213.337 92.5583 214.051C87.8704 214.765 98.2612 217.863 101.059 214.051C103.857 210.24 102.337 218.815 99.966 220.721C97.5953 222.627 93.9982 230.686 86.9375 231.917C86.9375 231.917 93.8651 230.487 96.3964 229.058C98.9272 227.629 94.9663 236.8 92.5583 239.54C92.0758 240.088 91.8427 240.741 91.8157 241.398C93.6247 240.264 95.3788 238.563 96.8957 236.204C103.79 225.485 107.387 207.619 108.386 197.615C109.385 187.61 109.185 179.035 109.185 179.035L100.355 176.781Z" fill="#9696C3"/>
<path d="M141.882 168.803C141.882 168.803 139.468 200.582 137.81 210.189C136.153 219.795 132.917 228.644 133.105 236.512C133.293 244.381 121.431 246.922 114.828 236.021C108.224 225.12 105.108 207.165 104.378 197.138C103.648 187.109 99.6934 172.85 99.6934 172.85L141.882 168.803Z" fill="#AAA9CC"/>
<path d="M122.194 242.613C125.661 239.231 127.962 235.056 129.712 233.649C132.58 231.344 134.418 220.971 131.034 225.582C127.649 230.193 115.08 226.445 120.751 225.582C126.422 224.718 132.001 215.785 132.85 214.344C133.7 212.903 135.868 201.953 131.66 205.7C127.452 209.445 116.369 214.344 116.369 214.344L123.137 208.869C131.167 202.619 129.244 188.697 130.183 180.497L141.416 174.725C140.632 184.391 139.022 203.183 137.813 210.188C136.156 219.794 132.919 228.643 133.108 236.512C133.112 236.682 133.11 236.851 133.103 237.016C132.668 238.281 132.213 239.532 131.736 240.76C129.783 243.19 126.017 244.082 122.194 242.613Z" fill="#9696C3"/>
<path d="M136.629 48.1344C136.629 48.1344 115.829 25.4916 79.6703 48.0468C79.6703 48.0468 82.41 83.0038 80.4565 103.84C78.5033 124.675 71.9922 150.645 71.9922 172.044C71.9922 184.025 74.1931 180.749 74.1931 180.749C74.193 180.749 90.3872 185.553 116.436 180.428C117.563 180.207 118.927 183.54 120.055 183.571C130.49 183.86 139.905 183.733 144.676 182.703C144.676 182.703 141.825 178.555 143.615 159.836C145.406 141.116 141.499 134.768 137.592 116.862C133.686 98.9562 132.895 75.9438 134.523 66.828C136.151 57.7123 136.629 48.1344 136.629 48.1344Z" fill="#D7D4EA"/>
<path d="M129.629 183.707C136.034 183.688 141.432 183.406 144.679 182.705C144.679 182.705 141.827 178.557 143.618 159.838C145.408 141.118 141.502 134.77 137.595 116.864C133.688 98.9582 132.898 75.9458 134.526 66.8301C136.153 57.7145 136.632 48.1365 136.632 48.1365C136.632 48.1365 132.743 43.9043 125.407 40.9219C126.828 49.8579 129.636 71.4528 124.13 74.3895C117.161 78.1061 113.134 79.1902 114.528 81.0486C115.922 82.9071 117.316 83.6813 123.82 84.3007C130.324 84.9202 130.789 87.8625 129.395 92.6634C128.001 97.4645 128.001 99.6324 128.776 100.562C129.55 101.491 127.692 104.433 125.369 107.221C123.046 110.008 120.878 111.093 125.524 111.557C130.17 112.022 134.506 109.234 132.802 117.907C131.099 126.579 131.099 138.503 136.829 136.026C142.559 133.548 141.63 145.317 134.661 157.397C129.115 167.009 125.826 177.21 129.629 183.707Z" fill="#BFBEDB"/>
<path d="M133.77 100.764L130.98 104.192C130.98 104.192 124.841 106.584 123.565 110.171C123.565 110.171 121.891 111.686 125.399 110.809C128.907 109.932 133.611 107.301 133.85 112.244C134.089 117.187 135.046 123.326 134.886 127.711C134.727 132.095 135.285 132.016 136.002 131.298C136.72 130.581 142.141 121.811 141.982 116.549C141.822 111.287 140.387 108.338 141.184 106.185C141.982 104.032 133.77 100.764 133.77 100.764Z" fill="#EABA96"/>
<path d="M110.275 53.0252C112.157 50.8383 113.315 47.6252 114.03 45.0059L121.5 57.2115L113.334 50.1718C113.334 50.1718 113.133 55.7735 106.93 57.1569C107.325 56.6019 108.259 55.3679 110.275 53.0252Z" fill="#BFBEDB"/>
<path d="M119.594 39.1766C119.594 39.1766 113.838 65.6258 113.451 75.6465C113.063 85.6677 118.707 79.0566 118.707 79.0566C118.707 79.0566 120.295 82.1441 123.098 82.2807C125.901 82.4164 127.16 80.4424 127.16 80.4424C127.16 80.4424 130.856 82.4976 130.797 80.205C130.738 77.9122 134.77 48.4067 135.776 45.6695C136.347 44.1181 135.455 43.9759 131.819 42.8539C131.748 42.832 128.631 42.4994 128.559 42.4772C127.834 42.2549 127.391 41.9725 126.948 41.657C126.302 41.1957 125.657 40.6622 124.138 40.1344C122.698 39.6342 121.476 38.3602 119.594 39.1766Z" fill="#EF4136"/>
<path d="M117.002 80.2458L122.285 51.4707L118.703 79.0587C118.703 79.0587 117.576 80.9988 117.002 80.2458Z" fill="#B20411"/>
<path d="M124.828 82.078C125.914 81.748 126.601 81.1101 126.928 80.7365L130.538 45.5762L124.828 82.078Z" fill="#B20411"/>
<path d="M124.494 63.3085L126.305 41.3027L128.078 42.4089L124.494 63.3085Z" fill="#B20411"/>
<path d="M118.751 112.684L119.799 183.513C118.724 183.063 117.478 180.224 116.436 180.429C116.322 180.452 116.209 180.473 116.096 180.496L118.751 112.684Z" fill="#BFBEDB"/>
<path d="M91.7227 52.3048L97.5423 49.2676C97.5423 49.2676 97.249 52.0233 103.542 53.9152C103.542 53.9152 98.1883 43.9881 98.2883 38.3906L96.5242 40.1059L91.7227 52.3048Z" fill="#E7E4F2"/>
<path d="M121.416 52.8888L115.308 50.5135C115.308 50.5135 115.244 53.4871 108.801 54.7753C108.801 54.7753 114.087 44.3318 114.516 38.75L116.779 40.3335L121.416 52.8888Z" fill="#E7E4F2"/>
<path d="M113.626 34.6817C113.626 34.6817 114.48 40.5182 114.907 40.8025C115.334 41.0875 110.921 53.3296 107.505 55.8922L105.939 56.6039C105.939 56.6039 99.3261 49.7924 98.291 38.3939L98.964 33.543L113.626 34.6817Z" fill="#DBA783"/>
<path d="M98.291 38.3939L98.964 33.543L113.626 34.6818C113.626 34.6818 113.964 36.9894 114.321 38.7733C112.761 40.389 110.452 42.5104 108.868 42.7581C106.323 43.1557 101.656 43.2547 103.43 53.2993C101.442 50.2221 98.9003 45.103 98.291 38.3939Z" fill="#D79270"/>
<path d="M93.257 20.2904C93.257 20.2904 89.5077 19.3716 90.6893 24.6943C91.1398 26.7228 92.1997 28.8853 93.257 29.6402C94.3142 30.3951 96.3152 30.3043 96.4663 29.9915C96.6173 29.678 94.805 20.7197 94.7673 20.2904C94.7294 19.8611 93.257 20.2904 93.257 20.2904Z" fill="#DC9771"/>
<path d="M93.7462 24.3949C93.7462 24.3949 93.5576 25.3008 94.0107 25.9051C94.4635 26.5093 94.7279 27.2737 94.4635 27.1935C94.1993 27.1133 93.2174 26.9352 92.5758 25.797C91.934 24.6589 91.8583 23.6772 92.274 23.0733C92.6889 22.4692 93.9729 22.7715 93.7462 24.3949Z" fill="#B46F48"/>
<path d="M120.484 20.2904C120.484 20.2904 125.237 20.1007 123.051 24.6943C122.158 26.5704 121.541 28.8853 120.484 29.6402C119.427 30.3951 117.426 30.3043 117.275 29.9915C117.123 29.678 118.936 20.7197 118.974 20.2904C119.011 19.8611 120.484 20.2904 120.484 20.2904Z" fill="#DC9771"/>
<path d="M119.989 24.3949C119.989 24.3949 120.178 25.3008 119.724 25.9051C119.271 26.5093 119.007 27.2737 119.271 27.1935C119.535 27.1133 120.517 26.9352 121.159 25.797C121.801 24.6589 121.876 23.6772 121.461 23.0733C121.046 22.4692 119.762 22.7715 119.989 24.3949Z" fill="#B46F48"/>
<path d="M116.34 7.5562C116.289 6.20181 109.401 8.8912 106.87 9.49323C104.339 8.89128 96.1807 6.77915 96.1294 8.13362C96.0717 9.66236 93.1634 14.4876 93.626 18.5656C94.0884 22.6429 96.2921 34.7305 97.5819 35.8957C102.594 40.4266 103.012 41.7752 106.274 41.7478C106.395 41.7618 107.346 41.7618 107.467 41.7478C110.729 41.7752 111.146 40.4266 116.159 35.8957C117.448 34.7305 119.652 22.6429 120.115 18.5656C120.577 14.4875 116.398 9.08494 116.34 7.5562Z" fill="#EABA96"/>
<path d="M97.5918 20.7904C97.5918 20.7904 99.7015 19.4174 101.542 19.8564C103.383 20.2949 104.898 21.2722 105.167 20.7904C105.436 20.3089 105.521 19.5164 105.167 19.2471C104.813 18.9783 103.694 19.3464 102.236 18.9219C100.778 18.497 99.9564 18.2987 99.2909 18.9219C98.6257 19.5446 97.5918 20.7904 97.5918 20.7904Z" fill="#0C0A0A"/>
<path d="M99.0703 22.3137C99.0703 22.3137 99.934 21.1383 101.562 21.1954C103.191 21.2518 104.054 22.3137 104.054 22.3137C104.054 22.3137 102.936 22.3988 102.794 22.3137C102.652 22.2287 103.289 22.1581 103.191 21.9311C103.091 21.7048 102.408 21.4786 101.562 21.3791C101.562 21.3791 100.67 21.3371 99.0703 22.3137Z" fill="#644035"/>
<path d="M98.4922 22.3547C98.4922 22.3547 98.9736 21.0285 100.97 20.4762C102.967 19.9237 104.538 21.1557 104.75 21.538C104.963 21.9203 104.637 22.4158 104.41 22.1612C104.184 21.9062 103.66 20.8752 102.924 20.7736C102.188 20.6715 101.338 20.2402 98.4922 22.3547Z" fill="#644035"/>
<path d="M99.1562 22.2628C99.1562 22.2628 100.867 20.9282 102.297 21.4093C103.727 21.8907 103.571 22.2628 103.571 22.2628C103.571 22.2628 101.688 22.5845 100.924 22.4711C100.159 22.3581 99.7478 21.9397 99.1562 22.2628Z" fill="white"/>
<path d="M101.418 22.4935C101.93 22.4859 102.342 22.1611 102.342 21.7603C102.342 21.621 102.291 21.4915 102.205 21.3805C101.636 21.2211 101.029 21.3339 100.509 21.5254C100.477 21.5991 100.459 21.6783 100.459 21.7602C100.459 22.1633 100.875 22.4897 101.391 22.4938C101.4 22.4939 101.409 22.4935 101.418 22.4935Z" fill="#0A0808"/>
<path d="M109.904 33.1627C109.904 33.1627 107.704 33.1546 106.442 33.1566C105.18 33.1546 102.98 33.1627 102.98 33.1627L102.031 33.2331C102.031 33.2331 102.683 34.1676 103.688 34.649C104.203 34.8957 105.08 34.9864 105.812 35.0159L105.812 35.017C105.812 35.017 106.066 35.0295 106.442 35.0287C106.818 35.0295 107.072 35.017 107.072 35.017C107.072 35.017 107.072 35.0164 107.072 35.0159C107.804 34.9864 108.681 34.8957 109.196 34.649C110.201 34.1676 110.853 33.2331 110.853 33.2331L109.904 33.1627Z" fill="#D48C8A"/>
<path d="M109.977 32.6461C109.235 32.3396 107.928 31.9413 106.97 31.6631C106.97 31.6631 106.723 31.3907 106.369 31.4909C106.014 31.3906 105.768 31.6631 105.768 31.6631C104.81 31.9413 103.502 32.3395 102.76 32.6461C101.493 33.1702 101.974 33.1638 101.974 33.1638L105.68 33.1649V33.1652H106.369H107.058L107.057 33.1649L110.763 33.1638C110.763 33.1638 111.244 33.1702 109.977 32.6461Z" fill="#C57777"/>
<path d="M99.4961 22.7285C99.4961 22.7285 100.968 23.5781 102.257 23.2097C103.546 22.842 104.055 22.7285 104.055 22.7285C104.055 22.7285 104.536 22.8919 104.282 23.0158C104.027 23.1392 102.639 23.4082 101.988 23.5496C101.337 23.6912 100.232 23.9033 99.4961 22.7285Z" fill="#B46F48"/>
<path d="M115.964 20.7904C115.964 20.7904 113.854 19.4174 112.014 19.8564C110.173 20.2949 108.658 21.2722 108.389 20.7904C108.12 20.3089 108.035 19.5164 108.389 19.2471C108.743 18.9783 109.862 19.3464 111.32 18.9219C112.778 18.497 113.6 18.2987 114.265 18.9219C114.931 19.5446 115.964 20.7904 115.964 20.7904Z" fill="#0C0A0A"/>
<path d="M114.48 22.3137C114.48 22.3137 113.616 21.1383 111.988 21.1954C110.36 21.2518 109.496 22.3137 109.496 22.3137C109.496 22.3137 110.614 22.3988 110.756 22.3137C110.898 22.2287 110.261 22.1581 110.36 21.9311C110.459 21.7048 111.142 21.4786 111.988 21.3791C111.988 21.3791 112.88 21.3371 114.48 22.3137Z" fill="#644035"/>
<path d="M115.056 22.3547C115.056 22.3547 114.574 21.0285 112.578 20.4762C110.581 19.9237 109.01 21.1557 108.797 21.538C108.585 21.9203 108.911 22.4158 109.137 22.1612C109.364 21.9062 109.887 20.8752 110.624 20.7736C111.36 20.6715 112.21 20.2402 115.056 22.3547Z" fill="#644035"/>
<path d="M114.389 22.2628C114.389 22.2628 112.678 20.9282 111.248 21.4093C109.818 21.8907 109.974 22.2628 109.974 22.2628C109.974 22.2628 111.857 22.5845 112.621 22.4711C113.386 22.3581 113.797 21.9397 114.389 22.2628Z" fill="white"/>
<path d="M112.128 22.4935C111.617 22.4859 111.205 22.1611 111.205 21.7603C111.205 21.621 111.255 21.4915 111.342 21.3805C111.911 21.2211 112.517 21.3339 113.038 21.5254C113.07 21.5991 113.088 21.6783 113.088 21.7602C113.088 22.1633 112.671 22.4897 112.156 22.4938C112.147 22.4939 112.138 22.4935 112.128 22.4935Z" fill="#0A0808"/>
<path d="M114.059 22.7285C114.059 22.7285 112.587 23.5781 111.298 23.2097C110.01 22.842 109.5 22.7285 109.5 22.7285C109.5 22.7285 109.019 22.8919 109.274 23.0158C109.529 23.1392 110.916 23.4082 111.567 23.5496C112.219 23.6912 113.323 23.9033 114.059 22.7285Z" fill="#B46F48"/>
<path d="M111.003 30.6966C109.672 29.1248 108.681 29.2098 108.681 29.2098C107.554 29.2339 106.755 29.8469 106.755 29.8469C106.755 29.8469 106.751 29.8693 106.745 29.9077C106.739 29.8692 106.735 29.8469 106.735 29.8469C106.735 29.8469 105.937 29.2339 104.809 29.2098C104.809 29.2098 103.818 29.1247 102.488 30.6966C101.879 31.4154 100.693 33.305 100.521 33.9484C101.511 33.7703 102.661 33.0586 103.351 32.7921C104.196 32.4663 106.132 32.058 106.745 31.8486C107.359 32.058 109.294 32.4663 110.139 32.7921C110.68 33.0007 111.502 33.4821 112.308 33.7674C112.268 33.4479 111.425 31.1952 111.003 30.6966Z" fill="#0C0A0A"/>
<path d="M109.811 26.9756C109.343 26.2109 108.92 26.8342 108.92 26.8342C108.92 26.8342 108.664 25.489 108.344 24.0591C108.024 22.6287 108.154 21.6235 107.941 20.6325C107.769 19.8278 107.111 20.1347 106.87 20.2787C106.629 20.1347 105.971 19.8278 105.798 20.6325C105.586 21.6235 105.715 22.6287 105.396 24.0591C105.076 25.489 104.82 26.8342 104.82 26.8342C104.82 26.8342 104.397 26.2109 103.929 26.9756C103.929 26.9756 103.5 28.1224 103.58 28.8161C103.66 29.5102 104.071 29.5382 104.496 29.5527C104.92 29.5666 105.317 29.2976 105.671 29.68C105.917 29.9463 106.308 30.1366 106.656 30.1995C106.66 30.2008 106.664 30.2035 106.667 30.2038C106.729 30.2171 106.798 30.2219 106.87 30.2203C106.942 30.2219 107.011 30.2171 107.073 30.2038C107.076 30.2035 107.08 30.2008 107.083 30.1995C107.432 30.1366 107.822 29.9463 108.069 29.68C108.423 29.2976 108.819 29.5666 109.244 29.5527C109.669 29.5382 110.079 29.5102 110.16 28.8161C110.239 28.1224 109.811 26.9756 109.811 26.9756Z" fill="#E4B290"/>
<path d="M109.668 26.9756C109.223 26.2109 108.82 26.8342 108.82 26.8342C108.82 26.8342 108.575 25.489 108.27 24.0591C107.966 22.6287 108.09 21.6235 107.887 20.6325C107.723 19.8278 107.096 20.1347 106.866 20.2787C106.636 20.1347 106.01 19.8278 105.845 20.6325C105.643 21.6235 105.766 22.6287 105.462 24.0591C105.157 25.489 104.913 26.8342 104.913 26.8342C104.913 26.8342 104.51 26.2109 104.065 26.9756C104.065 26.9756 103.656 28.1224 103.732 28.8161C103.808 29.5102 104.199 29.5382 104.604 29.5527C105.009 29.5666 105.386 29.2976 105.724 29.68C105.959 29.9463 106.331 30.1366 106.663 30.1995C106.666 30.2008 106.669 30.2035 106.673 30.2038C106.732 30.2171 106.797 30.2219 106.866 30.2203C106.935 30.2219 107 30.2171 107.059 30.2038C107.063 30.2035 107.066 30.2008 107.069 30.1995C107.402 30.1366 107.774 29.9463 108.009 29.68C108.346 29.2976 108.724 29.5666 109.128 29.5527C109.533 29.5382 109.924 29.5102 110 28.8161C110.076 28.1224 109.668 26.9756 109.668 26.9756Z" fill="#E4B290"/>
<path d="M107.891 20.6291C108.094 21.6201 107.97 22.6253 108.274 24.0556C108.579 25.4856 108.824 26.8308 108.824 26.8308C108.824 26.8308 108.852 26.7862 108.902 26.7362C108.839 26.407 108.614 25.2617 108.344 24.0557C108.025 22.6253 108.154 21.6202 107.942 20.6292C107.852 20.2118 107.809 20.2283 107.891 20.6291Z" fill="#D08C60"/>
<path d="M104.916 26.8308C104.916 26.8308 105.161 25.4856 105.466 24.0556C105.77 22.6253 105.647 21.6201 105.849 20.6291C105.931 20.2283 105.888 20.2118 105.799 20.6291C105.586 21.6201 105.716 22.6253 105.396 24.0556C105.127 25.2616 104.902 26.4069 104.838 26.7362C104.888 26.7866 104.916 26.8308 104.916 26.8308Z" fill="#D08C60"/>
<path d="M103.736 28.8188C103.66 28.1251 104.068 26.9782 104.068 26.9782C104.215 26.7256 104.358 26.6247 104.483 26.603C104.327 26.5758 104.132 26.6455 103.929 26.9782C103.929 26.9782 103.5 28.1251 103.58 28.8188C103.66 29.5129 104.071 29.5408 104.496 29.5553C104.525 29.5566 104.554 29.5555 104.583 29.554C104.187 29.5396 103.81 29.4984 103.736 28.8188Z" fill="#D08C60"/>
<path d="M109.81 26.9782C109.606 26.6455 109.412 26.5758 109.256 26.603C109.381 26.6247 109.524 26.7257 109.671 26.9782C109.671 26.9782 110.079 28.1251 110.003 28.8188C109.928 29.4984 109.552 29.5396 109.156 29.554C109.185 29.5555 109.214 29.5565 109.243 29.5553C109.668 29.5408 110.078 29.5129 110.159 28.8188C110.238 28.1251 109.81 26.9782 109.81 26.9782Z" fill="#D08C60"/>
<path d="M108.01 29.6825C107.775 29.9487 107.403 30.139 107.07 30.2019C107.067 30.2032 107.064 30.206 107.06 30.2063C107.001 30.2195 106.936 30.2243 106.867 30.2227C106.94 30.2243 107.008 30.2195 107.07 30.2063C107.074 30.206 107.077 30.2032 107.081 30.2019C107.429 30.139 107.82 29.9487 108.066 29.6825C108.203 29.5349 108.346 29.4847 108.494 29.4775C108.325 29.4698 108.163 29.5087 108.01 29.6825Z" fill="#D08C60"/>
<path d="M106.667 30.2019C106.336 30.139 105.964 29.9487 105.728 29.6825C105.575 29.5087 105.413 29.4698 105.244 29.4775C105.393 29.4847 105.535 29.5349 105.672 29.6825C105.918 29.9487 106.309 30.139 106.657 30.2019C106.661 30.2032 106.665 30.206 106.668 30.2063C106.73 30.2195 106.799 30.2243 106.871 30.2227C106.802 30.2243 106.737 30.2195 106.678 30.2063C106.674 30.206 106.671 30.2031 106.667 30.2019Z" fill="#D08C60"/>
<path d="M110.159 28.6043C110.079 29.2981 109.669 29.3268 109.244 29.3404C108.819 29.3548 108.423 29.0857 108.069 29.468C107.822 29.7343 107.432 29.9244 107.083 29.9872C107.08 29.9887 107.076 29.9912 107.072 29.9922C107.01 30.0055 106.942 30.01 106.87 30.0085C106.797 30.0101 106.729 30.0055 106.667 29.9922C106.663 29.9911 106.66 29.9887 106.656 29.9872C106.308 29.9244 105.917 29.7343 105.671 29.468C105.317 29.0857 104.92 29.3548 104.495 29.3404C104.071 29.3267 103.66 29.2981 103.58 28.6043C103.577 28.576 103.575 28.5473 103.573 28.5176C103.568 28.6217 103.57 28.7214 103.58 28.8131C103.66 29.5072 104.071 29.5352 104.495 29.5497C104.92 29.5636 105.317 29.2945 105.671 29.677C105.917 29.9433 106.308 30.1336 106.656 30.1965C106.66 30.1978 106.663 30.2005 106.667 30.2008C106.729 30.2141 106.797 30.2189 106.87 30.2173C106.942 30.2189 107.01 30.2141 107.072 30.2008C107.076 30.2005 107.08 30.1978 107.083 30.1965C107.432 30.1336 107.822 29.9433 108.069 29.677C108.423 29.2945 108.819 29.5636 109.244 29.5497C109.669 29.5352 110.079 29.5072 110.159 28.8131C110.17 28.7215 110.171 28.6217 110.166 28.5176C110.164 28.5473 110.162 28.576 110.159 28.6043Z" fill="#D08C60"/>
<path d="M105.239 28.4889C105.239 28.4889 105.395 26.5994 105.678 25.1584C105.928 23.8892 106.155 22.1902 105.703 21.1934C105.612 22.0145 105.649 22.8956 105.389 24.0572C105.069 25.4871 104.813 26.8323 104.813 26.8323C104.813 26.8323 104.627 26.5586 104.365 26.597C104.598 26.8423 104.901 27.2618 105.069 27.8943L105.239 28.4889Z" fill="#B46F48"/>
<path d="M108.513 28.4889C108.513 28.4889 108.358 26.5994 108.074 25.1584C107.825 23.8892 107.598 22.1902 108.05 21.1934C108.14 22.0145 108.104 22.8956 108.364 24.0572C108.683 25.4871 108.94 26.8323 108.94 26.8323C108.94 26.8323 109.126 26.5586 109.387 26.597C109.155 26.8423 108.851 27.2618 108.683 27.8943L108.513 28.4889Z" fill="#B46F48"/>
<path d="M105.1 28.8631C104.783 28.7118 104.383 28.8631 104.287 29.116C104.233 29.259 104.312 29.3854 104.39 29.469C104.402 29.469 104.413 29.4699 104.425 29.4702C104.85 29.4826 105.247 29.2425 105.601 29.5838C105.657 29.6378 105.721 29.6878 105.79 29.7345C105.561 29.3854 105.315 28.9665 105.1 28.8631Z" fill="#38120D"/>
<path d="M108.628 28.6835C108.944 28.5319 109.344 28.6835 109.44 28.9361C109.494 29.0791 109.416 29.2058 109.338 29.2891C109.326 29.2896 109.314 29.2896 109.302 29.29C108.877 29.303 108.481 29.0627 108.127 29.4039C108.071 29.4581 108.006 29.5079 107.938 29.5549C108.166 29.2058 108.412 28.7868 108.628 28.6835Z" fill="#38120D"/>
<path d="M107.052 35.5332C104.453 35.5332 102.238 37.1747 101.387 39.4771C103.203 41.1805 104.117 41.7629 106.272 41.7452C106.393 41.7592 107.344 41.7592 107.465 41.7452C109.723 41.7635 110.619 41.1232 112.618 39.2253C111.702 37.0559 109.555 35.5332 107.052 35.5332Z" fill="#DBA783"/>
<path d="M101.437 22.135C101.155 22.135 100.923 21.9238 100.889 21.6504C100.887 21.6732 100.885 21.6957 100.885 21.7188C100.885 22.0241 101.132 22.2711 101.437 22.2711C101.742 22.2711 101.99 22.0241 101.99 21.7188C101.99 21.6957 101.988 21.6732 101.985 21.6504C101.952 21.9238 101.719 22.135 101.437 22.135Z" fill="#683B11"/>
<path d="M101.826 21.65C101.826 21.7221 101.767 21.7808 101.695 21.7808C101.623 21.7808 101.564 21.7221 101.564 21.65C101.564 21.578 101.623 21.5195 101.695 21.5195C101.767 21.5195 101.826 21.578 101.826 21.65Z" fill="white"/>
<path d="M112.244 22.1994C111.962 22.1994 111.73 21.9879 111.696 21.7148C111.693 21.7377 111.691 21.76 111.691 21.7831C111.691 22.0886 111.939 22.3359 112.244 22.3359C112.549 22.3359 112.796 22.0886 112.796 21.7831C112.796 21.76 112.795 21.7377 112.792 21.7148C112.758 21.9879 112.526 22.1994 112.244 22.1994Z" fill="#683B11"/>
<path d="M112.632 21.7104C112.632 21.7825 112.574 21.8411 112.502 21.8411C112.43 21.8411 112.371 21.7825 112.371 21.7104C112.371 21.6386 112.43 21.5801 112.502 21.5801C112.574 21.5801 112.632 21.6387 112.632 21.7104Z" fill="white"/>
<path d="M109.496 55.3157C109.496 55.3157 105.591 56.3026 104.565 54.7637C104.565 54.7637 103.93 68.4081 104.016 71.5721C106.803 72.3498 108.755 71.9507 108.755 71.9507L109.496 55.3157Z" fill="#BFBEDB"/>
<path d="M108.799 54.7728C108.799 54.7728 104.894 55.76 103.868 54.2207C103.868 54.2207 103.233 67.8653 103.318 71.0292C106.106 71.8071 108.058 71.4074 108.058 71.4074L108.799 54.7728Z" fill="#E7E4F2"/>
<path d="M94.2977 22.2928C94.2977 22.2928 99.5465 12.2786 99.1134 8.38073C98.7527 5.13466 89.4407 2.62887 92.1967 13.186C92.7699 15.3813 92.5474 18.9261 94.2977 22.2928Z" fill="#0C0A0A"/>
<path d="M97.9646 8.31059C97.9646 8.31059 100.004 13.3664 105.345 12.356C110.686 11.3453 116.775 10.0097 118.075 12.7523C119.374 15.4953 119.104 23.8983 119.104 23.8983C119.104 23.8983 120.461 20.5034 121.528 16.8303C122.051 15.0303 120.585 12.1668 120.775 10.5999C121.023 8.55765 122.17 5.35774 121.75 3.5618C121.191 1.16884 117.681 0.617372 114.712 1.442C114.712 1.442 94.6444 -4.68206 97.9646 8.31059Z" fill="#0C0A0A"/>
<path d="M123.36 7.14001C123.145 6.30271 122.009 6.13052 121.706 6.09935L121.705 6.0763C121.705 6.0763 104.85 4.29327 91.1788 9.52268L91.2001 9.62753C91.137 9.71858 91.0735 9.88548 91.0295 10.1859C90.9078 11.0123 91.1388 11.3647 91.3939 11.6079C91.5666 11.7723 91.6334 11.8582 91.6586 11.8973L91.6679 11.9432C91.638 12.0509 91.491 12.6248 91.6007 13.151C91.7137 13.6935 92.089 14.2148 92.141 14.2847L92.1444 14.3014C92.1196 14.3682 91.9409 14.8669 91.9409 15.3872C91.9409 15.8881 92.3114 16.7389 92.6593 16.85L92.6732 16.9182C92.6732 16.9182 105.339 11.1524 121.704 15.1903C121.836 15.2496 121.94 15.2876 122.012 15.296C122.485 15.3504 122.932 14.1074 122.865 13.4424C122.798 12.7771 122.48 12.1666 122.48 12.1666C122.48 12.1666 122.935 11.4487 123.014 10.7393C123.094 10.0302 122.778 9.28778 122.778 9.28778C122.778 9.28778 122.799 9.19807 123.083 8.87688C123.367 8.5563 123.608 8.10856 123.36 7.14001Z" fill="#F15A29"/>
<path d="M120.41 5.9935C119.168 5.89939 117.127 5.78477 114.571 5.7832C112.339 5.78693 109.714 5.87411 106.891 6.12997C101.953 6.58762 96.3887 7.58227 91.1928 9.59148L91.2001 9.62727C91.137 9.71833 91.0735 9.88522 91.0295 10.1856C90.9078 11.0121 91.1388 11.3644 91.3939 11.6076C91.5666 11.7721 91.6334 11.858 91.6586 11.897L91.6679 11.9429C91.638 12.0507 91.491 12.6246 91.6007 13.1508C91.7137 13.6933 92.0891 14.2145 92.141 14.2845L92.1444 14.3011C92.1196 14.3679 91.9409 14.8667 91.9409 15.387C91.9409 15.6015 92.0095 15.8809 92.1148 16.1387C93.9968 14.1354 96.9223 12.0824 101.35 11.224C109.756 9.59327 117.778 8.06624 120.41 5.9935Z" fill="#F7941E"/>
<path d="M91.0742 11.1351C91.1491 11.3451 91.2664 11.4886 91.3897 11.6065C91.486 11.6977 91.5487 11.7647 91.5901 11.8131C94.6286 11.0002 102.201 9.24219 102.201 9.24219L91.0742 11.1351Z" fill="#BE1E2D"/>
<path d="M91.7188 13.5361C91.8348 13.8212 91.988 14.0657 92.0755 14.1942C93.4491 13.7311 105.304 11.8028 109.562 11.1426C106.425 11.4535 94.2931 12.8684 91.7188 13.5361Z" fill="#BE1E2D"/>
<path d="M123.322 8.51514C118.273 8.24153 107.562 9.09278 107.562 9.09278C113.03 8.78912 121.084 9.2191 122.787 9.31724C122.779 9.29487 122.773 9.28324 122.773 9.28324C122.773 9.28324 122.795 9.19353 123.079 8.87234C123.169 8.77062 123.255 8.65549 123.322 8.51514Z" fill="#BE1E2D"/>
<path d="M122.472 12.1672C122.472 12.1672 122.62 11.9323 122.763 11.5989C118.756 11.1318 110.678 11.8273 110.678 11.8273C113.541 11.6994 120.786 12.1703 122.529 12.2887C122.495 12.212 122.472 12.1672 122.472 12.1672Z" fill="#BE1E2D"/>
<path d="M122.011 15.2932C122.362 15.3333 122.698 14.6618 122.821 14.0409C121.287 13.8855 112.833 13.0792 106.299 13.4323C103.636 13.5762 101.42 14.1386 99.6738 14.8055C104.944 13.6999 112.773 12.9836 121.704 15.1874C121.835 15.2468 121.94 15.2847 122.011 15.2932Z" fill="#BE1E2D"/>
<path d="M78.3814 48.3176C78.3814 48.3176 73.7242 78.9049 68.2873 87.4089C63.8545 94.3423 42.8125 108.256 42.8125 108.256L50.8866 129.758L79.8486 98.8651L84.6755 44.8906C84.6755 44.8906 80.4002 46.2989 78.3814 48.3176Z" fill="#D7D4EA"/>
<path d="M129.402 100.991L143.534 113.654C143.534 113.654 167.499 88.2552 166.291 77.6827C165.084 67.1099 136.009 47.7676 136.009 47.7676L133.807 65.7533C133.807 65.7533 148.393 75.2453 148.489 80.4356C148.619 87.4467 129.402 100.991 129.402 100.991Z" fill="#D7D4EA"/>
<path d="M148.104 78.865C148.949 70.989 138.266 60.7536 134.799 57.6582L133.809 65.749C133.809 65.749 145.781 73.5406 148.104 78.865Z" fill="#BFBEDB"/>
<path d="M83.3984 59.3691C83.3984 59.3691 83.2194 59.4281 82.921 59.5378C77.0203 99.7823 71.7973 100.018 65.2989 106.826C60.854 111.482 60.6769 116.281 61.0385 118.928L79.8466 98.8659L83.3984 59.3691Z" fill="#9696C3"/>
</svg>
