<svg width="76" height="114" viewBox="0 0 76 114" fill="none" xmlns="http://www.w3.org/2000/svg">
<path d="M20.4687 17.4531C20.9392 18.4552 21.4115 19.5127 21.6398 20.6011C21.8373 21.5433 21.8866 22.5464 21.6255 23.4803C21.3075 24.6166 20.5958 25.5928 19.9683 26.5739C18.7454 28.4859 17.8564 30.5534 18.3633 32.8457L18.2663 32.8176C17.4182 31.5281 16.7188 30.0045 16.6045 28.4493C16.5291 27.4237 16.6283 26.4474 17.1374 25.5359C17.467 24.9461 17.9242 24.4432 18.3609 23.9328C20.2521 21.7224 20.694 20.3445 20.4687 17.4531Z" fill="#F96D00"/>
<path d="M48.8077 12.3379C48.9029 12.4843 48.762 12.698 48.7024 12.8621C48.3965 13.7033 48.1805 14.7075 48.2527 15.6054C48.3711 17.0797 49.1352 18.579 49.6314 19.963C50.2455 21.676 50.6576 23.4681 50.1926 25.2748C50.0009 26.0195 49.6677 26.7095 49.3417 27.4021L49.0683 26.2615C48.7735 25.3041 48.442 24.4219 47.9257 23.5594C47.4852 22.8236 46.9531 22.144 46.5281 21.3989C45.6469 19.8547 45.3661 18.0964 45.8578 16.3691C46.3301 14.7102 47.2767 13.191 48.8077 12.3379Z" fill="#F96D00"/>
<path d="M43.0757 0.818359L43.1411 0.95423C42.8892 1.27414 42.5341 1.5245 42.2205 1.78332L40.721 3.04393C40.1017 3.57295 39.5352 4.17022 38.9889 4.77355C36.8261 7.16206 34.8822 9.92449 33.5125 12.8511C32.7876 14.4003 32.2346 16.0256 31.7768 17.6711C31.077 20.1863 30.6827 22.8472 30.9929 25.4575C31.1537 26.8095 31.4173 28.1584 31.7847 29.4699L33.1894 33.987C34.6909 39.3015 34.3989 45.2616 32.9097 50.5492L31.5404 47.9729C30.4488 46.1193 29.1746 44.3467 27.8502 42.654C27.218 41.8459 26.5879 41.0143 25.841 40.3071C26.646 45.058 24.8101 50.1675 22.6424 54.3346C21.5453 56.4439 20.2954 58.4489 19.3041 60.6161C18.6018 62.1516 18.1011 63.7409 17.6553 65.3664C15.1806 63.3951 13.6596 60.8059 12.8995 57.7669C12.6387 56.7242 12.501 55.6644 12.3753 54.599C12.1342 52.5561 12.4925 50.3638 12.8968 48.3659C13.0413 47.6519 13.312 46.8573 13.3485 46.1383L13.8323 44.6431C13.4712 45.0281 13.1484 45.62 12.8935 46.0846C12.3615 46.4552 12.099 47.035 11.7712 47.5772C10.0469 50.4292 8.92266 53.7202 8.33282 56.9959C7.61493 60.9826 7.46958 65.0711 8.06016 69.0835C8.25695 70.4201 8.51651 71.7845 8.93006 73.0722C9.63019 75.2527 10.6633 77.2479 11.9683 79.1255C12.513 79.9091 13.139 80.6178 13.8157 81.2884C14.1372 81.607 14.4915 81.9699 14.875 82.2097C14.2218 84.2028 13.7929 86.3076 13.7377 88.4087C13.7358 89.3033 13.7072 90.2229 13.7978 91.1136C14.1387 94.4681 15.6501 97.3571 18.0075 99.7308L18.4267 100.128L18.355 100.105C17.9447 99.9693 17.6155 99.707 17.2614 99.4666C16.2335 98.7688 15.3904 98.0324 14.481 97.1955C14.9262 98.5416 15.3045 99.8918 15.8707 101.197C16.2256 102.015 16.6874 102.766 17.0633 103.569C18.9818 106.328 21.2697 108.702 24.1922 110.411C25.8215 111.364 27.5996 112.071 29.3889 112.658L31.3504 113.208C31.8784 113.336 32.5703 113.4 33.0224 113.696C32.0798 113.666 31.0874 113.439 30.1652 113.258C25.7416 112.388 21.4951 110.794 17.5464 108.626C16.2876 107.935 15.0138 107.204 13.8407 106.374C6.79958 101.393 1.80069 94.3238 0.340721 85.7348C-0.294038 82.0003 -0.0274126 78.3025 1.01976 74.6728C1.16915 74.1552 1.32324 73.3152 1.63342 72.8776C1.73114 73.7417 1.90459 74.5693 2.1385 75.4066C3.19875 79.2026 5.60845 82.622 8.7891 84.9354C9.16465 85.2086 9.5181 85.5366 9.92202 85.7636L8.63254 83.9667C7.51986 82.3325 6.6692 80.6046 5.93391 78.773C3.71125 73.2362 3.13782 67.2545 4.26383 61.3945C5.72629 53.7835 10.0098 45.6176 16.5329 41.1926C15.4329 42.7203 14.8978 44.619 14.5476 46.4464C13.8337 50.1728 14.2095 54.2555 16.3803 57.4492L19.7455 50.4871C22.1518 44.9261 22.589 37.9061 20.3443 32.2257C22.5703 33.6099 24.6774 35.2704 26.5503 37.1022L28.777 39.4687C29.0275 38.2592 28.9587 36.9411 28.8353 35.7177C28.5798 33.1847 27.8233 30.881 27.2037 28.4368C26.2492 24.671 26.4171 20.7489 27.68 17.0723C29.0738 13.0142 31.6334 9.62903 34.716 6.69943C37.2416 4.29908 39.9314 2.34342 43.0757 0.818359Z" fill="#E53500"/>
<path d="M17.0647 103.568C16.1689 103.445 15.1874 102.664 14.4547 102.158C11.9075 100.401 9.78002 98.0384 8.03344 95.5013C7.26309 94.3823 6.52029 93.1972 5.95485 91.959C4.71152 89.2361 3.96473 86.4147 3.43164 83.4844C5.8697 87.0968 9.4465 89.3105 13.6718 90.2287C13.761 89.8463 13.6866 89.3043 13.6847 88.9048C13.6839 88.7335 13.6582 88.5652 13.739 88.4084C13.7371 89.3029 13.7085 90.2226 13.7991 91.1133C14.14 94.4678 15.6514 97.3568 18.0088 99.7305L18.428 100.128L18.3563 100.105C17.9459 99.9689 17.6168 99.7067 17.2627 99.4663C16.2348 98.7685 15.3917 98.0321 14.4823 97.1952C14.9275 98.5413 15.3058 99.8915 15.8719 101.196C16.227 102.014 16.6887 102.766 17.0647 103.568Z" fill="#F96D00"/>
<path d="M43.0756 0.818636L44.7935 0C41.4103 4.46567 40.0028 9.76723 40.7646 15.3248C41.1844 18.3872 42.0899 21.3522 43.3419 24.1729C43.9008 25.432 44.4945 26.6629 45.2262 27.8324C46.4375 29.7685 47.8728 31.4686 49.2814 33.2557C52.2558 37.0293 55.0505 40.8033 56.675 45.3759C56.9717 46.211 57.2725 47.0408 57.447 47.9112C57.4694 48.0228 57.4571 47.9783 57.5017 48.086C58.8073 44.5589 59.1403 40.491 59.0012 36.757C58.9576 35.5836 58.9029 34.3872 58.7214 33.2259C59.8092 34.6968 60.6701 36.3191 61.4359 37.9756C62.8781 41.0952 63.8588 44.3121 63.8962 47.7741C63.9096 49.0065 63.7616 50.2619 63.5793 51.4796C63.3639 52.9181 63.0051 54.3565 62.5849 55.7486C62.1008 57.3523 61.5454 58.9126 61.2984 60.5785C61.0983 61.9279 61.1358 63.335 61.3298 64.6812C61.3828 65.0494 61.4008 65.8405 61.5731 66.1396L61.6081 66.1866C61.6906 64.8399 62.0632 63.6228 62.4455 62.3386C63.7076 58.0992 65.9171 54.3926 68.8938 51.1322C69.7179 50.2296 70.6243 49.3982 71.5212 48.5691C71.3789 49.1471 71.0929 49.7475 70.8951 50.3166C69.6586 54.498 69.1764 58.7738 69.91 63.1023C70.4012 66.0009 71.3484 68.7677 72.3878 71.5085C73.2456 73.7704 74.2817 75.9808 74.7562 78.3703C75.2054 80.6318 75.2254 82.925 75.0196 85.2133C74.0698 95.7703 66.5803 104.181 57.5889 109.08C55.2892 110.333 52.8639 111.244 50.3673 112.022C49.6408 112.248 48.8932 112.516 48.1442 112.654C47.2957 112.926 46.3962 113.089 45.523 113.265C42.0074 113.972 38.3476 114.156 34.7748 113.872C34.2603 113.831 33.5447 113.863 33.0641 113.718L33.0224 113.697C32.5702 113.401 31.8784 113.336 31.3503 113.208L29.3889 112.658C27.5996 112.071 25.8215 111.365 24.1922 110.412C21.2697 108.702 18.9818 106.329 17.0633 103.569C16.6874 102.767 16.2256 102.015 15.8706 101.197C15.3045 99.8921 14.9262 98.5419 14.481 97.1958C15.3904 98.0327 16.2335 98.7691 17.2614 99.4669C17.6155 99.7072 17.9446 99.9695 18.355 100.105L18.4267 100.128L18.0075 99.7311C15.6501 97.3574 14.1386 94.4684 13.7978 91.1139C13.7072 90.2232 13.7358 89.3036 13.7377 88.409C13.7928 86.3078 14.2218 84.2031 14.8749 82.2099C14.4915 81.9702 14.1372 81.6073 13.8157 81.2887C13.139 80.618 12.513 79.9094 11.9683 79.1257C10.6633 77.2481 9.63018 75.253 8.93004 73.0725C8.51649 71.7848 8.25691 70.4204 8.06015 69.0838C7.46958 65.0713 7.61489 60.9829 8.33281 56.9962C8.92266 53.7205 10.0469 50.4294 11.7712 47.5774C12.099 47.0352 12.3615 46.4555 12.8935 46.0849C13.1484 45.6203 13.4712 45.0283 13.8323 44.6434L13.3485 46.1385C13.312 46.8576 13.0413 47.6522 12.8968 48.3661C12.4925 50.364 12.1343 52.5564 12.3753 54.5992C12.501 55.6647 12.6387 56.7244 12.8995 57.7672C13.6596 60.8062 15.1805 63.3954 17.6552 65.3666C18.1011 63.7412 18.6018 62.1518 19.3041 60.6163C20.2954 58.4492 21.5453 56.4441 22.6424 54.3349C24.8101 50.1677 26.646 45.0583 25.841 40.3074C26.5879 41.0146 27.218 41.8462 27.8502 42.6543C29.1746 44.347 30.4488 46.1196 31.5404 47.9732L32.9097 50.5495C34.3989 45.2619 34.6909 39.3018 33.1894 33.9873L31.7847 29.4702C31.4173 28.1587 31.1536 26.8098 30.9929 25.4578C30.6827 22.8474 31.077 20.1866 31.7768 17.6714C32.2346 16.0258 32.7876 14.4005 33.5125 12.8514C34.8822 9.92476 36.826 7.16234 38.9889 4.77383C39.5352 4.1705 40.1017 3.57326 40.721 3.04421L42.2205 1.7836C42.5341 1.52477 42.8892 1.27441 43.1411 0.954507L43.0756 0.818636Z" fill="url(#paint0_linear_6491_31852)"/>
<path d="M12.8934 46.0841C13.1482 45.6194 13.4711 45.0275 13.8322 44.6426L13.3484 46.1377L13.317 46.1813L13.2656 46.2544C13.038 46.5704 12.8782 46.8919 12.7363 47.2526C12.3599 48.2094 12.1445 49.2915 11.9248 50.2967C11.0047 54.506 10.9109 58.7319 12.6649 62.7466C12.0277 62.1232 11.5272 61.1475 11.1438 60.3452C9.34607 56.5826 10.0593 52.4578 11.6186 48.7444C11.8338 48.2316 12.0602 47.706 12.3243 47.2159C12.5166 46.859 12.7413 46.5295 12.8739 46.1431L12.8934 46.0841Z" fill="#F96D00"/>
<path d="M59.8496 36.6328C59.9983 36.7558 60.1091 37.0406 60.1854 37.2186C60.5874 38.1546 60.8157 39.1781 61.0502 40.1673C61.7682 43.199 62.3335 46.558 61.9894 49.6775C61.8833 50.6393 61.5714 51.5495 61.2402 52.4514C61.1292 52.6488 60.9726 53.0114 60.7675 53.1091L60.6706 53.0169L60.7053 52.7702C60.766 52.3633 60.7038 51.8607 60.7085 51.4374C60.7165 50.6901 60.7643 49.9406 60.7326 49.1924L60.558 46.1389L60.3461 39.3227C60.3113 38.7464 60.379 37.8751 60.0636 37.3761C59.9846 37.2512 60.0048 37.3044 59.9601 37.1687L59.9314 37.073C59.8679 36.9077 59.8548 36.8106 59.8496 36.6328Z" fill="#F9A301"/>
<path d="M27.0919 49.0527C27.5189 49.3057 27.8345 49.6984 28.1385 50.0841C28.9571 51.1224 29.6046 52.2997 29.9336 53.5847C30.4966 55.7845 30.3486 58.4006 29.1663 60.379C28.4157 61.6349 27.3669 62.6622 26.5351 63.8571C25.6197 65.1723 25.0755 66.6758 24.8021 68.2467L24.4199 67.7815C24.5413 67.6145 24.4934 67.2781 24.5044 67.071C24.5624 65.9855 24.7412 64.8755 25.1206 63.8523C25.8533 61.8753 27.4535 60.4276 28.3128 58.5087C29.0047 56.9636 29.0777 55.2535 28.9117 53.5919C28.8394 52.8686 28.7107 52.0909 28.407 51.4248C28.0464 50.6335 27.4135 49.9107 27.1134 49.112L27.0919 49.0527Z" fill="#F96D00"/>
<path d="M24.4213 67.7835C24.1035 67.3713 23.8376 66.8753 23.6261 66.4006C22.3368 63.5075 22.7839 60.0392 24.51 57.4296C25.3169 56.2097 26.3376 55.0581 26.8582 53.6732C27.0537 53.153 27.1921 52.643 27.275 52.0931C27.4854 50.6984 27.1144 49.5426 26.4042 48.3555L27.0933 49.0546L27.1148 49.1138C27.4149 49.9126 28.0478 50.6354 28.4085 51.4267C28.7121 52.0928 28.8408 52.8705 28.9131 53.5938C29.0791 55.2554 29.0061 56.9655 28.3142 58.5106C27.4549 60.4295 25.8547 61.8773 25.122 63.8542C24.7426 64.8774 24.5638 65.9874 24.5058 67.0729C24.4949 67.28 24.5427 67.6164 24.4213 67.7835Z" fill="url(#paint1_linear_6491_31852)"/>
<path d="M54.8039 54.998C54.8373 55.0368 54.8911 55.0647 54.9044 55.1141C54.9291 55.2056 54.8651 55.5009 54.8528 55.6076C54.8082 55.9982 54.7655 56.4017 54.7974 56.7951C54.8517 57.465 55.0663 58.1322 55.3729 58.7274C55.7494 59.4584 56.2473 60.1267 56.7049 60.8075C57.7568 62.3725 58.6357 63.9651 58.6025 65.9059C58.5591 68.4431 57.3287 70.6273 55.5389 72.3417L54.5041 73.1588C54.8583 72.1714 55.0333 71.143 55.1599 70.1042C55.2738 69.1709 55.3547 68.1634 55.233 67.2259C55.1287 66.4228 55.0001 65.6598 54.7196 64.8952C54.1511 63.345 53.2005 61.927 53.0309 60.2484C52.8266 58.2269 53.5352 56.5382 54.8039 54.998Z" fill="#F96D00"/>
<path d="M54.0755 57.3477C54.3405 57.5869 54.2177 58.5341 54.424 58.8961L55.3635 60.6522C55.7896 61.3724 56.3028 62.0645 56.6504 62.8264C57.5209 64.7353 57.0978 66.7253 56.4007 68.609L56.0832 69.4744C56.0753 67.9875 55.9938 66.5298 55.6122 65.0838C55.301 63.9048 54.7486 62.8834 54.3437 61.7493C54.0391 60.8961 53.8522 59.9575 53.8416 59.0509C53.8376 58.7139 53.819 58.3602 53.8818 58.0288L53.8971 57.9533C53.9383 57.7366 53.9912 57.5522 54.0755 57.3477Z" fill="url(#paint2_linear_6491_31852)"/>
<path d="M61.6077 66.1858C61.6902 64.8391 62.0628 63.622 62.4451 62.3379C63.7072 58.0984 65.9167 54.3919 68.8934 51.1314C69.7176 50.2288 70.624 49.3974 71.5209 48.5684C71.3785 49.1464 71.0925 49.7467 70.8948 50.3158C70.3049 50.6721 70.033 51.4503 69.6878 52.0318C67.6449 55.4736 65.8678 59.267 64.9031 63.1685C64.0032 66.8076 63.9334 70.505 64.0347 74.2296C62.9906 72.6667 62.0875 70.9993 61.7453 69.1321C61.5744 68.1998 61.5648 67.1945 61.6131 66.2523L61.6077 66.1858Z" fill="#E53500"/>
<path d="M67.9855 57.2109C68.0891 57.3728 68.0458 60.1568 68.0647 60.6039C68.1207 61.9333 68.2673 63.2404 68.5044 64.5497C68.7849 66.0988 69.2996 67.5684 69.9506 68.9964C71.4796 72.351 73.5574 75.4321 73.5993 79.2672C73.6352 82.5425 72.2771 86.1511 69.9868 88.5C69.5321 88.917 69.091 89.2653 68.5713 89.6023C68.9646 88.4943 69.3263 87.3294 69.4556 86.1576C69.8774 82.3345 68.012 78.4983 67.0682 74.8754C65.8906 70.355 65.8746 65.5662 66.7792 60.9941C67.0296 59.7282 67.3241 58.3329 67.9855 57.2109Z" fill="#F96D00"/>
<path d="M67.4433 62.2148C67.5894 62.6101 67.5637 63.1262 67.6335 63.5483L68.2973 66.8429C68.5277 67.7543 68.7739 68.6741 69.0871 69.561L70.8457 74.0689C72.0558 77.3578 72.7869 81.0432 71.2504 84.3664L70.7414 85.1741C70.7758 83.8495 70.5645 82.6351 70.3055 81.3434L68.5581 74.3809C67.8609 71.4831 67.4713 68.4567 67.3461 65.4804L67.3223 63.3262C67.3364 62.9504 67.3352 62.5781 67.4433 62.2148Z" fill="#F9A301"/>
<path d="M46.3063 57.0516C46.5317 56.8324 46.5158 56.2929 46.5665 55.9785C46.7652 54.7449 46.9635 53.5333 46.9799 52.2803C47.0381 47.8385 44.804 43.3265 42.2312 39.8178C40.729 37.7692 39.0328 35.8394 37.6869 33.6801C35.6118 30.3508 34.3034 26.7919 34.0085 22.866C33.8342 20.5483 33.9009 18.2045 34.545 15.9568C34.8743 14.8077 35.3581 13.701 35.8421 12.6106C36.8343 10.375 37.976 8.26109 39.2316 6.16406C38.6763 8.29688 38.245 10.5905 38.1863 12.7994C38.1506 14.1384 38.2921 15.4582 38.4732 16.7825C38.5937 17.6638 38.7035 18.5283 38.8921 19.3994C39.4639 22.0402 40.5616 24.7973 41.9355 27.1237C42.7044 28.4259 43.6092 29.6337 44.4776 30.8688L47.1162 34.8972C49.4273 38.7454 51.0366 43.0821 51.6867 47.5286C51.8629 48.7328 52.0297 49.9485 52.0454 51.1678C52.0541 51.8488 51.9939 52.5346 51.9535 53.2144C51.8749 54.5338 51.7395 55.8649 51.416 57.1495C51.0231 58.71 50.5399 60.2427 49.9701 61.7472C49.6078 62.7039 49.1155 63.7964 48.4586 64.5847C48.2025 64.8921 48.086 65.2179 47.743 65.4547L47.7122 65.4911L46.3063 57.0516Z" fill="#F96D00"/>
<path d="M37.4852 12.666C37.4556 13.5601 37.3711 14.4368 37.3946 15.3345C37.501 19.422 38.5698 23.7365 40.3293 27.4231C41.3509 29.5637 42.6802 31.4335 43.9148 33.4434C45.964 36.7795 47.6255 40.2452 48.6221 44.0429C48.9055 45.1227 49.1851 46.2147 49.3286 47.3227C49.1704 47.0585 49.0569 46.7678 48.9335 46.4863C47.6609 43.9483 46.1676 41.5683 44.4571 39.3011C42.5029 36.7108 40.3476 34.2474 38.8334 31.3532C37.929 29.6241 37.1157 27.6499 36.6638 25.7494C35.8937 22.5108 35.951 19.1682 36.5835 15.9142C36.7969 14.8164 37.1524 13.7317 37.4852 12.666Z" fill="#F9A301"/>
<path d="M14.8753 82.2103C16.269 78.1574 18.3428 74.362 20.8178 70.875C21.4541 69.9786 22.0933 69.0546 22.8256 68.2344C22.6961 68.8547 22.6445 69.5009 22.5738 70.1302C22.339 72.2192 22.3584 74.2136 22.6816 76.2949C22.8694 77.5036 23.135 78.7057 23.6817 79.8071C24.0311 78.4619 24.3269 77.1355 24.7632 75.811C26.2038 71.4369 28.3908 67.201 30.6274 63.1869C32.6127 59.6238 34.7622 56.1621 36.3152 52.3771C38.1606 47.88 39.4896 42.3054 37.5099 37.6269L37.4846 37.5684C38.0691 38.0859 38.5878 38.9575 39.0311 39.6044C40.1201 41.1938 41.0183 42.8674 41.875 44.5901C43.853 48.5677 45.3389 52.7148 46.3061 57.0507L47.7121 65.4904L50.1494 75.1251C50.6623 77.0603 51.2375 78.9852 51.5735 80.9616C51.9505 83.1791 52.07 85.331 52.0669 87.5734C52.9592 86.8725 53.8345 86.2186 54.6019 85.3745C56.4245 83.3693 57.4488 80.4298 57.7729 77.778C57.9337 76.4636 57.9769 75.1995 57.8445 73.8797C57.7895 73.3318 57.6128 72.7192 57.6198 72.1799C58.9485 74.2239 60.2591 76.2667 61.296 78.4807C63.7106 83.6373 64.4735 89.467 63.2958 95.0513L62.428 98.2056C61.6585 98.3712 60.9393 98.9662 60.2474 99.3441C59.0096 100.02 57.7067 100.574 56.4075 101.119C55.8628 101.348 55.0641 101.747 54.4809 101.77C56.6684 98.1978 58.0965 94.0513 58.3855 89.8574C58.4601 88.7724 58.4239 87.6714 58.4141 86.5842C57.9337 87.6933 57.542 88.786 56.8763 89.8063C55.3513 92.144 53.0484 93.6863 50.5688 94.8708C49.2872 95.4829 48.0084 95.9963 46.6143 96.2942C47.4198 94.5585 48.1709 92.6619 48.6364 90.8028C48.7366 90.2319 48.942 89.8007 48.8517 89.205C48.673 88.0271 48.4097 86.9103 47.9613 85.8025C47.2431 84.0279 46.119 82.3531 45.1373 80.7146C42.3236 76.0182 39.8131 70.3847 40.1701 64.7833C40.2562 63.433 40.5735 62.1321 40.8642 60.8168C40.6671 61.0586 40.5242 61.4179 40.3513 61.6847L39.2929 63.16L33.4278 70.9376L31.066 74.7408C30.094 76.4462 29.1889 78.1943 28.6055 80.0772C27.6237 83.246 27.5397 86.6985 28.1463 89.9449C28.3537 91.1744 28.6724 92.5411 29.2099 93.6739C28.0653 92.9726 26.9268 92.2654 25.8785 91.4232C24.2449 90.1109 22.7379 88.3659 21.6792 86.561C21.1815 85.7128 20.7525 84.8263 20.4637 83.8845C20.4334 83.7855 20.1215 82.7774 20.0909 82.765C19.7892 83.8128 19.6562 84.8474 19.5303 85.9273C18.8979 91.3554 20.1276 96.6455 22.0407 101.702C21.1195 101.377 20.1999 101.037 19.3146 100.622C19.0107 100.48 18.7423 100.233 18.4271 100.129L18.0079 99.7315C15.6505 97.3579 14.1391 94.4688 13.7982 91.1144C13.7077 90.2236 13.7363 89.304 13.7382 88.4094C13.7932 86.3082 14.2222 84.2035 14.8753 82.2103Z" fill="url(#paint3_linear_6491_31852)"/>
<path d="M28.1453 89.9445C27.5387 86.6981 27.6227 83.2456 28.6045 80.0768C29.188 78.194 30.093 76.4458 31.0651 74.7404L33.4269 70.9372L39.292 63.1596L40.3504 61.6843C40.5232 61.4175 40.6661 61.0582 40.8632 60.8164C40.5726 62.1317 40.2553 63.4326 40.1691 64.7829C39.8121 70.3843 42.3226 76.0178 45.1363 80.7142C46.118 82.3527 47.2422 84.0275 47.9603 85.8021C48.4088 86.9099 48.672 88.0267 48.8507 89.2046C48.941 89.8003 48.7356 90.2315 48.6354 90.8024C48.1699 92.6615 47.4188 94.5581 46.6134 96.2938C48.0075 95.9959 49.2862 95.4825 50.5678 94.8704C53.0475 93.6859 55.3503 92.1436 56.8753 89.8059C57.541 88.7857 57.9327 87.693 58.4131 86.5838C58.4229 87.671 58.4591 88.7719 58.3845 89.857C58.0956 94.0509 56.6674 98.1974 54.4799 101.77C55.0631 101.746 55.8618 101.348 56.4065 101.119C57.7057 100.573 59.0087 100.02 60.2464 99.3437C60.9383 98.9658 61.6576 98.3708 62.427 98.2052C61.9356 99.3726 61.4586 100.537 60.8401 101.646C58.212 106.355 54.0417 110.17 49.0332 112.203C48.7568 112.315 48.3382 112.425 48.1437 112.654C47.2952 112.926 46.3957 113.089 45.5225 113.265C42.0069 113.972 38.3471 114.156 34.7742 113.872C34.2598 113.831 33.5442 113.863 33.0636 113.718L33.0219 113.697C32.5697 113.401 31.8778 113.336 31.3498 113.208L29.3884 112.659C27.5991 112.071 25.8209 111.365 24.1917 110.412C21.2691 108.702 18.9813 106.329 17.0628 103.569C16.6869 102.767 16.2251 102.015 15.8701 101.197C15.304 99.8921 14.9257 98.5419 14.4805 97.1958C15.3898 98.0327 16.233 98.7691 17.2609 99.4669C17.615 99.7072 17.9441 99.9695 18.3545 100.106L18.4262 100.128C18.7414 100.233 19.0097 100.479 19.3137 100.622C20.1989 101.037 21.1185 101.376 22.0397 101.702C20.1266 96.6451 18.8969 91.355 19.5294 85.9269C19.6552 84.847 19.7882 83.8124 20.09 82.7646C20.1206 82.7769 20.4324 83.7852 20.4628 83.8841C20.7516 84.8259 21.1806 85.7123 21.6782 86.5606C22.737 88.3654 24.244 90.1105 25.8775 91.4228C26.9259 92.265 28.0643 92.9721 29.2089 93.6735C28.6714 92.5407 28.3527 91.174 28.1453 89.9445Z" fill="url(#paint4_linear_6491_31852)"/>
<path d="M32.8858 93.7883C32.6508 92.0703 32.7466 90.3498 33.0142 88.6413C33.7902 83.6872 36.0933 79.1485 38.0265 74.5723C37.9509 77.1957 38.4198 79.728 39.2916 82.1982L40.3868 84.9496C40.9576 86.4965 41.2837 88.0987 41.0749 89.7513C40.9579 90.6784 40.6602 91.5774 40.3753 92.463L39.5728 94.13L40.6287 93.2993C40.7733 93.1802 40.996 93.0305 41.1009 92.882C41.5069 92.587 41.9196 92.1064 42.2379 91.7166C43.6933 89.9341 44.1918 87.9186 44.8033 85.7599L45.2673 90.7181C45.4637 93.9878 45.4212 97.814 43.8787 100.795C43.45 101.623 42.8672 102.378 42.3179 103.129L42.3769 103.099C43.0551 102.755 43.7895 102.5 44.4923 102.21C46.6324 101.326 48.9147 100.371 50.336 98.4515C50.5994 98.0955 50.7869 97.691 50.9818 97.2952C50.9812 97.7295 50.8111 98.1661 50.6836 98.5782C50.1783 100.212 49.387 101.863 48.4095 103.269L48.3797 103.267C48.0616 103.249 47.7365 103.332 47.4232 103.383L45.7709 103.635C44.1406 103.856 42.4572 104.024 40.8146 104.092C37.7536 104.219 34.6244 104.213 31.5752 103.89L28.8649 103.522C28.3398 103.437 27.8085 103.303 27.2792 103.258L27.2285 103.254L27.1856 103.23C25.3594 100.403 24.0984 97.2769 23.4004 93.9917C23.7532 94.6574 24.0482 95.3419 24.449 95.9832C25.6487 97.9026 27.5992 99.4251 29.5981 100.454C30.8907 101.119 32.1209 101.684 33.327 102.505C32.0184 100.814 31.244 98.6831 30.7746 96.614C30.4806 95.3185 30.2874 93.9261 30.3687 92.5964C30.9056 93.7895 31.5951 94.8677 32.4665 95.8467C32.9947 96.4402 33.5711 96.9743 34.0749 97.5923C33.5509 96.3487 33.1286 95.1184 32.8858 93.7883Z" fill="url(#paint5_linear_6491_31852)"/>
<path d="M17.0628 103.568C16.6869 102.766 16.2251 102.015 15.8701 101.197C15.304 99.8916 14.9257 98.5415 14.4805 97.1953C15.3898 98.0323 16.233 98.7687 17.2609 99.4665C17.615 99.7068 17.9441 99.9691 18.3545 100.105L18.4262 100.128C18.7414 100.232 19.0097 100.479 19.3137 100.621C20.1989 101.036 21.1185 101.376 22.0397 101.701L22.1052 101.789L27.1859 103.229L27.2288 103.254L27.2796 103.258C27.8088 103.302 28.3402 103.436 28.8653 103.522L31.5755 103.89C34.6248 104.213 37.754 104.219 40.8149 104.092C42.4575 104.024 44.1409 103.856 45.7713 103.635L47.4235 103.382C47.7369 103.331 48.062 103.248 48.38 103.267L48.4098 103.268L49.283 103.127L49.8998 103.003L50.0585 102.98L52.918 102.301L53.1736 102.241C53.4542 102.152 53.7675 102.044 54.0592 102.003C54.2775 101.973 54.3201 101.914 54.48 101.769C55.0632 101.746 55.8619 101.347 56.4065 101.118C57.7058 100.573 59.0087 100.02 60.2465 99.3433C60.9384 98.9654 61.6576 98.3703 62.4271 98.2048C61.9357 99.3721 61.4586 100.537 60.8402 101.645C58.2121 106.355 54.0418 110.17 49.0332 112.202C48.7569 112.314 48.3383 112.424 48.1437 112.653C47.2953 112.925 46.3958 113.088 45.5226 113.264C42.007 113.972 38.3472 114.156 34.7743 113.872C34.2598 113.831 33.5443 113.862 33.0636 113.718L33.0219 113.696C32.5698 113.4 31.8779 113.335 31.3499 113.208L29.3884 112.658C27.5992 112.071 25.821 111.364 24.1918 110.411C21.2691 108.702 18.9813 106.328 17.0628 103.568Z" fill="#E88F00"/>
<path d="M22.1055 101.789L27.1862 103.229L27.2291 103.254C27.5629 103.958 28.0412 104.632 28.4837 105.272C29.5767 106.855 30.7766 108.292 32.0806 109.706C32.7048 110.383 33.3147 111.088 33.989 111.715C34.4179 112.114 34.8616 112.503 35.3272 112.858C35.6384 113.095 36.0132 113.317 36.2841 113.597C35.7357 113.579 35.0585 113.211 34.5447 113.012C29.3799 111.015 24.379 106.906 22.1055 101.789Z" fill="#F9A301"/>
<path d="M27.2305 103.254L27.2812 103.258C27.8105 103.303 28.3418 103.436 28.8669 103.522L31.5771 103.89C34.6264 104.213 37.7556 104.219 40.8166 104.092C42.4592 104.024 44.1425 103.856 45.7729 103.635L47.4251 103.382C47.7385 103.332 48.0636 103.248 48.3816 103.267C48.2032 103.858 47.5728 104.545 47.1902 105.051C44.7017 108.342 41.5745 111.492 37.9133 113.462C37.5406 113.663 37.1575 113.795 36.7445 113.885L36.2855 113.597C36.0146 113.317 35.6398 113.095 35.3287 112.858C34.8631 112.503 34.4193 112.114 33.9904 111.715C33.3161 111.089 32.7063 110.383 32.082 109.706C30.7781 108.293 29.5782 106.855 28.4851 105.272C28.0426 104.632 27.5643 103.958 27.2305 103.254Z" fill="#EEBA24"/>
<defs>
<linearGradient id="paint0_linear_6491_31852" x1="42.6606" y1="112.305" x2="39.0978" y2="0.530122" gradientUnits="userSpaceOnUse">
<stop stop-color="#EC4000"/>
<stop offset="1" stop-color="#FD5F00"/>
</linearGradient>
<linearGradient id="paint1_linear_6491_31852" x1="29.3703" y1="64.6054" x2="22.2145" y2="52.4305" gradientUnits="userSpaceOnUse">
<stop stop-color="#FB7200"/>
<stop offset="1" stop-color="#FC9A01"/>
</linearGradient>
<linearGradient id="paint2_linear_6491_31852" x1="56.5974" y1="62.9219" x2="54.544" y2="63.5835" gradientUnits="userSpaceOnUse">
<stop stop-color="#FC8F01"/>
<stop offset="1" stop-color="#FCAE01"/>
</linearGradient>
<linearGradient id="paint3_linear_6491_31852" x1="38.6946" y1="101.662" x2="39.1746" y2="38.131" gradientUnits="userSpaceOnUse">
<stop stop-color="#FE9400"/>
<stop offset="1" stop-color="#FBC265"/>
</linearGradient>
<linearGradient id="paint4_linear_6491_31852" x1="37.5927" y1="104.5" x2="43.0716" y2="61.235" gradientUnits="userSpaceOnUse">
<stop stop-color="#FFAA00"/>
<stop offset="1" stop-color="#FEF07F"/>
</linearGradient>
<linearGradient id="paint5_linear_6491_31852" x1="37.3616" y1="104.051" x2="36.7782" y2="75.2762" gradientUnits="userSpaceOnUse">
<stop stop-color="#FEC95A"/>
<stop offset="1" stop-color="#FFFB9B"/>
</linearGradient>
</defs>
</svg>
