<svg width="372" height="372" viewBox="0 0 372 372" fill="none" xmlns="http://www.w3.org/2000/svg">
<path d="M186 372C288.725 372 372 288.725 372 186C372 83.275 288.725 0 186 0C83.2751 0 0 83.275 0 186C0 288.725 83.2751 372 186 372Z" fill="#58CC02"/>
<path d="M186.698 368.579C287.918 368.579 369.973 286.524 369.973 185.303C369.973 84.0827 287.918 2.02734 186.698 2.02734C85.4772 2.02734 3.42188 84.0827 3.42188 185.303C3.42188 286.524 85.4772 368.579 186.698 368.579Z" fill="#B7EB90"/>
<path d="M196.447 344.155C289.564 344.155 365.05 268.669 365.05 175.552C365.05 82.4354 289.564 6.94922 196.447 6.94922C103.33 6.94922 27.8438 82.4354 27.8438 175.552C27.8438 268.669 103.33 344.155 196.447 344.155Z" fill="#DFF5CF"/>
<path d="M312.881 111.463C310.26 119.969 298.04 119.104 288.082 116.037C278.123 112.969 273.578 106.565 276.198 98.0578C278.819 89.5514 289.016 85.1421 298.975 88.2098C308.934 91.2779 315.501 102.956 312.881 111.463Z" fill="white"/>
<path d="M332.873 125.231C334.344 120.456 331.004 115.189 325.414 113.467C319.823 111.745 314.099 114.22 312.628 118.995C311.157 123.77 314.497 129.037 320.087 130.759C325.677 132.481 331.402 130.006 332.873 125.231Z" fill="white"/>
<path d="M315.28 143.49C312.561 145.51 308.439 144.568 306.073 141.384C303.707 138.2 305.286 133.277 308.006 131.257C310.725 129.237 313.556 130.883 315.921 134.067C318.287 137.25 318 141.469 315.28 143.49Z" fill="white"/>
</svg>
