<svg width="71" height="71" viewBox="0 0 71 71" fill="none" xmlns="http://www.w3.org/2000/svg">
<path d="M35.499 3.48047C36.2063 3.48047 36.8455 3.8986 37.1299 4.55469V4.55566L45.2334 23.5215L45.7021 24.6201L46.8916 24.7275L67.3838 26.5889H67.3848C68.0944 26.6529 68.692 27.1308 68.9102 27.8057V27.8086C69.1305 28.4879 68.9273 29.2276 68.3896 29.6982L68.3877 29.6992L52.8984 43.2803L52.0029 44.0664L52.2666 45.2275L56.834 65.3467C56.9914 66.0434 56.7216 66.7609 56.1436 67.1807C55.5663 67.5989 54.8043 67.6303 54.2012 67.2676L54.1953 67.2637L36.5254 56.7002L35.5 56.0869L34.4736 56.7002L16.7969 67.2637L16.7959 67.2646C16.5092 67.4364 16.1985 67.5195 15.8887 67.5195C15.5738 67.5195 15.2574 67.4335 14.9707 67.2588L14.8496 67.1787C14.2758 66.7634 14.0042 66.0483 14.1621 65.3467L18.7295 45.2275L18.9932 44.0664L18.0977 43.2812L2.60742 29.6963L2.60449 29.6934L2.50781 29.6025C2.0477 29.136 1.88088 28.4463 2.08789 27.8096C2.30849 27.1312 2.90508 26.6536 3.61426 26.5879L24.1074 24.7275L25.2959 24.6201L25.7656 23.5215L33.8672 4.56152C34.1508 3.90023 34.7907 3.4806 35.499 3.48047Z" fill="#FFDD63" stroke="white" stroke-width="4"/>
</svg>
