<svg width="72" height="72" viewBox="0 0 72 72" fill="none" xmlns="http://www.w3.org/2000/svg">
<rect width="72" height="72" rx="36" fill="url(#paint0_linear_7189_25706)"/>
<g clip-path="url(#clip0_7189_25706)">
<path d="M45.4202 30.5541C45.1696 30.2438 44.806 30.0458 44.4093 30.0036C44.0127 29.9614 43.6155 30.0785 43.3052 30.3291C42.9949 30.5797 42.7969 30.9434 42.7547 31.34C42.7125 31.7366 42.8296 32.1338 43.0802 32.4441C43.8381 33.4745 44.2468 34.72 44.2468 35.9991C44.2468 37.2781 43.8381 38.5237 43.0802 39.5541C42.9014 39.7745 42.7888 40.0412 42.7555 40.3231C42.7222 40.605 42.7695 40.8905 42.8921 41.1466C43.0146 41.4026 43.2072 41.6187 43.4477 41.7696C43.6881 41.9205 43.9664 42.0001 44.2502 41.9991C44.4743 41.9999 44.6957 41.9504 44.8982 41.8544C45.1007 41.7583 45.2791 41.6181 45.4202 41.4441C46.61 39.8782 47.2542 37.9657 47.2542 35.9991C47.2542 34.0325 46.61 32.12 45.4202 30.5541Z" fill="white"/>
<path d="M47.4597 25.8449C47.308 25.7189 47.133 25.6239 46.9446 25.5655C46.7563 25.507 46.5582 25.4863 46.3618 25.5044C46.1654 25.5225 45.9745 25.5791 45.8 25.671C45.6255 25.7629 45.4708 25.8882 45.3447 26.0399C45.2186 26.1916 45.1237 26.3666 45.0653 26.555C45.0068 26.7434 44.9861 26.9414 45.0042 27.1378C45.0223 27.3342 45.0789 27.5251 45.1708 27.6996C45.2627 27.8741 45.388 28.0289 45.5397 28.1549C46.7428 29.0847 47.7227 30.2717 48.4079 31.6291C49.0931 32.9864 49.4661 34.4798 49.4997 35.9999C49.4661 37.52 49.0931 39.0134 48.4079 40.3708C47.7227 41.7281 46.7428 42.9151 45.5397 43.8449C45.3878 43.9708 45.2623 44.1255 45.1702 44.3C45.0782 44.4745 45.0215 44.6655 45.0034 44.862C44.9853 45.0584 45.0061 45.2565 45.0647 45.4449C45.1232 45.6333 45.2184 45.8083 45.3447 45.9599C45.4857 46.1292 45.6624 46.2654 45.862 46.3587C46.0616 46.4521 46.2793 46.5003 46.4997 46.4999C46.8502 46.5006 47.1898 46.3785 47.4597 46.1549C49.0054 44.9466 50.2605 43.4071 51.1327 41.6497C52.0049 39.8923 52.472 37.9617 52.4997 35.9999C52.472 34.0382 52.0049 32.1076 51.1327 30.3502C50.2605 28.5928 49.0054 27.0533 47.4597 25.8449Z" fill="white"/>
<path d="M39.7055 22.6805C39.4775 22.5488 39.2188 22.4795 38.9555 22.4795C38.6922 22.4795 38.4335 22.5488 38.2055 22.6805L28.5005 29.3555H21.0005C20.6027 29.3555 20.2211 29.5135 19.9398 29.7948C19.6585 30.0761 19.5005 30.4576 19.5005 30.8555V41.1455C19.5005 41.5433 19.6585 41.9248 19.9398 42.2061C20.2211 42.4874 20.6027 42.6455 21.0005 42.6455H28.5005L38.1155 49.2455C38.3789 49.4159 38.6868 49.5046 39.0005 49.5005C39.3983 49.5005 39.7798 49.3424 40.0611 49.0611C40.3425 48.7798 40.5005 48.3983 40.5005 48.0005V24.0005C40.4998 23.7291 40.4254 23.463 40.2854 23.2306C40.1454 22.9981 39.945 22.808 39.7055 22.6805Z" fill="white"/>
</g>
<defs>
<linearGradient id="paint0_linear_7189_25706" x1="72" y1="72" x2="3.77449" y2="61.5509" gradientUnits="userSpaceOnUse">
<stop stop-color="#C20281"/>
<stop offset="1" stop-color="#FF4BC2"/>
</linearGradient>
<clipPath id="clip0_7189_25706">
<rect width="36" height="36" fill="white" transform="translate(18 18)"/>
</clipPath>
</defs>
</svg>
