<svg width="165" height="239" viewBox="0 0 165 239" fill="none" xmlns="http://www.w3.org/2000/svg">
<path d="M1.75934 234.515C0.662794 234.647 -0.118382 235.644 0.0145324 236.741C0.147447 237.837 1.14412 238.618 2.24066 238.485L1.75934 234.515ZM164 2.5C163.716 0.520291 163.714 0.520487 163.713 0.520742C163.712 0.520903 163.709 0.521217 163.707 0.521542C163.703 0.522193 163.697 0.523079 163.689 0.524205C163.674 0.526457 163.652 0.529667 163.624 0.533872C163.569 0.542282 163.489 0.554669 163.385 0.571316C163.177 0.604608 162.873 0.654945 162.482 0.724585C161.698 0.863854 160.56 1.0804 159.125 1.39232C156.256 2.016 152.193 3.02193 147.388 4.55563C137.788 7.61973 125.17 12.8079 113.187 21.3061C101.195 29.8104 89.8012 41.6572 82.7453 58.0287C75.684 74.413 73.0331 95.177 78.289 121.393L80.25 121L82.211 120.607C77.0919 95.073 79.7223 75.1495 86.4187 59.6119C93.1207 44.0615 103.962 32.7521 115.501 24.5689C127.049 16.3796 139.259 11.349 148.604 8.36624C153.272 6.87651 157.211 5.90197 159.975 5.30104C161.357 5.00066 162.444 4.79386 163.181 4.66287C163.55 4.59737 163.831 4.55085 164.017 4.52106C164.11 4.50617 164.179 4.49546 164.224 4.48866C164.247 4.48526 164.263 4.48284 164.273 4.48136C164.278 4.48062 164.281 4.48011 164.283 4.47984C164.284 4.4797 164.284 4.47967 164.285 4.4796C164.285 4.47963 164.284 4.47971 164 2.5ZM80.25 121L78.289 121.393C83.4129 146.951 81.1165 166.7 74.9241 181.959C68.7298 197.222 58.5751 208.144 47.7384 215.939C36.8896 223.743 25.3796 228.395 16.5591 231.095C12.154 232.444 8.43408 233.301 5.82329 233.821C4.51828 234.08 3.49155 234.255 2.79624 234.364C2.44863 234.419 2.18396 234.457 2.0089 234.481C1.92137 234.493 1.85626 234.502 1.81438 234.508C1.79344 234.51 1.77832 234.512 1.76911 234.513C1.76451 234.514 1.76138 234.514 1.75975 234.514C1.75893 234.515 1.75883 234.515 1.75842 234.515C1.75869 234.515 1.75934 234.515 2 236.5C2.24066 238.485 2.24207 238.485 2.24384 238.485C2.24494 238.485 2.2471 238.485 2.24929 238.484C2.25367 238.484 2.25956 238.483 2.26694 238.482C2.28169 238.48 2.3024 238.478 2.32897 238.474C2.38211 238.467 2.45867 238.457 2.55783 238.443C2.75613 238.416 3.04484 238.374 3.41726 238.316C4.16202 238.199 5.24197 238.015 6.60347 237.744C9.32568 237.202 13.178 236.314 17.73 234.92C26.8235 232.136 38.7666 227.32 50.0741 219.186C61.3937 211.044 72.0983 199.559 78.6305 183.463C85.1647 167.362 87.4621 146.799 82.211 120.607L80.25 121Z" fill="#FF7F36"/>
</svg>
