<svg width="88" height="88" viewBox="0 0 88 88" fill="none" xmlns="http://www.w3.org/2000/svg">
<g clip-path="url(#clip0_6575_47464)">
<rect width="88" height="88" rx="44" fill="#FFCC00" fill-opacity="0.2"/>
<path d="M78.0124 26.3715C78.0113 26.4164 78.0103 26.4613 78.022 26.5377C78.0663 27.6778 78.1554 28.7884 78.1162 29.8945C78.0532 31.6774 77.7793 33.4321 77.0569 35.0801C76.9721 34.3244 76.6079 33.7481 76.0556 33.2961C74.517 32.0369 72.2413 32.309 71.0182 33.8839C70.8176 34.1423 70.6251 34.4069 70.3898 34.7206C69.9712 34.2659 69.5305 33.9011 69.2326 33.4433C68.113 31.7226 66.9606 30.0152 65.9742 28.2184C65.1566 26.7292 64.0453 25.6524 62.5329 24.9425C61.4655 24.4416 60.3964 23.944 59.3382 23.4242C58.0279 22.7806 56.8572 21.96 56.2668 20.5597C56.0261 19.989 55.92 19.3615 55.7487 18.7457C55.6601 18.8715 55.5558 19 55.4728 19.1409C54.8417 20.2121 54.068 21.1637 53.0696 21.9104C51.9508 22.747 50.8193 23.5672 49.6784 24.3735C48.1893 25.4261 47.0549 26.753 46.5247 28.5169C46.1963 29.6094 45.9641 30.7308 45.6538 31.85C45.5533 31.9424 45.4878 32.024 45.3782 32.1603C44.8732 30.5236 44.5674 28.9257 44.4113 27.2955C44.3939 27.1135 44.2724 26.9415 44.1992 26.7649C44.2046 26.5265 44.21 26.2881 44.2076 26.0055C44.2055 25.5199 44.2112 25.0784 44.2627 24.5801C44.3447 24.4536 44.4107 24.3847 44.4125 24.3141C44.4428 23.1442 44.7496 22.0449 45.2286 20.9844C45.2836 20.8625 45.2552 20.7029 45.2654 20.5608C45.2654 20.5608 45.2738 20.5542 45.309 20.5503C45.3512 20.4837 45.3582 20.421 45.3652 20.3583C45.3652 20.3583 45.3743 20.352 45.4101 20.348C45.4562 20.2809 45.4666 20.2176 45.4771 20.1544C45.4771 20.1544 45.5009 20.1636 45.5293 20.1579C45.6108 20.0235 45.664 19.8949 45.7171 19.7663C45.7171 19.7663 45.7211 19.7767 45.7456 19.7645C45.7899 19.6933 45.8096 19.6343 45.8293 19.5753C45.8293 19.5753 45.8351 19.5815 45.8676 19.577C45.943 19.4713 45.986 19.37 46.0291 19.2687C46.0291 19.2687 46.0361 19.2767 46.068 19.2719C46.1248 19.1901 46.1497 19.1131 46.1746 19.0361C46.1746 19.0361 46.1852 19.0319 46.2193 19.0309C46.2771 18.9716 46.3008 18.9134 46.3245 18.8553C46.3245 18.8553 46.3282 18.8649 46.3506 18.8543C46.3862 18.809 46.3995 18.7744 46.4128 18.7398C46.4128 18.7398 46.4178 18.7523 46.4407 18.7442C46.4692 18.701 46.4749 18.666 46.4805 18.6309C46.4805 18.6309 46.4909 18.6275 46.524 18.6268C46.5825 18.569 46.6079 18.512 46.6334 18.4551C46.6334 18.4551 46.637 18.4639 46.6586 18.453C46.6967 18.4096 46.7132 18.3771 46.7297 18.3446C46.7297 18.3446 46.7328 18.3569 46.7545 18.3471C46.791 18.3033 46.8058 18.2692 46.8206 18.2352C46.8206 18.2352 46.8253 18.2479 46.8483 18.2398C46.8834 18.1965 46.8956 18.1613 46.9077 18.1261C46.9077 18.1261 46.94 18.1632 46.9521 18.1447C46.9704 18.0922 46.9766 18.0582 46.9827 18.0242C46.9827 18.0242 46.9945 18.0125 47.0258 18.015C47.0606 17.9887 47.0639 17.9599 47.0673 17.9311C47.0673 17.9311 47.0787 17.9058 47.1205 17.9077C47.1891 17.8558 47.2158 17.802 47.2425 17.7483C47.2425 17.7483 47.2459 17.7569 47.2671 17.746C47.3067 17.7042 47.3251 17.6734 47.3435 17.6426C47.3435 17.6426 47.3455 17.6531 47.3666 17.6432C47.4064 17.6022 47.4251 17.5712 47.4438 17.5402C47.4438 17.5402 47.4458 17.5512 47.4669 17.5415C47.5071 17.5008 47.5261 17.4699 47.5451 17.4389C47.5451 17.4389 47.5471 17.4503 47.5685 17.4399C47.6096 17.398 47.6294 17.3664 47.6493 17.3348C47.7296 17.2461 47.81 17.1574 47.9526 17.0564C48.0425 16.9965 48.0701 16.9488 48.0976 16.9011C48.0976 16.9011 48.1107 16.8949 48.1431 16.8989C48.1891 16.8711 48.2027 16.8393 48.2162 16.8074C48.2162 16.8074 48.2402 16.8404 48.2603 16.8255C48.2993 16.7784 48.3181 16.7464 48.337 16.7143C48.337 16.7143 48.3523 16.7364 48.3783 16.7332C48.4556 16.664 48.5067 16.5979 48.5579 16.5318C48.5579 16.5318 48.5623 16.5424 48.5915 16.5392C48.6515 16.4886 48.6823 16.4413 48.7132 16.3939C48.7132 16.3939 48.7235 16.3963 48.7535 16.3986C48.8018 16.3695 48.82 16.3381 48.8383 16.3067C48.8383 16.3067 48.8654 16.3457 48.8882 16.3355C48.9777 16.2471 49.0443 16.1688 49.1109 16.0905C49.1109 16.0905 49.1238 16.0853 49.1619 16.0962C49.256 16.0463 49.312 15.9855 49.368 15.9248C49.368 15.9248 49.3719 15.9357 49.401 15.9325C49.47 15.8852 49.5099 15.8411 49.5498 15.7969C49.5498 15.7969 49.5566 15.8097 49.5789 15.8074C49.6249 15.7767 49.6487 15.7483 49.6725 15.72C49.6725 15.72 49.6738 15.7297 49.7083 15.731C49.8363 15.6488 49.9298 15.5655 50.0234 15.4822C50.0234 15.4822 50.0365 15.4772 50.0765 15.4899C50.2584 15.3951 50.4003 15.2877 50.5422 15.1803C50.5422 15.1803 50.5507 15.19 50.5792 15.1911C50.6339 15.1664 50.6602 15.1407 50.6865 15.115C50.6865 15.115 50.6869 15.1243 50.7158 15.1224C50.7923 15.0833 50.8398 15.046 50.8873 15.0087C50.8873 15.0087 50.8873 15.0188 50.921 15.0207C51.1343 14.9167 51.3139 14.8109 51.4935 14.7051C51.4935 14.7051 51.4942 14.7149 51.5309 14.7172C51.6977 14.6957 51.8336 14.6885 51.9568 14.6453C52.6996 14.3843 53.4356 14.1037 54.1817 13.8527C54.6974 13.6792 55.2256 13.5429 55.7482 13.39C55.7482 13.39 55.7496 13.4001 55.791 13.4029C56.8977 13.3396 57.962 13.2499 59.0282 13.214C60.0338 13.1802 61.0413 13.203 62.048 13.2009C62.0901 13.2018 62.1321 13.2027 62.234 13.2381C62.5158 13.2824 62.7377 13.2921 62.9595 13.3019C62.9595 13.3019 63.0027 13.3049 63.0298 13.347C63.2606 13.3938 63.4643 13.3985 63.6679 13.4032C63.6679 13.4032 63.7119 13.406 63.7603 13.4399C63.9645 13.484 64.1203 13.4941 64.2762 13.5041C64.2762 13.5041 64.3181 13.504 64.3633 13.5361C64.533 13.5807 64.6575 13.5931 64.7819 13.6055C64.7819 13.6055 64.8256 13.6074 64.8712 13.6413C65.4397 13.8229 65.9604 13.9799 66.4872 14.1125C66.646 14.1525 66.8219 14.1248 66.99 14.1281C72.1214 15.8339 75.9439 18.9043 77.5575 24.2728C77.639 24.5438 77.6772 24.8279 77.7603 25.1358C77.8351 25.4716 77.8851 25.7775 77.944 26.1519C77.9727 26.2708 77.9925 26.3212 78.0124 26.3715Z" fill="#532D21"/>
<path d="M62.0267 13.1678C61.0404 13.2059 60.0329 13.1831 59.0273 13.2169C57.9611 13.2528 56.8968 13.3425 55.7852 13.4048C56.5865 13.2758 57.4318 13.0706 58.2826 13.0443C59.5217 13.0059 60.7648 13.0964 62.0267 13.1678Z" fill="#4A281E"/>
<path d="M55.7013 13.3906C55.2225 13.5436 54.6943 13.6799 54.1786 13.8534C53.4326 14.1043 52.6965 14.385 51.9537 14.6459C51.8305 14.6892 51.6947 14.6964 51.5234 14.7158C52.804 14.0499 54.1909 13.5942 55.7013 13.3906Z" fill="#4A281E"/>
<path d="M45.2425 20.5898C45.2526 20.7048 45.2811 20.8644 45.226 20.9863C44.7471 22.0467 44.4402 23.146 44.4099 24.316C44.4081 24.3866 44.3421 24.4555 44.2676 24.5354C44.2621 23.1607 44.6275 21.8599 45.2425 20.5898Z" fill="#4A281E"/>
<path d="M66.952 14.1139C66.8186 14.1251 66.6428 14.1527 66.4839 14.1128C65.9571 13.9801 65.4365 13.8232 64.8887 13.6484C65.5484 13.7807 66.2329 13.9401 66.952 14.1139Z" fill="#4A281E"/>
<path d="M63.6511 13.3746C63.4628 13.4012 63.2592 13.3965 63.0488 13.3567C63.24 13.3288 63.4379 13.336 63.6511 13.3746Z" fill="#4A281E"/>
<path d="M51.4559 14.7109C51.3116 14.8116 51.132 14.9174 50.9141 15.0193C51.0574 14.9157 51.239 14.8159 51.4559 14.7109Z" fill="#4A281E"/>
<path d="M50.5112 15.1953C50.399 15.2901 50.2571 15.3975 50.0801 15.4871C50.1904 15.3823 50.3359 15.2951 50.5112 15.1953Z" fill="#4A281E"/>
<path d="M62.9405 13.2709C62.7346 13.2931 62.5127 13.2834 62.2617 13.2459C62.4632 13.2251 62.6939 13.232 62.9405 13.2709Z" fill="#4A281E"/>
<path d="M64.2602 13.475C64.1184 13.4943 63.9626 13.4842 63.7793 13.4469C63.9167 13.4284 64.0814 13.437 64.2602 13.475Z" fill="#4A281E"/>
<path d="M49.9929 15.5C49.9271 15.5692 49.8336 15.6525 49.7012 15.7324C49.7632 15.6573 49.8641 15.5857 49.9929 15.5Z" fill="#4A281E"/>
<path d="M64.7658 13.5793C64.6544 13.5951 64.5299 13.5827 64.3809 13.5418C64.4884 13.5259 64.6205 13.5386 64.7658 13.5793Z" fill="#4A281E"/>
<path d="M45.6857 19.7852C45.6605 19.8963 45.6073 20.0249 45.5156 20.1515C45.5373 20.0339 45.5976 19.9182 45.6857 19.7852Z" fill="#4A281E"/>
<path d="M46.0003 19.2891C45.9839 19.373 45.9409 19.4743 45.8613 19.579C45.8744 19.4904 45.924 19.3984 46.0003 19.2891Z" fill="#4A281E"/>
<path d="M49.0841 16.1094C49.0435 16.1737 48.9769 16.252 48.873 16.3215C48.9099 16.2496 48.984 16.1865 49.0841 16.1094Z" fill="#4A281E"/>
<path d="M48.5259 16.543C48.5036 16.6 48.4524 16.6661 48.3652 16.7263C48.3852 16.6643 48.4411 16.6082 48.5259 16.543Z" fill="#4A281E"/>
<path d="M46.1502 19.0586C46.1453 19.1152 46.1204 19.1922 46.0586 19.2724C46.0578 19.21 46.094 19.1445 46.1502 19.0586Z" fill="#4A281E"/>
<path d="M49.3362 15.9336C49.308 15.9882 49.252 16.0489 49.1621 16.0932C49.1882 16.0311 49.2483 15.9855 49.3362 15.9336Z" fill="#4A281E"/>
<path d="M49.5176 15.8047C49.5061 15.8398 49.4663 15.884 49.3926 15.9279C49.4022 15.8897 49.4457 15.8517 49.5176 15.8047Z" fill="#4A281E"/>
<path d="M48.6863 16.4062C48.6798 16.4403 48.6489 16.4877 48.584 16.5352C48.5873 16.4968 48.6246 16.4581 48.6863 16.4062Z" fill="#4A281E"/>
<path d="M48.072 16.918C48.0672 16.9512 48.0397 16.999 47.9785 17.0491C47.9797 17.0118 48.0145 16.9721 48.072 16.918Z" fill="#4A281E"/>
<path d="M47.2182 17.7578C47.2154 17.8021 47.1887 17.8559 47.1309 17.899C47.1312 17.8479 47.1627 17.8076 47.2182 17.7578Z" fill="#4A281E"/>
<path d="M46.6044 18.4688C46.6042 18.5139 46.5787 18.5709 46.5197 18.6232C46.5171 18.5726 46.5481 18.5266 46.6044 18.4688Z" fill="#4A281E"/>
<path d="M46.2951 18.8672C46.2967 18.9135 46.273 18.9717 46.2153 19.0252C46.2108 18.9734 46.2403 18.9262 46.2951 18.8672Z" fill="#4A281E"/>
<path d="M45.8024 19.5938C45.8069 19.6347 45.7872 19.6936 45.7374 19.7644C45.7309 19.7214 45.7545 19.6666 45.8024 19.5938Z" fill="#4A281E"/>
<path d="M50.8539 15.0156C50.8369 15.0483 50.7894 15.0856 50.709 15.1224C50.7251 15.088 50.7742 15.0541 50.8539 15.0156Z" fill="#4A281E"/>
<path d="M45.4549 20.1758C45.464 20.2202 45.4536 20.2834 45.4069 20.3451C45.3923 20.2938 45.4139 20.2442 45.4549 20.1758Z" fill="#4A281E"/>
<path d="M45.3468 20.3828C45.357 20.4257 45.35 20.4884 45.3067 20.5498C45.2901 20.4999 45.3099 20.4513 45.3468 20.3828Z" fill="#4A281E"/>
<path d="M50.6587 15.1172C50.6583 15.1398 50.6323 15.1653 50.5781 15.1834C50.5777 15.1573 50.6054 15.1386 50.6587 15.1172Z" fill="#4A281E"/>
<path d="M46.3846 18.7539C46.396 18.7764 46.3828 18.811 46.3421 18.8552C46.3297 18.8319 46.3449 18.799 46.3846 18.7539Z" fill="#4A281E"/>
<path d="M46.4601 18.6445C46.4734 18.665 46.4677 18.7001 46.433 18.7405C46.4078 18.7132 46.4202 18.6843 46.4601 18.6445Z" fill="#4A281E"/>
<path d="M46.7032 18.3594C46.7121 18.3808 46.6956 18.4133 46.6528 18.456C46.6436 18.4342 46.6607 18.4023 46.7032 18.3594Z" fill="#4A281E"/>
<path d="M46.7909 18.25C46.8012 18.2728 46.7863 18.3068 46.7436 18.3494C46.7324 18.3257 46.7491 18.2935 46.7909 18.25Z" fill="#4A281E"/>
<path d="M46.8828 18.1406C46.8942 18.1636 46.882 18.1988 46.8405 18.2398C46.8272 18.2146 46.8433 18.1837 46.8828 18.1406Z" fill="#4A281E"/>
<path d="M46.9601 18.0391C46.9723 18.0603 46.9662 18.0943 46.9305 18.1294C46.9055 18.0996 46.9191 18.0734 46.9601 18.0391Z" fill="#4A281E"/>
<path d="M47.0496 17.9414C47.06 17.9621 47.0567 17.9906 47.0278 18.0105C47.0075 17.9806 47.0188 17.9631 47.0496 17.9414Z" fill="#4A281E"/>
<path d="M47.3149 17.6562C47.3219 17.6767 47.3035 17.7075 47.2593 17.7483C47.2522 17.7277 47.2708 17.6972 47.3149 17.6562Z" fill="#4A281E"/>
<path d="M47.4138 17.5508C47.4208 17.5717 47.402 17.6027 47.3569 17.6429C47.3497 17.6217 47.3689 17.5913 47.4138 17.5508Z" fill="#4A281E"/>
<path d="M47.5183 17.4531C47.525 17.4741 47.506 17.505 47.4604 17.5447C47.4534 17.5234 47.473 17.4933 47.5183 17.4531Z" fill="#4A281E"/>
<path d="M47.6202 17.3438C47.6265 17.3646 47.6067 17.3961 47.5598 17.4373C47.5532 17.416 47.5736 17.3853 47.6202 17.3438Z" fill="#4A281E"/>
<path d="M48.8125 16.3164C48.8172 16.341 48.7991 16.3721 48.7524 16.3958C48.738 16.3587 48.76 16.3369 48.8125 16.3164Z" fill="#4A281E"/>
<path d="M49.6436 15.7266C49.6466 15.7491 49.6231 15.7772 49.5707 15.8052C49.5669 15.7809 49.5919 15.7565 49.6436 15.7266Z" fill="#4A281E"/>
<path d="M48.194 16.8203C48.2003 16.8447 48.1868 16.8762 48.1459 16.8983C48.1306 16.8625 48.1492 16.8421 48.194 16.8203Z" fill="#4A281E"/>
<path d="M48.3115 16.7266C48.3172 16.751 48.2984 16.7831 48.2495 16.8123C48.2419 16.7844 48.2644 16.7593 48.3115 16.7266Z" fill="#4A281E"/>
<path d="M74.4608 51.306C75.343 51.6793 76.2494 52.0042 77.103 52.4342C80.8716 54.333 83.104 57.4372 83.8707 61.5323C84.3 63.8253 84.584 66.1653 84.69 68.4952C84.9757 74.7772 85.1316 81.0652 85.3372 87.3508C85.3658 88.226 85.2902 88.2981 84.4047 88.298C82.1781 88.2979 79.9516 88.2977 77.707 88.2704C78.2678 88.0244 78.8856 87.8744 79.4181 87.5736C81.0179 86.6699 81.6969 85.1124 82.1702 83.4456C82.8908 80.9076 83.0765 78.2866 83.1536 75.6759C83.2396 72.7651 83.1704 69.8463 83.0678 66.9346C83.0112 65.331 82.7936 63.7279 82.5623 62.1372C82.371 60.8215 82.0147 59.5378 81.2603 58.4062C80.2014 56.8178 78.4778 56.4784 76.8665 57.5073C75.4296 58.4249 74.4063 59.748 73.3976 61.0646C71.2093 63.9207 69.4896 67.0683 67.8954 70.2826C66.5725 72.95 65.2813 75.6334 63.9997 78.321C63.5445 79.2757 63.1592 80.2637 62.7059 81.2507C62.46 81.3219 62.252 81.3867 62.0401 81.4344C61.3474 81.5904 60.717 81.8339 60.362 82.5481C60.2513 82.551 60.1823 82.5448 60.1167 82.557C58.6313 82.8328 57.1429 82.7747 55.6432 82.6772C54.5428 82.6056 53.4249 82.6094 52.3283 82.7171C50.7692 82.8701 49.4179 83.6147 48.1252 84.4593C47.5354 84.8447 46.942 85.2245 46.3503 85.6069C46.2103 83.7429 46.0704 81.8789 45.9308 79.928C45.7022 78.5895 45.4836 77.336 45.2418 76.087C44.9426 74.5416 44.5188 73.0097 44.8203 71.3726C45.0965 70.5881 45.3655 69.8416 45.664 69.0772C46.6355 67.5359 47.9176 66.3129 49.294 65.2128C51.1677 63.7153 53.1261 62.3238 55.0451 60.8829C55.2888 60.7 55.5143 60.4929 55.7677 60.2806C53.9083 59.5365 53.0887 58.2152 53.1014 56.2969C53.1093 55.1058 53.2755 53.9615 53.7052 52.8536C53.7052 52.8536 53.7168 52.8629 53.7366 52.8656C53.7805 52.8453 53.8046 52.8223 53.8286 52.7993C54.1763 52.6898 54.5239 52.5804 54.898 52.501C54.4422 52.9677 54.1388 53.5055 54.1045 54.1567C54.0629 54.945 53.9996 55.7411 54.0662 56.5236C54.135 57.3334 54.4566 58.0795 54.9784 58.7317C55.6613 59.5855 56.5788 59.7685 57.3096 59.1659C60.177 56.802 63.3016 54.82 66.5449 53.0257C68.3439 52.0304 70.216 51.1839 72.3143 50.8516C73.0571 51.0058 73.7589 51.1559 74.4608 51.306ZM65.6725 61.8495C65.7678 61.7542 65.8609 61.6565 65.9588 61.5638C66.5328 61.0211 67.1116 60.4834 67.6807 59.9356C67.8866 59.7375 67.9722 59.4584 67.7168 59.2874C67.5778 59.1944 67.259 59.2283 67.1038 59.3304C66.7708 59.5495 66.4649 59.8257 66.1945 60.1211C64.528 61.9411 62.8436 63.7462 61.2275 65.6104C60.1861 66.8118 59.2281 68.0883 58.2743 69.3622C56.9879 71.0802 55.7364 72.8243 54.4799 74.5644C53.724 75.6112 52.9847 76.6701 52.244 77.7277C52.0955 77.9398 52.0273 78.2204 52.3221 78.3149C52.5057 78.3737 52.8081 78.2859 52.9629 78.1535C53.1569 77.9878 53.2357 77.6952 53.396 77.4811C56.1483 73.804 58.8718 70.1045 61.6773 66.4684C62.9044 64.878 64.3017 63.4189 65.6725 61.8495ZM62.8393 72.8815C63.2857 72.0718 63.7301 71.2611 64.1789 70.4527C65.0029 68.9684 65.8292 67.4854 66.655 66.002C66.9819 65.4146 67.3321 64.8384 67.6205 64.2327C67.6839 64.0995 67.5299 63.8626 67.4761 63.6735C67.3201 63.7345 67.1368 63.7631 67.0154 63.8652C66.8791 63.9798 66.786 64.1538 66.6957 64.3141C65.4586 66.5108 64.2491 68.7234 62.9851 70.9044C61.2252 73.941 59.4291 76.9566 57.6361 79.9738C57.475 80.2448 57.3812 80.4739 57.6861 80.6592C57.9612 80.8266 58.2024 80.7249 58.3692 80.452C58.8336 79.6926 59.3112 78.9408 59.7606 78.1726C60.7788 76.4325 61.7832 74.6843 62.8393 72.8815Z" fill="#F5A418"/>
<path d="M72.2729 50.8444C70.2155 51.1809 68.3434 52.0274 66.5444 53.0227C63.3011 54.817 60.1765 56.799 57.3091 59.163C56.5783 59.7655 55.6608 59.5825 54.9779 58.7287C54.4561 58.0765 54.1345 57.3304 54.0656 56.5206C53.9991 55.7381 54.0624 54.942 54.104 54.1537C54.1383 53.5026 54.4417 52.9647 54.9379 52.4948C55.4985 52.2373 56.0451 52.0129 56.642 51.8118C57 52.347 57.395 52.7877 58.0308 52.7691C58.5421 52.7541 59.0652 52.651 59.5556 52.4987C61.5286 51.8857 63.0527 50.6101 64.4135 49.1115C64.7739 48.7146 65.1225 48.3057 65.452 47.8832C65.5247 47.79 65.4932 47.6156 65.5097 47.4785C65.3724 47.4981 65.2176 47.4843 65.1019 47.5449C64.9106 47.645 64.7525 47.8062 64.5667 47.919C62.1017 49.4149 59.4266 50.1942 56.5438 50.2607C52.9704 49.9853 49.8305 48.7919 47.5813 45.8581C46.0312 43.8361 45.3412 41.4745 45.116 38.9609C44.934 36.9304 45.1057 34.9214 45.4817 32.848C45.5645 32.4625 45.625 32.1511 45.6854 31.8397C45.9608 30.7312 46.1931 29.6098 46.5215 28.5173C47.0517 26.7534 48.1861 25.4265 49.6752 24.374C50.816 23.5676 51.9475 22.7474 53.0663 21.9108C54.0648 21.1642 54.8385 20.2126 55.4696 19.1413C55.5526 19.0004 55.6568 18.872 55.7454 18.7461C55.9167 19.362 56.0229 19.9894 56.2636 20.5602C56.854 21.9605 58.0246 22.781 59.335 23.4247C60.3931 23.9445 61.4623 24.442 62.5296 24.943C64.0421 25.6529 65.1534 26.7296 65.971 28.2189C66.9574 30.0157 68.1098 31.7231 69.2294 33.4437C69.5272 33.9015 69.968 34.2663 70.3866 34.7211C70.6219 34.4073 70.8144 34.1427 71.015 33.8844C72.2381 32.3094 74.5137 32.0374 76.0524 33.2966C76.6046 33.7485 76.9688 34.3249 77.0254 35.1081C77.0268 35.3667 77.022 35.5795 77.0113 35.876C76.8832 37.1622 76.5573 38.2954 75.9401 39.3475C74.6824 41.4918 72.765 42.3996 70.4649 41.8778C69.6979 43.5332 68.6378 44.9949 67.3035 46.258C67.2222 46.335 67.1799 46.501 67.1901 46.6195C67.3249 48.1796 67.601 49.3569 69.5778 50.0169C70.4689 50.3145 71.3741 50.5699 72.2729 50.8444ZM54.5003 45.3065C54.9009 45.3363 55.3039 45.4102 55.7017 45.3884C57.4914 45.2902 59.0907 43.5376 58.995 41.8088C58.9661 41.2874 58.6849 41.0971 58.2274 41.3358C56.4734 42.251 54.6353 42.2118 52.7683 41.8388C51.817 41.6488 51.6133 41.8551 51.843 42.8291C51.8661 42.9271 51.8945 43.0248 51.9306 43.1187C52.3768 44.2804 53.2688 44.9332 54.5003 45.3065ZM51.7033 38.4934C51.654 39.1511 51.7468 39.7556 52.4143 40.0811C53.3157 40.5206 54.2506 40.3904 55.1668 40.1478C55.3117 40.1095 55.3849 39.8006 55.4913 39.6168C55.3181 39.5201 55.145 39.3432 54.9717 39.343C54.5566 39.3424 54.142 39.4299 53.7263 39.473C52.8107 39.568 52.4289 39.104 52.6972 38.2283C52.7218 38.1479 52.7464 38.0674 52.7741 37.9881C53.2565 36.6084 53.7407 35.2292 54.2203 33.8485C54.2693 33.7074 54.3572 33.5307 54.3114 33.4172C54.2434 33.2488 54.0566 32.994 53.9481 33.0071C53.7747 33.0279 53.5378 33.2069 53.4772 33.3735C52.8694 35.0439 52.2922 36.7255 51.7033 38.4934ZM58.7056 29.7707C58.9058 29.7642 59.107 29.7411 59.3058 29.7543C60.0978 29.8072 60.7425 30.1754 61.337 30.6798C61.475 30.7968 61.7602 30.8708 61.9104 30.8067C62.0643 30.7411 62.2233 30.4806 62.2207 30.3078C62.2175 30.0982 62.0886 29.8551 61.9429 29.6889C61.0295 28.6464 59.8605 28.2085 58.5003 28.4207C58.0963 28.4837 57.6842 28.7374 57.3676 29.0101C57.2209 29.1365 57.1979 29.5671 57.3 29.7673C57.3725 29.9093 57.748 29.9368 57.9893 29.9402C58.1994 29.9432 58.4109 29.8408 58.7056 29.7707ZM59.8956 34.7309C59.7891 34.3641 59.7485 33.9589 59.5623 33.6383C59.1784 32.9774 58.2948 32.9446 57.8062 33.5235C57.1897 34.254 57.2727 35.603 57.974 36.2506C58.461 36.7003 59.1016 36.6857 59.4473 36.1244C59.6827 35.7421 59.7523 35.2577 59.8956 34.7309ZM50.6792 34.9748C50.8785 34.2885 50.8126 33.6373 50.3874 33.0508C49.8355 32.2895 48.7979 32.3695 48.5131 33.2558C48.3489 33.7668 48.3909 34.3828 48.4839 34.9269C48.5805 35.4916 48.9942 35.8927 49.6071 35.9243C50.1917 35.9545 50.4508 35.5187 50.6792 34.9748ZM56.0619 26.5267C55.9833 26.2779 55.9621 25.9867 55.8153 25.7885C55.3913 25.2158 54.6846 25.1005 54.0604 25.4462C53.5522 25.7278 53.2787 26.4415 53.457 27.0212C53.6366 27.6052 54.308 28.048 54.8976 27.9716C55.5838 27.8826 56.0194 27.3746 56.0619 26.5267ZM47.9163 29.9098C48.8106 29.1886 49.7897 29.0397 50.8486 29.4903C51.1437 29.6159 51.4424 29.7487 51.6403 29.3862C51.8181 29.0608 51.6271 28.8045 51.3802 28.5975C51.278 28.5118 51.1596 28.4412 51.0401 28.3807C50.0251 27.8666 48.5063 28.0369 47.6569 28.7808C47.4731 28.9419 47.3047 29.1596 47.2234 29.3851C47.1692 29.5357 47.2249 29.8065 47.3367 29.9121C47.436 30.006 47.6803 29.9464 47.9163 29.9098ZM72.8526 39.5746C72.6723 39.4906 72.4979 39.3886 72.3104 39.3261C71.7718 39.1465 71.2046 39.3257 70.9321 39.7447C70.6094 40.2409 70.6491 40.9818 71.0199 41.3848C71.4412 41.8427 72.2446 41.917 72.7129 41.5415C73.3265 41.0493 73.3995 40.3308 72.8526 39.5746ZM71.8861 35.724C71.7622 36.1716 71.8791 36.5154 72.2277 36.8484C72.4151 37.0274 72.5324 37.3633 72.5349 37.6298C72.5374 37.9111 72.3367 38.1885 72.2809 38.4783C72.2463 38.6576 72.3165 38.857 72.3396 39.0474C72.5374 38.987 72.8126 38.9893 72.9205 38.8561C73.5891 38.0302 73.6204 37.1566 73.0702 36.2445C73.0223 36.1651 72.9975 36.0716 72.9145 35.8687C73.3073 35.8507 73.6347 35.8721 73.9449 35.809C74.1618 35.7648 74.3552 35.605 74.5591 35.4969C74.4072 35.3235 74.2677 35.0151 74.1013 34.9998C73.3038 34.9265 72.5153 34.9844 71.8861 35.724Z" fill="#C86B40"/>
<path d="M62.7406 81.2339C63.1578 80.2611 63.5431 79.2731 63.9984 78.3184C65.2799 75.6308 66.5711 72.9474 67.8941 70.28C69.4882 67.0657 71.2079 63.9182 73.3962 61.0621C74.4049 59.7455 75.4282 58.4224 76.8651 57.5048C78.4764 56.4758 80.2001 56.8152 81.259 58.4036C82.0133 59.5353 82.3696 60.8189 82.561 62.1346C82.7923 63.7254 83.0099 65.3284 83.0664 66.9321C83.1691 69.8438 83.2383 72.7625 83.1523 75.6733C83.0752 78.2841 82.8894 80.9051 82.1688 83.4431C81.6956 85.1098 81.0165 86.6673 79.4168 87.571C78.8842 87.8719 78.2665 88.0218 77.6598 88.2606C77.5828 88.2916 77.5336 88.3028 77.4187 88.2831C76.8 88.3661 76.2471 88.4799 75.6943 88.5936C75.6766 88.5999 75.659 88.6061 75.5831 88.5823C75.3414 88.5418 75.1569 88.5135 74.9746 88.5239C73.2885 88.6204 71.6025 88.7189 69.9174 88.8319C69.7479 88.8433 69.585 88.9545 69.4191 89.0194C69.3728 89.0243 69.3265 89.0292 69.2157 88.9981C68.216 88.9162 67.281 88.8495 66.3452 88.8323C65.7846 88.8219 65.2225 88.8889 64.6611 88.9211C64.6149 88.9245 64.5686 88.9279 64.479 88.884C64.3666 88.7994 64.2991 88.7329 64.2282 88.729C63.46 88.6862 62.6912 88.6532 61.9394 88.5869C62.7147 87.5137 62.7305 86.327 62.4477 85.1671C62.2271 84.2627 61.9982 83.3043 61.248 82.633C61.6677 82.4631 62.0499 82.2971 62.4417 82.1583C64.6876 81.3624 66.9426 80.5917 69.1803 79.7735C70.301 79.3638 71.383 78.8276 72.6282 79.0062C73.4221 79.12 74.2153 79.2401 75.0067 79.3706C75.3043 79.4197 75.6092 79.4904 75.6741 79.0805C75.7335 78.7061 75.4346 78.635 75.1608 78.605C74.147 78.4938 73.1325 78.3841 72.116 78.3037C71.8311 78.2811 71.7235 78.1916 71.7428 77.9123C71.7833 77.3271 71.8121 76.7411 71.8459 76.1555C71.9124 75.001 71.9791 73.8465 72.0456 72.692C72.1477 70.9182 72.2517 69.1445 72.3496 67.3705C72.3644 67.1016 72.388 66.8237 72.3358 66.5645C72.3059 66.4162 72.1313 66.2971 72.0219 66.1648C71.898 66.2808 71.7159 66.3754 71.6634 66.5177C71.5785 66.7479 71.561 67.0084 71.5459 67.258C71.4393 69.0147 71.3342 70.7715 71.2415 72.5289C71.1638 74.0031 71.1069 75.4783 71.0333 76.9528C71.015 77.32 70.9893 77.6899 70.9222 78.0502C70.8978 78.1811 70.7662 78.348 70.6433 78.3963C68.6745 79.1703 66.7049 79.9432 64.7221 80.6802C64.0815 80.9183 63.4022 81.0523 62.7406 81.2339Z" fill="#E76835"/>
<path d="M17.2721 71.3781C17.2369 70.8596 17.2161 70.3394 17.1556 69.8239C17.1421 69.709 17.0093 69.5733 16.8962 69.5118C16.6175 69.3603 16.3184 69.2464 15.9786 69.072C15.3705 68.6399 14.8112 68.2531 14.2517 67.8275C14.0539 67.2635 13.8738 66.7201 13.3216 66.4481C12.8825 66.2318 12.6701 65.819 12.6558 65.4073C12.6311 64.6929 12.7444 63.9737 12.7979 63.2821C13.1095 63.0576 13.7585 63.5242 13.7729 62.7242C13.8207 61.9032 13.8349 61.1178 13.8731 60.3335C13.8904 59.9781 13.8405 59.5484 14.0173 59.2833C15.001 57.8089 15.5068 56.1945 15.543 54.4388C15.5678 53.2346 15.2971 52.0805 14.6844 50.9999C15.3068 51.0528 15.8742 51.1412 16.4416 51.1418C18.3811 51.1439 20.218 50.7166 21.8818 49.6899C22.4222 49.3564 22.8916 49.1791 23.545 49.4937C24.2816 49.8484 25.1115 49.8917 25.912 49.615C26.8492 49.2911 27.1909 48.5704 27.0423 47.2812C27.0917 47.3036 27.139 47.3194 27.1807 47.3446C28.6751 48.248 29.7688 49.5159 30.5584 51.0601C31.383 52.8083 32.2952 54.5215 33.0121 56.3128C34.145 59.1441 34.2542 62.0286 32.8748 64.8272C31.699 67.2129 29.6652 68.6773 27.2778 69.6878C26.5535 69.9944 25.7829 70.1917 24.9653 70.4682C23.1453 70.7236 21.4021 70.6157 19.5444 70.2906C19.6613 70.5035 19.6933 70.6448 19.7813 70.7083C20.3077 71.0878 20.8034 71.5577 21.3911 71.7946C22.6453 72.3 23.939 72.2998 25.2214 71.7457C25.2145 72.2569 25.3058 72.7902 25.1243 73.2039C24.6062 74.3848 23.5664 74.8622 22.3322 74.9541C21.103 75.0457 20.0659 74.5104 19.0981 73.8526C18.2122 73.2505 17.4301 72.5347 17.2721 71.3781ZM23.2647 64.1103C23.7525 65.0608 24.503 65.7378 25.5015 66.0857C26.2905 66.3606 27.0964 66.3656 27.8953 65.8451C29.2002 65.2946 30.2016 63.3966 29.9007 62.0442C29.7637 61.4286 29.5908 61.3717 28.9789 61.5144C27.9852 61.7461 26.9821 61.995 25.9703 62.0737C25.1948 62.134 24.4 61.9407 23.6133 61.8647C23.1097 61.8161 22.8282 62.0069 22.8746 62.5026C22.9232 63.0231 23.1185 63.5299 23.2647 64.1103ZM22.7725 57.9818C22.799 57.2261 22.546 56.5836 21.9456 56.1169C21.2406 55.5689 20.3289 55.9273 20.2343 56.7875C20.1473 57.5788 20.4316 58.2482 21.0265 58.7698C21.3636 59.0653 21.7777 59.1803 22.2045 59.0098C22.6079 58.8486 22.7521 58.4872 22.7725 57.9818ZM27.8177 54.5883C27.6219 55.3944 27.8573 56.0881 28.4221 56.659C28.9681 57.211 29.7479 57.0805 29.9775 56.4016C30.2439 55.6141 30.1165 54.8684 29.5369 54.2517C28.9383 53.6147 28.2497 53.7317 27.8177 54.5883ZM18.8257 52.5436C18.5172 52.8961 18.1665 53.2207 17.9105 53.6079C17.5734 54.1177 17.6169 54.5369 17.9624 54.7262C18.4482 54.9922 18.6267 54.5503 18.8367 54.2819C19.296 53.6949 19.836 53.3041 20.6145 53.2789C21.0673 53.2643 21.2876 52.87 21.0303 52.5031C20.8871 52.2989 20.569 52.0655 20.3587 52.0904C19.8585 52.1497 19.3756 52.3547 18.8257 52.5436ZM27.5083 57.2573C27.2766 57.2808 27.0185 57.2487 26.8207 57.3432C26.6201 57.439 26.4791 57.6597 26.312 57.8257C26.5106 57.9009 26.708 58.0366 26.9081 58.0409C27.7937 58.0596 28.3079 58.5529 28.0756 59.2903C27.9625 59.6493 27.642 59.9405 27.4313 60.2725C27.3193 60.4489 27.2413 60.6469 27.1479 60.8352C27.3606 60.8571 27.6012 60.9543 27.7811 60.8876C28.4918 60.6245 28.9544 59.7926 28.9289 58.9226C28.9066 58.1604 28.4156 57.5607 27.5083 57.2573ZM26.8908 50.3645C26.6445 50.5025 26.3442 50.594 26.1715 50.7952C26.0618 50.9231 26.078 51.243 26.1598 51.4206C26.2105 51.5309 26.5306 51.6295 26.6592 51.573C27.4088 51.2433 28.1437 51.1932 28.9123 51.4999C29.0229 51.544 29.2593 51.4617 29.3316 51.3615C29.4099 51.253 29.4324 51.0019 29.3585 50.907C29.2 50.7034 28.9796 50.4457 28.7563 50.4149C28.1699 50.3343 27.5684 50.3633 26.8908 50.3645Z" fill="#CC7243"/>
<path d="M17.2326 71.3861C17.4283 72.5355 18.2104 73.2513 19.0963 73.8534C20.0641 74.5112 21.1012 75.0464 22.3304 74.9549C23.5646 74.8629 24.6044 74.3856 25.1225 73.2047C25.304 72.791 25.2127 72.2577 25.2189 71.7036C25.181 71.4552 25.1702 71.2823 25.1595 71.1094C26.9111 71.6421 28.517 72.4902 30.0393 73.4804C31.3348 74.3231 32.563 75.2691 33.8519 76.2196C32.9715 78.3617 32.0601 80.4535 31.121 82.5196C30.8117 81.1049 30.5417 79.7134 30.2382 78.3293C30.182 78.0731 29.9116 77.6263 29.873 77.6401C29.4517 77.7903 29.6332 78.165 29.6772 78.4485C29.8847 79.7824 30.1122 81.1133 30.3552 82.4412C30.4129 82.7561 30.5581 83.0551 30.6594 83.3955C30.617 83.5076 30.5783 83.5854 30.5115 83.6941C30.4376 84.9663 30.3872 86.2075 30.3482 87.4491C30.33 88.0288 30.2544 88.1164 29.6632 88.1175C28.3713 88.1198 27.0793 88.1182 25.7874 88.1182C21.6065 88.1182 17.4256 88.1195 13.2447 88.1135C13.0712 88.1132 12.8978 88.0444 12.7267 87.9684C12.9592 87.2028 13.1893 86.4763 13.421 85.7445C12.2438 85.4879 11.1304 85.2441 10.0166 85.0027C8.8691 84.754 7.72112 84.5075 6.57335 84.26C6.11076 84.0813 6.02931 83.8099 6.19224 83.319C7.01454 80.8414 8.03795 78.4771 9.78697 76.4917C11.8295 74.1732 14.305 72.4817 17.2326 71.3861ZM15.6876 81.213C15.7143 81.0826 15.7843 80.9423 15.7576 80.824C15.7187 80.6527 15.6099 80.4972 15.531 80.3349C15.4044 80.4607 15.2693 80.5792 15.1554 80.7154C15.1053 80.7752 15.0892 80.8693 15.0734 80.9509C14.7823 82.4574 14.4979 83.9653 14.1999 85.4704C14.1533 85.7059 14.1029 85.9551 14.4092 85.9624C14.5543 85.9658 14.7913 85.7714 14.8364 85.6214C14.9702 85.1765 15.0306 84.7094 15.1174 84.2506C15.3032 83.2672 15.4876 82.2835 15.6876 81.213Z" fill="#FBBA25"/>
<path d="M30.5736 51.0288C29.768 49.5169 28.6743 48.249 27.1799 47.3456C27.1382 47.3204 27.0909 47.3046 27.0415 47.2822C27.1901 48.5714 26.8484 49.2921 25.9113 49.616C25.1108 49.8926 24.2808 49.8494 23.5442 49.4947C22.8908 49.18 22.4214 49.3574 21.881 49.6908C20.2173 50.7176 18.3803 51.1449 16.4409 51.1428C15.8734 51.1421 15.3061 51.0538 14.6836 51.0009C15.2963 52.0814 15.5671 53.2356 15.5422 54.4398C15.506 56.1955 15.0002 57.8099 14.0165 59.2843C13.8397 59.5494 13.8896 59.979 13.8723 60.3345C13.8341 61.1188 13.8199 61.9042 13.7382 62.7181C13.6365 62.7339 13.5924 62.7207 13.5377 62.6828C13.4999 62.6352 13.4726 62.6123 13.4381 62.5696C13.4155 62.5242 13.3935 62.5075 13.3502 62.4751C13.3029 62.4344 13.2702 62.4182 13.2113 62.3876C13.114 62.2795 13.0429 62.1859 12.955 62.0685C12.9048 62.0269 12.8714 62.0091 12.8372 61.9953C12.8365 61.9992 12.8433 61.9949 12.8354 61.9691C12.7972 61.9253 12.767 61.9073 12.7355 61.893C12.7342 61.8967 12.7418 61.8948 12.7321 61.8693C12.6933 61.823 12.6642 61.8021 12.621 61.7558C12.5448 61.6862 12.4827 61.6418 12.404 61.5738C12.3351 61.5275 12.2828 61.5051 12.2292 61.4863C12.2277 61.49 12.2356 61.4892 12.2259 61.4645C12.1863 61.4222 12.1563 61.4046 12.1112 61.3647C12.0471 61.3225 11.9981 61.3026 11.9273 61.2589C11.8451 61.2162 11.7848 61.1974 11.7232 61.1833C11.7219 61.188 11.7293 61.1816 11.7131 61.155C11.6393 61.1051 11.5817 61.0818 11.5043 61.0384C11.4306 61.0036 11.3765 60.9891 11.2924 60.9502C10.502 60.7192 9.749 60.6176 8.99992 61.0765C8.11533 61.3942 7.65897 62.1123 7.15898 62.808C7.02137 62.7817 6.92076 62.7709 6.82015 62.7602C6.83574 62.7492 6.85133 62.7383 6.84306 62.7092C6.76148 62.6661 6.70375 62.6412 6.64602 62.6163C6.64602 62.6163 6.65424 62.6126 6.64243 62.5914C6.59812 62.5542 6.5656 62.5382 6.53309 62.5223C6.53309 62.5223 6.54548 62.5189 6.53537 62.4974C6.49065 62.4624 6.45605 62.4489 6.42144 62.4353C6.42144 62.4353 6.4346 62.4292 6.42642 62.4063C6.38279 62.3748 6.34733 62.3663 6.31186 62.3578C6.31186 62.3578 6.3132 62.3482 6.31231 62.3207C6.27938 62.2879 6.24733 62.2826 6.21528 62.2773C6.21528 62.2773 6.2012 62.2662 6.20181 62.2282C6.14679 62.1625 6.09115 62.1349 6.03551 62.1072C5.87914 61.9597 5.72278 61.8122 5.55152 61.6011C5.48877 61.5087 5.44092 61.4799 5.39308 61.4512C5.39308 61.4512 5.39411 61.4404 5.39632 61.4101C5.36672 61.3626 5.33491 61.3455 5.3031 61.3283C5.31718 61.3188 5.33127 61.3093 5.33263 61.2784C5.25379 61.2056 5.18768 61.1542 5.12157 61.1028C5.12157 61.1028 5.13389 61.0964 5.13087 61.0681C5.08098 61.0113 5.03412 60.983 4.98727 60.9546C4.98727 60.9546 4.97875 60.9403 4.9846 60.9068C4.96142 60.853 4.93239 60.8327 4.90336 60.8123C4.90336 60.8123 4.91557 60.8069 4.91103 60.7845C4.87774 60.7389 4.84899 60.7158 4.82025 60.6926C4.82025 60.6926 4.82978 60.6915 4.82792 60.662C4.7825 60.5916 4.73894 60.5508 4.69539 60.5099C4.69539 60.5099 4.70886 60.5038 4.70613 60.4821C4.67606 60.4358 4.64874 60.4112 4.62141 60.3867C4.62141 60.3867 4.63059 60.3858 4.63033 60.351C4.51374 60.1508 4.39741 59.9853 4.28109 59.8198C4.28109 59.8198 4.28518 59.8115 4.29412 59.7767C4.26063 59.7012 4.2182 59.6603 4.17576 59.6195C4.17576 59.6195 4.17998 59.6113 4.19323 59.5699C4.19147 59.4312 4.1948 59.3264 4.15875 59.2375C3.45511 57.5038 3.38095 55.783 4.23937 54.0728C4.29652 53.9589 4.29532 53.8158 4.32127 53.6863C4.32127 53.6863 4.3281 53.6947 4.35978 53.6909C4.43615 53.5863 4.48084 53.4855 4.52552 53.3847C4.52552 53.3847 4.53015 53.3924 4.55098 53.3804C4.58822 53.3365 4.60464 53.3046 4.62106 53.2727C4.62106 53.2727 4.62394 53.2826 4.6558 53.283C4.7695 53.1813 4.85134 53.0791 4.93317 52.9769C4.93317 52.9769 4.94086 52.9304 4.96702 52.8834C4.76623 52.7579 4.5393 52.6794 4.31236 52.6008C4.31236 52.6008 4.32188 52.5967 4.31223 52.5749C4.27135 52.5345 4.24011 52.5158 4.20886 52.4972C4.20886 52.4972 4.21952 52.4938 4.22134 52.4574C4.00378 51.864 4.1083 51.3059 4.2171 50.7477C4.2171 50.7477 4.2213 50.7562 4.24295 50.7443C4.27506 50.6972 4.28552 50.662 4.29598 50.6267C4.29598 50.6267 4.31468 50.6509 4.33267 50.6373C4.35856 50.5888 4.36646 50.5538 4.37436 50.5189C4.37436 50.5189 4.38456 50.5168 4.4146 50.5167C4.45497 50.4834 4.46531 50.4501 4.47565 50.4169C4.47565 50.4169 4.4861 50.4126 4.52302 50.421C4.61502 50.3669 4.6701 50.3044 4.72519 50.2419C4.72519 50.2419 4.72868 50.253 4.7646 50.2526C4.94751 50.2206 5.10548 50.2122 5.23804 50.1498C5.34559 50.0992 5.42264 49.9838 5.51321 49.8971C5.40541 49.8013 5.29762 49.7055 5.18982 49.6097C5.18982 49.6097 5.18563 49.5963 5.20102 49.5508C5.17109 49.0025 5.12576 48.4997 5.08043 47.9969C5.08043 47.9969 5.08733 47.9876 5.12379 47.9889C5.25063 47.8629 5.34101 47.7356 5.4314 47.6083C5.4314 47.6083 5.43779 47.6211 5.47934 47.6214C5.8041 47.6194 6.0873 47.6171 6.3705 47.6149C6.3705 47.6149 6.36089 47.6224 6.3628 47.6533C6.46876 47.762 6.5728 47.8396 6.67684 47.9173C6.67684 47.9173 6.66464 47.9227 6.66488 47.9576C6.75914 48.1033 6.85317 48.2141 6.94719 48.3248C7.03147 48.241 7.1486 48.1714 7.19276 48.07C7.27003 47.8927 7.30249 47.6958 7.35373 47.507C7.35373 47.507 7.35753 47.5158 7.37855 47.5033C7.40029 47.4558 7.40102 47.4208 7.40175 47.3858C7.40175 47.3858 7.41104 47.378 7.44724 47.3751C7.49444 47.3095 7.50544 47.2468 7.51643 47.1842C7.51643 47.1842 7.54189 47.196 7.56921 47.1891C7.6512 47.0549 7.70585 46.9277 7.76051 46.8004C7.76051 46.8004 7.76479 46.8089 7.7863 46.7964C7.81573 46.748 7.82366 46.7122 7.83159 46.6764C7.83159 46.6764 7.85003 46.7066 7.8726 46.69C7.91666 46.6135 7.93815 46.5535 7.95963 46.4936C7.95963 46.4936 7.96338 46.5028 7.98554 46.4915C8.01889 46.445 8.03007 46.4098 8.04126 46.3745C8.04126 46.3745 8.04638 46.3879 8.07308 46.3801C8.12295 46.3138 8.14613 46.2554 8.1693 46.197C8.1693 46.197 8.17539 46.2052 8.20681 46.2008C8.27294 46.1212 8.30766 46.0459 8.34239 45.9707C8.34239 45.9707 8.37347 45.9962 8.38604 45.9817C8.40492 45.9325 8.41122 45.8979 8.41752 45.8632C8.41752 45.8632 8.42793 45.8591 8.46121 45.8587C8.52083 45.8022 8.54718 45.7461 8.57352 45.6901C8.57352 45.6901 8.5773 45.6985 8.59834 45.6871C8.63719 45.6446 8.655 45.6135 8.67281 45.5824C8.67281 45.5824 8.67505 45.5932 8.69622 45.583C8.73495 45.541 8.75251 45.509 8.77007 45.4771C8.77007 45.4771 8.77284 45.4873 8.80441 45.4863C8.87729 45.4128 8.91858 45.3403 8.95987 45.2677C8.95987 45.2677 8.96823 45.2809 8.99018 45.2723C9.02884 45.2303 9.04554 45.1969 9.06224 45.1635C9.06224 45.1635 9.06702 45.1761 9.08986 45.1691C9.12971 45.1287 9.14672 45.0954 9.16374 45.0621C9.16374 45.0621 9.16848 45.0751 9.19117 45.068C9.23088 45.0276 9.24789 44.9942 9.2649 44.9609C9.2649 44.9609 9.26967 44.9737 9.29239 44.9669C9.33308 44.9273 9.35105 44.8945 9.36903 44.8617C9.36903 44.8617 9.37578 44.8755 9.40592 44.8752C9.48588 44.8053 9.53571 44.7356 9.58553 44.666C9.5877 44.6322 9.60396 44.6077 9.69102 44.5862C9.78019 44.532 9.81264 44.4841 9.8451 44.4362C9.8451 44.4362 9.85516 44.4445 9.88356 44.4444C9.93073 44.4129 9.9495 44.3815 9.96828 44.3501C9.96828 44.3501 9.98058 44.3662 10.001 44.3595C10.0431 44.3226 10.0648 44.2924 10.0865 44.2622C10.0865 44.2622 10.0895 44.273 10.1187 44.2724C10.1761 44.2252 10.2044 44.1787 10.2326 44.1321C10.2326 44.1321 10.2477 44.1214 10.2818 44.1276C10.3332 44.1037 10.3505 44.0736 10.3679 44.0436C10.3679 44.0436 10.4013 44.0666 10.4128 44.0573C10.4474 44.0189 10.4704 43.9897 10.4934 43.9605C10.4934 43.9605 10.4954 43.9708 10.5251 43.9701C10.5921 43.9238 10.6295 43.8781 10.6668 43.8325C10.6808 43.8465 10.6948 43.8606 10.7249 43.8654C10.8167 43.7811 10.8924 43.706 10.9681 43.6309C10.9681 43.6309 10.9664 43.6527 10.9974 43.6466C11.0531 43.6128 11.0777 43.585 11.1022 43.5572C11.1022 43.5572 11.1038 43.5673 11.138 43.5691C11.271 43.4884 11.3698 43.4059 11.4687 43.3233C11.4687 43.3233 11.4786 43.3417 11.5058 43.3385C11.5591 43.3094 11.5851 43.2835 11.6112 43.2575C11.6112 43.2575 11.6119 43.2671 11.6471 43.2676C11.7938 43.2375 11.9143 43.2247 12.0156 43.1737C13.6272 42.3615 15.3262 41.8248 17.1047 41.5249C17.3424 41.4849 17.5644 41.3513 17.7937 41.261C18.876 41.2219 19.9588 41.1431 21.0406 41.1557C21.9741 41.1665 22.7272 40.845 23.3557 40.1836C23.765 39.753 24.256 39.4797 24.8476 39.4188C26.252 39.2743 27.3386 40.0895 27.619 41.4852C27.6382 41.5806 27.6494 41.6776 27.6525 41.6975C28.2005 41.8632 28.7321 41.9378 29.1766 42.1754C30.3017 42.7766 30.7842 44.2026 30.4308 45.6095C30.3904 45.7702 30.3823 45.9812 30.4532 46.1213C31.2675 47.7285 31.2388 49.3521 30.5736 51.0288Z" fill="#522D21"/>
<path d="M30.5391 83.6604C30.5777 83.5825 30.6164 83.5047 30.6819 83.3815C30.7514 83.3072 30.7941 83.2782 30.8773 83.2507C31.3917 83.4511 31.8634 83.6552 32.3396 83.8484C33.9751 84.5122 35.9989 84.0893 37.2474 82.8885C38.129 82.0405 38.5632 80.9639 38.8872 79.8302C39.5038 77.6726 40.0071 75.4923 40.0919 73.2065C40.1747 72.8279 40.1444 72.4606 40.5777 72.27C41.9589 71.6623 42.3997 70.4723 42.4942 69.0425C42.5295 68.83 42.5587 68.6552 42.5894 68.4398C42.4943 68.1421 42.4728 67.785 42.2876 67.6457C41.63 67.151 41.5998 66.359 41.2624 65.7175C41.6884 64.5001 42.022 63.2404 42.557 62.0731C44.4998 57.8344 47.8701 55.1289 52.1135 53.4084C52.6114 53.2065 53.1227 53.0377 53.6662 52.8516C53.2749 53.9574 53.1087 55.1018 53.1008 56.2928C53.0881 58.2111 53.9077 59.5324 55.7671 60.2765C55.5137 60.4888 55.2882 60.6959 55.0445 60.8788C53.1254 62.3198 51.167 63.7112 49.2934 65.2087C47.917 66.3088 46.6349 67.5318 45.6618 69.0276C45.8789 67.7898 46.043 66.554 46.4009 65.3771C46.7107 64.3585 47.2623 63.4153 47.6551 62.4184C47.7372 62.2101 47.6824 61.8033 47.5324 61.6794C47.2483 61.4445 47.0952 61.7822 46.9996 62.0015C46.5979 62.9229 46.1185 63.8254 45.8485 64.7857C45.4334 66.2616 45.124 67.7716 44.8567 69.2826C44.7349 69.9716 44.8208 70.6975 44.8125 71.4066C44.5182 73.0056 44.942 74.5375 45.2412 76.0829C45.483 77.3319 45.7016 78.5855 45.9289 79.8803C44.8577 80.9426 43.8603 82.0536 42.7039 82.9623C39.9604 85.1181 36.8265 86.4109 33.341 86.7744C32.4724 86.865 31.592 86.8417 30.6529 86.8216C30.5722 85.7352 30.5557 84.6978 30.5391 83.6604Z" fill="#E76835"/>
<path d="M72.3146 50.8456C71.3749 50.5669 70.4698 50.3115 69.5786 50.0139C67.6018 49.3539 67.3258 48.1766 67.191 46.6165C67.1807 46.498 67.2231 46.3319 67.3044 46.255C68.6387 44.9919 69.6987 43.5301 70.4658 41.8748C72.7659 42.3965 74.6832 41.4888 75.941 39.3445C76.5581 38.2924 76.8841 37.1591 77.0096 35.9141C79.2581 37.282 80.7408 39.2517 81.0343 41.909C81.4698 45.8509 79.8002 49.2557 75.7861 50.8787C75.3839 51.0413 74.9601 51.1505 74.5037 51.2922C73.7593 51.1499 73.0574 50.9998 72.3146 50.8456Z" fill="#522D21"/>
<path d="M61.2163 82.65C61.9995 83.3049 62.2284 84.2633 62.4489 85.1677C62.7318 86.3276 62.716 87.5143 61.9188 88.5992C61.8526 88.662 61.8345 88.689 61.826 88.7224C59.616 89.3356 57.4027 89.2733 55.2017 88.7017C53.865 88.3546 52.6111 88.5152 51.3857 89.1167C51.0114 89.3005 50.6173 89.4598 50.2154 89.5678C49.6045 89.732 49.2975 89.5657 49.0107 88.9335C49.2209 88.7308 49.4157 88.5935 49.596 88.4391C50.4078 87.7438 51.2971 87.2049 52.3567 86.9652C52.6951 86.8887 53.1436 86.7273 52.9687 86.2875C52.8138 85.898 52.3749 86.052 52.0894 86.2101C51.2285 86.687 50.3946 87.2126 49.5367 87.6952C49.1079 87.9364 48.8963 88.2624 48.9539 88.7541C48.7224 88.843 48.494 88.9407 48.2591 89.0191C47.3792 89.313 46.8412 89.1188 46.3238 88.3449C46.279 88.2779 46.1681 88.2432 46.0808 88.2183C45.2384 87.9775 44.9933 87.2711 45.5314 86.5604C45.7717 86.243 46.0645 85.9654 46.3418 85.6373C46.9419 85.2226 47.5353 84.8427 48.1251 84.4574C49.4178 83.6127 50.7691 82.8681 52.3282 82.7151C53.4248 82.6075 54.5427 82.6037 55.6431 82.6752C57.1428 82.7727 58.6312 82.8309 60.1166 82.555C60.1822 82.5428 60.2512 82.549 60.4047 82.5469C60.7327 82.5814 60.9745 82.6157 61.2163 82.65ZM49.209 85.2645C48.7361 85.5527 48.2479 85.8191 47.7953 86.1364C47.4684 86.3656 47.1676 86.6433 46.8997 86.9395C46.8089 87.0399 46.8544 87.2635 46.8376 87.4307C46.9824 87.3988 47.1586 87.4092 47.2673 87.3286C48.4506 86.4505 49.7406 85.7784 51.1269 85.2866C51.3844 85.1952 51.7022 85.1163 51.5669 84.7517C51.4406 84.411 51.1392 84.4169 50.844 84.5437C50.3197 84.7689 49.798 85.0002 49.209 85.2645Z" fill="#C86B40"/>
<path d="M40.0642 73.2364C40.0073 75.495 39.504 77.6752 38.8874 79.8328C38.5634 80.9665 38.1292 82.0431 37.2475 82.8911C35.9991 84.0919 33.9753 84.5148 32.3398 83.851C31.8636 83.6578 31.3919 83.4538 30.8848 83.2186C30.9504 82.9701 31.0494 82.7576 31.1484 82.5452C32.0597 80.4533 32.9711 78.3614 33.884 76.2328C34.3876 74.7272 34.8895 73.2583 35.4386 71.7472C35.7177 71.5024 35.5627 71.4076 35.3786 71.321C35.3504 71.2731 35.3222 71.2252 35.3168 71.1296C35.282 70.8628 35.2363 70.6397 35.1646 70.4253C34.9812 69.8766 34.7938 69.3309 34.9757 68.6562C35.0694 68.7848 35.1562 68.8486 35.1529 68.9076C35.1092 69.7106 35.5849 70.2399 36.1031 70.7499C36.1383 70.7845 36.164 70.8301 36.189 70.8735C36.589 71.565 37.0768 72.1567 37.9114 72.3275C38.1359 72.3735 38.3707 72.3661 38.5992 72.3956C38.7198 72.4111 38.8542 72.4259 38.9524 72.4881C39.3295 72.7272 39.6946 72.9853 40.0642 73.2364Z" fill="#CC7243"/>
<path d="M13.548 62.7059C13.5921 62.7191 13.6361 62.7322 13.7141 62.7525C13.7573 63.5235 13.1084 63.0569 12.7967 63.2814C12.7433 63.973 12.6299 64.6922 12.6547 65.4066C12.6689 65.8183 12.8813 66.2311 13.3204 66.4474C13.8726 66.7195 14.0527 67.2628 14.2383 67.8344C14.2263 67.8808 14.1976 67.8793 14.1663 67.8849C14.1071 67.9204 14.0792 67.9503 14.0509 67.9761C14.0504 67.972 14.0567 67.9774 14.0248 67.9775C13.9451 68.0129 13.8973 68.0482 13.8479 68.0793C13.8464 68.075 13.8541 68.0796 13.8159 68.0776C13.7017 68.1255 13.6257 68.1753 13.5351 68.2412C13.4962 68.2917 13.4718 68.3261 13.4475 68.3605C12.4032 68.5862 11.3557 68.712 10.31 68.3841C8.73275 67.8895 7.45844 67.0023 7.05434 65.3257C6.8861 64.6277 7.08708 63.8406 7.13107 63.0309C7.15985 62.9191 7.17773 62.8705 7.19561 62.822C7.6586 62.1106 8.11496 61.3925 9.04492 61.0764C9.8174 60.9032 10.5098 60.7738 11.2093 61.0542C11.2323 61.0634 11.2838 61.0016 11.3221 60.9728C11.3761 60.9874 11.4302 61.0019 11.516 61.068C11.6081 61.1396 11.6685 61.1598 11.7289 61.1799C11.7289 61.1799 11.7216 61.1863 11.7398 61.2106C11.8215 61.2503 11.8851 61.2657 11.9486 61.2811C11.9977 61.301 12.0467 61.3208 12.1219 61.3867C12.1771 61.4511 12.2062 61.4693 12.2352 61.4876C12.2352 61.4876 12.2273 61.4883 12.2422 61.5115C12.3115 61.555 12.3659 61.5754 12.4203 61.5958C12.4824 61.6402 12.5444 61.6845 12.6299 61.7801C12.6827 61.8519 12.7121 61.8725 12.7414 61.8931C12.7414 61.8931 12.7338 61.8951 12.745 61.9159C12.7852 61.9555 12.8141 61.9744 12.843 61.9932C12.843 61.9932 12.8362 61.9976 12.8505 62.0201C12.9004 62.0586 12.936 62.0746 12.9715 62.0907C13.0426 62.1843 13.1136 62.2779 13.2249 62.4103C13.2982 62.4655 13.3313 62.4817 13.3644 62.498C13.3931 62.5058 13.4151 62.5225 13.4465 62.5941C13.491 62.662 13.5195 62.684 13.548 62.7059ZM11.7739 63.8261C11.0606 63.1421 10.164 63.0212 9.49776 63.514C9.22127 63.7185 9.07613 64.0033 9.26956 64.2845C9.33341 64.3774 9.71832 64.3211 9.91367 64.2355C10.2279 64.0978 10.4962 64.0508 10.7077 64.2163C10.4913 64.6966 10.2569 65.1151 10.1189 65.5632C10.0433 65.8089 10.0252 66.1778 10.4252 66.24C10.7886 66.2966 10.8516 65.9998 10.9119 65.728C10.9916 65.3689 11.1489 65.1215 11.585 65.1299C11.9788 65.1376 12.2133 64.7977 12.0988 64.416C12.0422 64.2272 11.9186 64.0585 11.7739 63.8261Z" fill="#C96C40"/>
<path d="M40.0928 73.2106C39.6953 72.9868 39.3302 72.7287 38.9531 72.4896C38.8548 72.4273 38.7204 72.4125 38.5999 72.397C38.3714 72.3676 38.1365 72.3749 37.9121 72.329C37.0775 72.1581 36.5896 71.5665 36.1897 70.8749C36.1646 70.8316 36.139 70.7859 36.1038 70.7513C35.5856 70.2413 35.1099 69.7121 35.1536 68.909C35.1568 68.8501 35.0701 68.7862 34.9764 68.6577C34.7945 69.3324 34.9819 69.878 35.1653 70.4267C35.2369 70.6412 35.2827 70.8642 35.3111 71.103C34.7072 69.9418 34.4447 68.7374 35.0009 67.4692C35.2891 66.8119 35.6969 66.3055 36.3767 65.9661C36.739 65.7851 36.9936 65.339 37.233 64.971C37.8208 64.0674 38.3624 63.1338 38.9435 62.2257C39.1027 61.9771 39.3048 61.7319 39.5427 61.5637C39.8507 61.3461 40.2623 61.3062 40.5161 61.6045C40.7095 61.8317 40.8664 62.2111 40.8239 62.49C40.7576 62.9251 40.5477 63.3541 40.3283 63.7464C39.9752 64.3777 39.5649 64.9768 39.1187 65.6178C38.5948 65.6373 38.1302 65.6101 37.668 65.6329C37.5544 65.6385 37.4489 65.8073 37.3397 65.901C37.4669 66.0169 37.5766 66.1758 37.7261 66.2362C37.8719 66.2951 38.0627 66.2301 38.2262 66.2604C38.6155 66.3327 38.9346 66.5003 38.9482 66.9629C38.9622 67.436 38.5651 67.4653 38.2586 67.5533C38.071 67.6072 37.8338 67.5133 37.6603 67.5855C37.4611 67.6684 37.3077 67.8614 37.1344 68.0066C37.3066 68.1309 37.4825 68.3643 37.6504 68.3586C38.1265 68.3424 38.2942 68.6116 38.223 68.9726C38.1021 69.586 37.8753 70.1779 37.7107 70.7837C37.6568 70.982 37.6578 71.1953 37.6337 71.4017C37.8393 71.3518 38.0541 71.3237 38.2466 71.2427C38.3402 71.2033 38.4038 71.0717 38.4609 70.9705C38.6482 70.6383 38.8262 70.301 39.0083 69.9659C39.8849 70.5827 40.3406 70.7058 41.1993 70.2516C41.696 69.9889 42.0634 69.4815 42.489 69.0842C42.4006 70.4764 41.9597 71.6664 40.5786 72.274C40.1453 72.4646 40.1755 72.832 40.0928 73.2106ZM37.0886 65.8285C37.033 65.8273 36.977 65.8229 36.922 65.8285C36.915 65.8292 36.9132 65.8813 36.9089 65.9096C36.9673 65.9012 37.0256 65.8928 37.0886 65.8285Z" fill="#C96D41"/>
<path d="M6.56476 84.2969C7.72096 84.5039 8.86894 84.7504 10.0164 84.9991C11.1303 85.2406 12.2436 85.4843 13.4209 85.7409C13.1891 86.4727 12.959 87.1992 12.7048 87.9844C12.6615 88.118 12.6424 88.193 12.6232 88.2679C10.637 88.2774 8.65072 88.2943 6.66452 88.2911C6.19235 88.2904 5.9264 87.9434 6.0091 87.4145C6.17003 86.3854 6.3716 85.3627 6.56476 84.2969Z" fill="#CC7344"/>
<path d="M56.5508 50.3067C59.4279 50.1961 62.1031 49.4168 64.568 47.9209C64.7539 47.8081 64.912 47.6469 65.1032 47.5468C65.219 47.4862 65.3738 47.5001 65.511 47.4805C65.4946 47.6175 65.526 47.7919 65.4534 47.8851C65.1239 48.3076 64.7752 48.7166 64.4148 49.1134C63.0541 50.612 61.5299 51.8876 59.557 52.5006C59.0666 52.6529 58.5435 52.756 58.0322 52.771C57.3963 52.7896 57.0014 52.349 56.6791 51.8061C56.6284 51.3004 56.5924 50.8256 56.5508 50.3067Z" fill="#A75C38"/>
<path d="M42.4935 69.0475C42.0618 69.4825 41.6945 69.9899 41.1977 70.2526C40.3391 70.7067 39.8833 70.5837 39.0068 69.9669C38.8247 70.3019 38.6466 70.6393 38.4593 70.9714C38.4023 71.0726 38.3386 71.2043 38.245 71.2437C38.0525 71.3246 37.8378 71.3528 37.6322 71.4027C37.6563 71.1963 37.6552 70.983 37.7091 70.7847C37.8738 70.1789 38.1006 69.5869 38.2215 68.9735C38.2926 68.6126 38.1249 68.3433 37.6488 68.3595C37.481 68.3652 37.305 68.1318 37.1328 68.0076C37.3061 67.8624 37.4595 67.6693 37.6587 67.5865C37.8322 67.5143 38.0694 67.6082 38.2571 67.5543C38.5636 67.4663 38.9606 67.4369 38.9467 66.9639C38.933 66.5013 38.6139 66.3337 38.2246 66.2614C38.0612 66.2311 37.8703 66.2961 37.7245 66.2372C37.575 66.1767 37.4653 66.0178 37.3382 65.902C37.4474 65.8082 37.5529 65.6394 37.6664 65.6338C38.1286 65.6111 38.5933 65.6383 39.0991 65.6488C39.156 65.6747 39.1752 65.6949 39.2246 65.7487C39.2543 65.8026 39.2539 65.8216 39.2624 65.835C40.0076 67.0091 39.9931 67.1367 39.0683 68.1385C38.9938 68.2192 38.9491 68.4008 38.989 68.493C39.0283 68.5841 39.1926 68.6731 39.3021 68.6731C39.8386 68.6734 40.1905 68.363 40.4895 67.9462C40.5931 67.8018 40.8332 67.6029 40.9362 67.6394C41.2305 67.7438 41.2467 68.0449 41.0803 68.267C40.7424 68.718 40.3601 69.1356 39.9552 69.6154C40.1405 69.6271 40.4405 69.7397 40.619 69.6383C41.0422 69.398 41.4452 69.0924 41.7843 68.7432C42.0333 68.487 42.2322 68.3072 42.5872 68.4854C42.558 68.6602 42.5288 68.835 42.4935 69.0475Z" fill="#A75C38"/>
<path d="M42.5893 68.4407C42.2327 68.3031 42.0338 68.4829 41.7849 68.7391C41.4457 69.0883 41.0428 69.3939 40.6195 69.6342C40.4411 69.7356 40.1411 69.623 39.9558 69.6113C40.3607 69.1315 40.743 68.7139 41.0808 68.2629C41.2472 68.0408 41.2311 67.7397 40.9367 67.6353C40.8337 67.5987 40.5937 67.7977 40.4901 67.9421C40.191 68.3589 39.8392 68.6693 39.3026 68.669C39.1931 68.6689 39.0289 68.58 38.9895 68.4889C38.9497 68.3967 38.9944 68.2151 39.0689 68.1344C39.9937 67.1326 40.0081 67.005 39.263 65.8309C39.2545 65.8175 39.2549 65.7985 39.2461 65.7436C39.8903 65.1748 40.404 65.1804 41.2274 65.7223C41.5997 66.3599 41.6298 67.1519 42.2875 67.6466C42.4727 67.786 42.4942 68.143 42.5893 68.4407Z" fill="#C86B40"/>
<path d="M25.1397 71.0788C25.1706 71.28 25.1814 71.4529 25.1929 71.6688C23.9376 72.2983 22.6438 72.2984 21.3896 71.793C20.802 71.5562 20.3063 71.0862 19.7799 70.7067C19.6918 70.6432 19.6599 70.5019 19.543 70.2891C21.4006 70.6141 23.1439 70.7221 24.9405 70.4955C25.0301 70.6804 25.0748 70.8655 25.1397 71.0788Z" fill="#AD603A"/>
<path d="M12.6712 88.284C12.6435 88.1978 12.6627 88.1228 12.7036 88.0283C12.8988 88.0456 13.0722 88.1145 13.2457 88.1147C17.4266 88.1207 21.6075 88.1194 25.7884 88.1194C27.0804 88.1194 28.3723 88.121 29.6642 88.1187C30.2554 88.1176 30.331 88.03 30.3492 87.4503C30.3883 86.2087 30.4386 84.9675 30.5125 83.6953C30.5573 84.7019 30.5738 85.7393 30.6087 86.8087C30.6022 87.0199 30.559 87.1989 30.5562 87.3786C30.5444 88.132 30.3815 88.3045 29.6391 88.3048C25.6822 88.3063 21.7254 88.3076 17.7686 88.3064C16.0851 88.3059 14.4015 88.2992 12.6712 88.284Z" fill="#F7BC35"/>
<path d="M48.9542 88.7833C48.8981 88.2629 49.1097 87.937 49.5385 87.6958C50.3964 87.2131 51.2302 86.6875 52.0912 86.2106C52.3767 86.0525 52.8156 85.8985 52.9705 86.288C53.1454 86.7278 52.6969 86.8892 52.3585 86.9658C51.2989 87.2054 50.4096 87.7443 49.5978 88.4396C49.4175 88.594 49.2226 88.7313 49.0087 88.8989C48.9728 88.8849 48.9628 88.8485 48.9542 88.7833Z" fill="#A75C38"/>
<path d="M13.4802 68.3747C13.4714 68.3279 13.4957 68.2935 13.5687 68.2339C13.6962 68.1663 13.7749 68.1239 13.8537 68.0814C13.8537 68.0814 13.846 68.0768 13.8781 68.0782C13.9589 68.0461 14.0076 68.0126 14.0563 67.9792C14.0563 67.9792 14.05 67.9738 14.0799 67.9696C14.1389 67.9373 14.1681 67.9092 14.1972 67.881C14.1972 67.881 14.2259 67.8826 14.2381 67.875C14.8096 68.2542 15.369 68.641 15.9442 69.0574C15.0613 69.1447 14.2546 68.8805 13.4802 68.3747Z" fill="#502C20"/>
<path d="M45.6505 31.8537C45.6249 32.1543 45.5644 32.4657 45.4829 32.8071C45.1115 31.4494 44.7435 30.0658 44.4194 28.672C44.2775 28.0619 44.2252 27.431 44.1641 26.7891C44.2691 26.9452 44.3905 27.1172 44.408 27.2992C44.564 28.9294 44.8699 30.5273 45.3748 32.164C45.4844 32.0277 45.55 31.9461 45.6505 31.8537Z" fill="#4A281E"/>
<path d="M17.751 41.2539C17.564 41.3487 17.342 41.4822 17.1043 41.5223C15.3258 41.8222 13.6268 42.3588 12.0152 43.171C11.9139 43.2221 11.7934 43.2349 11.6426 43.2625C13.1571 42.3266 14.867 41.824 16.6212 41.4464C16.9811 41.369 17.346 41.3145 17.751 41.2539Z" fill="#4A281E"/>
<path d="M4.29191 53.7031C4.29482 53.8129 4.29602 53.9561 4.23887 54.0699C3.38045 55.7801 3.45461 57.501 4.15825 59.2347C4.1943 59.3235 4.19097 59.4283 4.18877 59.5647C3.25061 57.6286 3.18306 55.6668 4.29191 53.7031Z" fill="#4A281E"/>
<path d="M4.18528 50.7695C4.10677 51.3059 4.00224 51.864 4.21733 52.4624C3.74948 51.9481 3.87982 51.3722 4.18528 50.7695Z" fill="#4A281E"/>
<path d="M5.05728 48.0273C5.12479 48.4983 5.17012 49.0011 5.19629 49.5435C4.89634 49.0969 4.82603 48.5911 5.05728 48.0273Z" fill="#4A281E"/>
<path d="M7.32211 47.5312C7.29965 47.6997 7.26719 47.8966 7.18991 48.074C7.14576 48.1754 7.02862 48.2449 6.94434 48.3288C6.85032 48.2181 6.7563 48.1073 6.66602 47.9563C6.7566 48.0249 6.84345 48.1338 6.94873 48.2658C7.06992 48.0146 7.18163 47.7831 7.32211 47.5312Z" fill="#4A281E"/>
<path d="M5.20111 49.6406C5.29355 49.7038 5.40135 49.7996 5.50915 49.8954C5.41857 49.9821 5.34153 50.0975 5.23398 50.1481C5.10141 50.2105 4.94344 50.2188 4.75586 50.2474C4.92626 50.1361 5.13725 50.0279 5.35688 49.9153C5.31272 49.8392 5.2646 49.7562 5.20111 49.6406Z" fill="#4A281E"/>
<path d="M6.34592 47.5813C6.08428 47.6137 5.80107 47.616 5.4707 47.6136C5.72381 47.5896 6.02409 47.5703 6.34592 47.5813Z" fill="#4A281E"/>
<path d="M4.32812 52.6328C4.53749 52.6806 4.76443 52.7592 4.97019 52.8616C4.74791 52.8115 4.5468 52.7375 4.32812 52.6328Z" fill="#4A281E"/>
<path d="M4.29297 59.8516C4.39709 59.9856 4.51341 60.1511 4.62747 60.3551C4.51853 60.2235 4.41186 60.0533 4.29297 59.8516Z" fill="#4A281E"/>
<path d="M5.39901 47.6172C5.33998 47.7351 5.2496 47.8624 5.12305 47.9827C5.18047 47.8592 5.27406 47.7429 5.39901 47.6172Z" fill="#4A281E"/>
<path d="M4.89922 52.9844C4.84891 53.0785 4.76707 53.1807 4.64844 53.281C4.69699 53.1835 4.78235 53.088 4.89922 52.9844Z" fill="#4A281E"/>
<path d="M6.66595 47.8869C6.57102 47.8404 6.46698 47.7627 6.36328 47.6484C6.46136 47.6931 6.5591 47.7744 6.66595 47.8869Z" fill="#4A281E"/>
<path d="M35.3848 71.3594C35.5629 71.4066 35.7179 71.5013 35.4528 71.7099C35.4099 71.6101 35.4003 71.5045 35.3848 71.3594Z" fill="#C96D41"/>
<path d="M7.15882 62.8108C7.17793 62.8749 7.16005 62.9235 7.12407 62.9907C7.02388 62.9432 6.94179 62.8771 6.83984 62.7869C6.92059 62.7737 7.02121 62.7844 7.15882 62.8108Z" fill="#4A281E"/>
<path d="M11.4384 43.3359C11.3692 43.4059 11.2704 43.4885 11.1328 43.5669C11.199 43.4914 11.3039 43.4199 11.4384 43.3359Z" fill="#4A281E"/>
<path d="M7.73122 46.8203C7.70422 46.93 7.64956 47.0572 7.55664 47.1826C7.58011 47.0664 7.64184 46.9522 7.73122 46.8203Z" fill="#4A281E"/>
<path d="M10.9383 43.6406C10.891 43.7046 10.8153 43.7797 10.7031 43.8422C10.7478 43.7704 10.8288 43.7111 10.9383 43.6406Z" fill="#4A281E"/>
<path d="M4.497 53.3984C4.47977 53.4831 4.43508 53.584 4.35352 53.687C4.36761 53.5976 4.41858 53.5061 4.497 53.3984Z" fill="#4A281E"/>
<path d="M4.69695 50.25C4.67057 50.3066 4.61548 50.3691 4.52539 50.4179C4.54967 50.3548 4.60896 50.3054 4.69695 50.25Z" fill="#4A281E"/>
<path d="M5.13086 61.1289C5.18792 61.1518 5.25404 61.2032 5.31199 61.2908C5.24919 61.2705 5.19455 61.214 5.13086 61.1289Z" fill="#4A281E"/>
<path d="M9.55583 44.6758C9.53481 44.7341 9.48498 44.8037 9.39844 44.8696C9.41682 44.8063 9.47193 44.7467 9.55583 44.6758Z" fill="#4A281E"/>
<path d="M8.31587 45.9844C8.30686 46.0442 8.27214 46.1194 8.20117 46.1974C8.20667 46.1333 8.24842 46.0666 8.31587 45.9844Z" fill="#4A281E"/>
<path d="M8.93187 45.2812C8.91799 45.3413 8.8767 45.4138 8.79883 45.4856C8.80965 45.4212 8.85705 45.3575 8.93187 45.2812Z" fill="#4A281E"/>
<path d="M7.93285 46.5078C7.93763 46.5538 7.91614 46.6138 7.86058 46.6769C7.8532 46.6272 7.87989 46.5745 7.93285 46.5078Z" fill="#4A281E"/>
<path d="M8.54608 45.7031C8.54493 45.7478 8.51859 45.8038 8.45904 45.8547C8.45752 45.8046 8.48919 45.7595 8.54608 45.7031Z" fill="#4A281E"/>
<path d="M8.14169 46.2109C8.14445 46.2549 8.12128 46.3133 8.06505 46.3763C8.05992 46.329 8.08784 46.2772 8.14169 46.2109Z" fill="#4A281E"/>
<path d="M7.49503 47.2031C7.50352 47.2476 7.49253 47.3103 7.44561 47.3698C7.43164 47.3182 7.45359 47.2697 7.49503 47.2031Z" fill="#4A281E"/>
<path d="M5.40625 61.4727C5.44003 61.4778 5.48787 61.5066 5.53865 61.5687C5.50116 61.5667 5.46074 61.5315 5.40625 61.4727Z" fill="#4A281E"/>
<path d="M10.6388 43.8438C10.6287 43.8788 10.5913 43.9244 10.5195 43.9686C10.5273 43.9296 10.5694 43.892 10.6388 43.8438Z" fill="#4A281E"/>
<path d="M6.04492 62.1328C6.08926 62.1358 6.1449 62.1635 6.19265 62.2239C6.14191 62.2236 6.09907 62.1905 6.04492 62.1328Z" fill="#4A281E"/>
<path d="M6.6582 62.6407C6.70292 62.6396 6.76065 62.6645 6.81849 62.7232C6.76947 62.7269 6.72034 62.6967 6.6582 62.6407Z" fill="#4A281E"/>
<path d="M9.8193 44.4492C9.81203 44.4837 9.77957 44.5316 9.71289 44.5813C9.71714 44.5429 9.75562 44.5028 9.8193 44.4492Z" fill="#4A281E"/>
<path d="M10.2095 44.1445C10.2041 44.1778 10.1758 44.2244 10.1133 44.2692C10.1149 44.2308 10.1507 44.1943 10.2095 44.1445Z" fill="#4A281E"/>
<path d="M4.18555 59.6406C4.21829 59.6558 4.26072 59.6967 4.28958 59.7718C4.24908 59.7594 4.22216 59.7128 4.18555 59.6406Z" fill="#4A281E"/>
<path d="M4.70312 60.5391C4.73813 60.5512 4.78169 60.592 4.82496 60.6667C4.78702 60.6563 4.74935 60.612 4.70312 60.5391Z" fill="#4A281E"/>
<path d="M5 60.9766C5.03354 60.9818 5.0804 61.0102 5.1264 61.0727C5.08814 61.0711 5.05073 61.0354 5 60.9766Z" fill="#4A281E"/>
<path d="M11.5821 43.2617C11.5818 43.2841 11.556 43.3098 11.502 43.3283C11.5014 43.3025 11.529 43.2837 11.5821 43.2617Z" fill="#4A281E"/>
<path d="M10.4663 43.9688C10.4696 43.9913 10.4469 44.0202 10.395 44.0486C10.3907 44.0238 10.4154 43.9994 10.4663 43.9688Z" fill="#4A281E"/>
<path d="M6.22461 62.2944C6.24579 62.2832 6.27752 62.2884 6.30544 62.322C6.27513 62.3445 6.25299 62.3313 6.22461 62.2944Z" fill="#4A281E"/>
<path d="M6.32422 62.3803C6.34596 62.3679 6.38142 62.3764 6.42187 62.4144C6.39275 62.4389 6.36311 62.4247 6.32422 62.3803Z" fill="#4A281E"/>
<path d="M6.43359 62.4608C6.45622 62.4496 6.49083 62.4632 6.53445 62.5045C6.51083 62.5167 6.4782 62.5011 6.43359 62.4608Z" fill="#4A281E"/>
<path d="M6.54492 62.5494C6.56589 62.5402 6.59841 62.5562 6.64204 62.5978C6.62092 62.6072 6.58869 62.5908 6.54492 62.5494Z" fill="#4A281E"/>
<path d="M11.0723 43.5625C11.0738 43.585 11.0495 43.6125 10.9963 43.6358C10.9937 43.6102 11.0201 43.5888 11.0723 43.5625Z" fill="#4A281E"/>
<path d="M9.34448 44.8711C9.35235 44.8945 9.33438 44.9273 9.28724 44.9647C9.27826 44.9397 9.29845 44.9101 9.34448 44.8711Z" fill="#4A281E"/>
<path d="M8.64521 45.5938C8.65267 45.6141 8.63485 45.6452 8.59152 45.6868C8.58397 45.6663 8.60196 45.6354 8.64521 45.5938Z" fill="#4A281E"/>
<path d="M8.3996 45.875C8.41234 45.896 8.40604 45.9307 8.3704 45.9688C8.34495 45.9399 8.35811 45.9121 8.3996 45.875Z" fill="#4A281E"/>
<path d="M8.01674 46.3906C8.02933 46.4125 8.01814 46.4478 7.97986 46.4936C7.96616 46.4708 7.97957 46.4374 8.01674 46.3906Z" fill="#4A281E"/>
<path d="M7.80838 46.6914C7.82258 46.7121 7.81465 46.7479 7.78048 46.7959C7.76491 46.7743 7.77557 46.7404 7.80838 46.6914Z" fill="#4A281E"/>
<path d="M7.38615 47.4062C7.40157 47.4233 7.40084 47.4583 7.37431 47.5056C7.34967 47.4854 7.35683 47.4541 7.38615 47.4062Z" fill="#4A281E"/>
<path d="M9.03669 45.1719C9.04548 45.1953 9.02878 45.2287 8.98305 45.2674C8.97309 45.2424 8.99215 45.2121 9.03669 45.1719Z" fill="#4A281E"/>
<path d="M4.45536 50.4297C4.46449 50.453 4.45415 50.4862 4.41454 50.5144C4.39463 50.4807 4.4115 50.4574 4.45536 50.4297Z" fill="#4A281E"/>
<path d="M9.13722 45.0703C9.14578 45.0939 9.12876 45.1272 9.08254 45.1652C9.07278 45.14 9.09222 45.1101 9.13722 45.0703Z" fill="#4A281E"/>
<path d="M4.35406 50.5312C4.36638 50.553 4.35847 50.5879 4.32108 50.6264C4.29583 50.5966 4.30991 50.5681 4.35406 50.5312Z" fill="#4A281E"/>
<path d="M4.27027 50.6406C4.28354 50.6622 4.27308 50.6975 4.23622 50.7443C4.22206 50.722 4.2343 50.6881 4.27027 50.6406Z" fill="#4A281E"/>
<path d="M9.23877 44.9688C9.24736 44.9923 9.23034 45.0256 9.18412 45.0638C9.17433 45.0386 9.19375 45.0086 9.23877 44.9688Z" fill="#4A281E"/>
<path d="M4.21484 52.5251C4.23681 52.5175 4.26806 52.5362 4.30778 52.5816C4.28555 52.5894 4.25483 52.5704 4.21484 52.5251Z" fill="#4A281E"/>
<path d="M53.8025 52.7969C53.8058 52.8195 53.7819 52.8423 53.7326 52.8669C53.73 52.8448 53.7527 52.8209 53.8025 52.7969Z" fill="#E76835"/>
<path d="M4.59258 53.2812C4.60142 53.302 4.585 53.3339 4.54333 53.377C4.5345 53.3563 4.55091 53.3243 4.59258 53.2812Z" fill="#4A281E"/>
<path d="M9.94501 44.3555C9.9497 44.3799 9.93111 44.411 9.88352 44.4358C9.86841 44.3986 9.89081 44.3761 9.94501 44.3555Z" fill="#4A281E"/>
<path d="M10.0589 44.2695C10.0636 44.2923 10.042 44.3225 9.99106 44.3544C9.98539 44.3296 10.0089 44.3033 10.0589 44.2695Z" fill="#4A281E"/>
<path d="M10.3453 44.0469C10.3489 44.0716 10.3317 44.1014 10.2882 44.1197C10.2768 44.0827 10.2977 44.064 10.3453 44.0469Z" fill="#4A281E"/>
<path d="M4.625 60.4143C4.6476 60.4116 4.67466 60.4359 4.70209 60.4887C4.67812 60.4919 4.65379 60.4666 4.625 60.4143Z" fill="#4A281E"/>
<path d="M4.82617 60.7192C4.84886 60.7152 4.8776 60.7383 4.90867 60.7902C4.88474 60.7947 4.85849 60.7705 4.82617 60.7192Z" fill="#4A281E"/>
<path d="M4.9082 60.8321C4.93224 60.8303 4.96098 60.8505 4.97873 60.8974C4.94121 60.9072 4.92294 60.8839 4.9082 60.8321Z" fill="#4A281E"/>
<path d="M5.31055 61.3486C5.33521 61.3433 5.36671 61.3603 5.39085 61.406C5.35415 61.421 5.33211 61.3997 5.31055 61.3486Z" fill="#4A281E"/>
<path d="M8.74323 45.4883C8.75121 45.5097 8.73365 45.5416 8.68946 45.5829C8.68112 45.5612 8.69941 45.53 8.74323 45.4883Z" fill="#4A281E"/>
<path d="M78.0331 26.3598C77.9894 26.3237 77.9696 26.2733 77.9531 26.1953C77.99 26.227 78.0234 26.2863 78.0331 26.3598Z" fill="#FEFEFE"/>
<path d="M61.2486 82.6322C60.9738 82.6143 60.7319 82.58 60.4473 82.545C60.7162 81.8306 61.3466 81.5871 62.0393 81.4311C62.2511 81.3834 62.4592 81.3186 62.705 81.2474C63.4027 81.0515 64.082 80.9175 64.7226 80.6794C66.7054 79.9424 68.675 79.1695 70.6438 78.3955C70.7667 78.3472 70.8983 78.1804 70.9227 78.0495C70.9899 77.6891 71.0155 77.3193 71.0338 76.952C71.1075 75.4776 71.1643 74.0023 71.2421 72.5281C71.3347 70.7707 71.4399 69.0139 71.5464 67.2572C71.5616 67.0076 71.579 66.7471 71.664 66.5169C71.7164 66.3746 71.8985 66.2801 72.0224 66.1641C72.1318 66.2963 72.3065 66.4154 72.3363 66.5637C72.3885 66.8229 72.365 67.1009 72.3501 67.3697C72.2522 69.1437 72.1483 70.9174 72.0461 72.6912C71.9796 73.8457 71.9129 75.0002 71.8464 76.1547C71.8126 76.7403 71.7839 77.3263 71.7434 77.9115C71.7241 78.1908 71.8316 78.2804 72.1165 78.3029C73.1331 78.3833 74.1475 78.493 75.1614 78.6042C75.4351 78.6342 75.734 78.7053 75.6747 79.0797C75.6097 79.4896 75.3049 79.4189 75.0072 79.3698C74.2159 79.2393 73.4227 79.1192 72.6287 79.0054C71.3835 78.8268 70.3015 79.363 69.1808 79.7727C66.9431 80.5909 64.6881 81.3616 62.4422 82.1575C62.0504 82.2963 61.6682 82.4624 61.2486 82.6322Z" fill="#D55D32"/>
<path d="M65.6475 61.8724C64.3022 63.4165 62.9049 64.8755 61.6777 66.4659C58.8722 70.102 56.1488 73.8015 53.3964 77.4786C53.2362 77.6927 53.1573 77.9853 52.9633 78.1511C52.8085 78.2834 52.5061 78.3712 52.3225 78.3124C52.0277 78.2179 52.0959 77.9373 52.2444 77.7252C52.9851 76.6676 53.7244 75.6087 54.4803 74.5619C55.7368 72.8218 56.9884 71.0777 58.2747 69.3597C59.2286 68.0858 60.1865 66.8093 61.228 65.6079C62.844 63.7437 64.5284 61.9386 66.1949 60.1186C66.4654 59.8232 66.7713 59.547 67.1042 59.3279C67.2594 59.2258 67.5782 59.1919 67.7172 59.2849C67.9726 59.4559 67.887 59.735 67.6811 59.9332C67.112 60.4809 66.5332 61.0186 65.9592 61.5614C65.8613 61.654 65.7682 61.7517 65.6475 61.8724Z" fill="#E89418"/>
<path d="M62.8166 72.9088C61.7836 74.6826 60.7792 76.4308 59.761 78.171C59.3115 78.9392 58.834 79.6909 58.3696 80.4504C58.2027 80.7232 57.9615 80.8249 57.6864 80.6576C57.3816 80.4722 57.4754 80.2432 57.6365 79.9721C59.4295 76.9549 61.2256 73.9394 62.9854 70.9028C64.2494 68.7218 65.4589 66.5092 66.6961 64.3125C66.7864 64.1522 66.8794 63.9782 67.0158 63.8636C67.1372 63.7615 67.3205 63.7329 67.4764 63.6719C67.5303 63.861 67.6843 64.0978 67.6208 64.2311C67.3324 64.8368 66.9823 65.413 66.6553 66.0004C65.8295 67.4837 65.0032 68.9668 64.1792 70.4511C63.7305 71.2595 63.286 72.0702 62.8166 72.9088Z" fill="#E89418"/>
<path d="M44.8213 71.3705C44.8225 70.6994 44.7365 69.9736 44.8584 69.2845C45.1256 67.7736 45.4351 66.2635 45.8501 64.7876C46.1202 63.8274 46.5995 62.9248 47.0013 62.0035C47.0969 61.7841 47.25 61.4464 47.5341 61.6813C47.6841 61.8052 47.7389 62.2121 47.6568 62.4203C47.264 63.4173 46.7124 64.3604 46.4026 65.379C46.0447 66.5559 45.8806 67.7918 45.6339 69.0475C45.3665 69.8395 45.0975 70.5859 44.8213 71.3705Z" fill="#D55D32"/>
<path d="M54.4598 45.2995C53.2697 44.9336 52.3777 44.2808 51.9315 43.1191C51.8954 43.0252 51.8671 42.9275 51.844 42.8295C51.6143 41.8555 51.818 41.6492 52.7692 41.8392C54.6363 42.2122 56.4744 42.2514 58.2283 41.3362C58.6859 41.0975 58.9671 41.2878 58.996 41.8092C59.0916 43.538 57.4924 45.2906 55.7027 45.3888C55.3049 45.4106 54.9019 45.3367 54.4598 45.2995Z" fill="#4A281E"/>
<path d="M51.7031 38.4499C52.2905 36.7268 52.8677 35.0452 53.4755 33.3747C53.5361 33.2082 53.773 33.0291 53.9464 33.0083C54.0549 32.9953 54.2417 33.25 54.3097 33.4184C54.3555 33.5319 54.2676 33.7086 54.2186 33.8497C53.739 35.2304 53.2549 36.6096 52.7725 37.9893C52.7447 38.0687 52.7201 38.1491 52.6955 38.2295C52.4272 39.1053 52.8091 39.5692 53.7246 39.4742C54.1403 39.4311 54.555 39.3436 54.97 39.3442C55.1433 39.3444 55.3164 39.5214 55.4896 39.618C55.3832 39.8018 55.31 40.1107 55.1651 40.1491C54.2489 40.3916 53.314 40.5218 52.4126 40.0823C51.7452 39.7568 51.6523 39.1523 51.7031 38.4499Z" fill="#A15A36"/>
<path d="M58.6646 29.7804C58.4118 29.8434 58.2002 29.9457 57.9902 29.9427C57.7489 29.9393 57.3734 29.9118 57.3009 29.7699C57.1988 29.5696 57.2217 29.139 57.3685 29.0126C57.6851 28.7399 58.0972 28.4862 58.5012 28.4232C59.8614 28.2111 61.0303 28.6489 61.9438 29.6914C62.0895 29.8577 62.2184 30.1008 62.2216 30.3103C62.2242 30.4832 62.0652 30.7437 61.9113 30.8093C61.7611 30.8733 61.4759 30.7994 61.3379 30.6823C60.7434 30.1779 60.0987 29.8097 59.3067 29.7569C59.1079 29.7436 58.9066 29.7668 58.6646 29.7804Z" fill="#4A281E"/>
<path d="M59.897 34.7778C59.7535 35.2606 59.6838 35.7449 59.4484 36.1272C59.1027 36.6886 58.4621 36.7032 57.9751 36.2535C57.2738 35.6059 57.1908 34.2569 57.8074 33.5263C58.2959 32.9474 59.1796 32.9803 59.5635 33.6412C59.7497 33.9617 59.7902 34.3669 59.897 34.7778Z" fill="#502C20"/>
<path d="M50.6642 35.0168C50.4493 35.523 50.1901 35.9588 49.6055 35.9286C48.9926 35.897 48.5789 35.4959 48.4824 34.9312C48.3893 34.3871 48.3473 33.7711 48.5115 33.2601C48.7963 32.3738 49.8339 32.2938 50.3858 33.0551C50.811 33.6416 50.8769 34.2927 50.6642 35.0168Z" fill="#502C20"/>
<path d="M56.0639 26.5685C56.0212 27.373 55.5856 27.881 54.8995 27.97C54.3098 28.0465 53.6385 27.6036 53.4589 27.0196C53.2806 26.4399 53.554 25.7262 54.0623 25.4446C54.6865 25.0989 55.3932 25.2142 55.8172 25.7869C55.9639 25.9852 55.9852 26.2764 56.0639 26.5685Z" fill="#F5A418"/>
<path d="M47.8872 29.9333C47.679 29.9475 47.4347 30.007 47.3354 29.9132C47.2236 29.8075 47.1679 29.5367 47.2221 29.3862C47.3034 29.1606 47.4718 28.9429 47.6557 28.7819C48.505 28.0379 50.0238 27.8676 51.0388 28.3817C51.1583 28.4423 51.2767 28.5128 51.379 28.5986C51.6258 28.8055 51.8168 29.0618 51.639 29.3873C51.4411 29.7497 51.1424 29.6169 50.8473 29.4913C49.7884 29.0408 48.8093 29.1896 47.8872 29.9333Z" fill="#4A281E"/>
<path d="M72.8791 39.6031C73.3987 40.3319 73.3257 41.0504 72.7121 41.5426C72.2438 41.9182 71.4404 41.8438 71.0191 41.386C70.6482 40.9829 70.6086 40.242 70.9312 39.7459C71.2038 39.3268 71.771 39.1476 72.3096 39.3272C72.4971 39.3897 72.6714 39.4918 72.8791 39.6031Z" fill="#F5A418"/>
<path d="M71.9073 35.6914C72.5142 34.9853 73.3028 34.9274 74.1003 35.0007C74.2667 35.016 74.4062 35.3244 74.5581 35.4978C74.3542 35.606 74.1608 35.7657 73.9438 35.8099C73.6337 35.873 73.3063 35.8516 72.9135 35.8696C72.9964 36.0725 73.0212 36.166 73.0692 36.2454C73.6193 37.1575 73.5881 38.0311 72.9194 38.857C72.8116 38.9902 72.5364 38.9879 72.3386 39.0483C72.3154 38.8579 72.2453 38.6585 72.2798 38.4792C72.3356 38.1894 72.5364 37.912 72.5338 37.6307C72.5314 37.3642 72.4141 37.0283 72.2266 36.8493C71.878 36.5163 71.7612 36.1725 71.9073 35.6914Z" fill="#A15A36"/>
<path d="M23.2473 64.0426C23.1161 63.5298 22.9208 63.0229 22.8721 62.5024C22.8258 62.0068 23.1073 61.8159 23.6109 61.8646C24.3975 61.9405 25.1924 62.1339 25.9679 62.0736C26.9797 61.9949 27.9827 61.746 28.9764 61.5143C29.5883 61.3716 29.7613 61.4285 29.8982 62.0441C30.1991 63.3964 29.1977 65.2945 27.8571 65.8048C27.4707 64.8296 26.7932 64.1953 25.831 64.0557C24.9869 63.9333 24.1098 64.0381 23.2473 64.0426Z" fill="#4A281E"/>
<path d="M23.2578 64.0783C24.1129 64.04 24.99 63.9352 25.8341 64.0576C26.7963 64.1972 27.4738 64.8315 27.8238 65.8039C27.097 66.3674 26.2912 66.3624 25.5022 66.0875C24.5036 65.7396 23.7531 65.0626 23.2578 64.0783Z" fill="#A1421F"/>
<path d="M22.7693 58.0299C22.75 58.4907 22.6058 58.8521 22.2024 59.0133C21.7756 59.1838 21.3615 59.0688 21.0245 58.7733C20.4295 58.2517 20.1452 57.5823 20.2322 56.791C20.3268 55.9308 21.2386 55.5723 21.9435 56.1203C22.5439 56.5871 22.7969 57.2296 22.7693 58.0299Z" fill="#502C20"/>
<path d="M27.8252 54.5495C28.2476 53.7314 28.9363 53.6145 29.5349 54.2514C30.1144 54.8682 30.2418 55.6138 29.9755 56.4013C29.7459 57.0803 28.966 57.2108 28.42 56.6588C27.8553 56.0878 27.6198 55.3942 27.8252 54.5495Z" fill="#502C20"/>
<path d="M18.8542 52.5235C19.3741 52.356 19.857 52.1509 20.3572 52.0917C20.5675 52.0668 20.8856 52.3001 21.0288 52.5044C21.2861 52.8713 21.0658 53.2655 20.613 53.2802C19.8345 53.3054 19.2945 53.6961 18.8352 54.2831C18.6252 54.5516 18.4467 54.9935 17.9609 54.7274C17.6154 54.5382 17.5719 54.1189 17.909 53.6091C18.165 53.2219 18.5157 52.8973 18.8542 52.5235Z" fill="#4A281E"/>
<path d="M27.546 57.2734C28.4142 57.564 28.9052 58.1638 28.9275 58.926C28.9529 59.7959 28.4904 60.6278 27.7797 60.891C27.5997 60.9576 27.3592 60.8605 27.1464 60.8386C27.2398 60.6503 27.3179 60.4523 27.4299 60.2758C27.6406 59.9438 27.9611 59.6527 28.0742 59.2936C28.3065 58.5563 27.7923 58.063 26.9067 58.0442C26.7065 58.04 26.5092 57.9043 26.3105 57.8291C26.4777 57.6631 26.6187 57.4424 26.8193 57.3465C27.0171 57.2521 27.2752 57.2841 27.546 57.2734Z" fill="#A15A36"/>
<path d="M26.9299 50.3594C27.5664 50.3661 28.1679 50.3371 28.7543 50.4178C28.9775 50.4485 29.198 50.7063 29.3565 50.9098C29.4304 51.0047 29.4079 51.2558 29.3296 51.3643C29.2573 51.4646 29.0208 51.5469 28.9103 51.5027C28.1416 51.196 27.4068 51.2461 26.6572 51.5758C26.5286 51.6324 26.2084 51.5337 26.1577 51.4234C26.076 51.2458 26.0597 50.9259 26.1695 50.798C26.3422 50.5968 26.6425 50.5053 26.9299 50.3594Z" fill="#4A281E"/>
<path d="M15.6812 81.2575C15.4888 82.2845 15.3044 83.2682 15.1185 84.2516C15.0318 84.7104 14.9713 85.1775 14.8376 85.6224C14.7924 85.7724 14.5554 85.9668 14.4103 85.9634C14.1041 85.9561 14.1544 85.7069 14.201 85.4714C14.499 83.9663 14.7835 82.4584 15.0746 80.9519C15.0903 80.8703 15.1065 80.7762 15.1565 80.7164C15.2704 80.5802 15.4056 80.4616 15.5321 80.3359C15.6111 80.4982 15.7199 80.6537 15.7587 80.825C15.7855 80.9433 15.7155 81.0836 15.6812 81.2575Z" fill="#F2A71C"/>
<path d="M31.122 82.5204C31.0508 82.7587 30.9518 82.9711 30.8456 83.2182C30.7957 83.2819 30.753 83.3109 30.6872 83.351C30.5591 83.0559 30.4139 82.7569 30.3562 82.442C30.1132 81.1142 29.8857 79.7832 29.6782 78.4494C29.6342 78.1658 29.4527 77.7911 29.874 77.6409C29.9126 77.6271 30.183 78.0739 30.2392 78.3301C30.5427 79.7142 30.8127 81.1057 31.122 82.5204Z" fill="#F2A71C"/>
<path d="M11.2924 60.9451C11.2843 60.9982 11.2327 61.0601 11.2097 61.0508C10.5102 60.7704 9.81781 60.8998 9.08008 61.0756C9.74905 60.6126 10.5021 60.7142 11.2924 60.9451Z" fill="#CC7344"/>
<path d="M11.9261 61.2572C11.8843 61.2656 11.8207 61.2502 11.7402 61.2058C11.7836 61.1957 11.844 61.2145 11.9261 61.2572Z" fill="#CC7344"/>
<path d="M12.4022 61.5726C12.3644 61.576 12.31 61.5556 12.2422 61.5083C12.281 61.504 12.3333 61.5264 12.4022 61.5726Z" fill="#CC7344"/>
<path d="M11.7141 61.1526C11.6699 61.1591 11.6096 61.1389 11.5371 61.0875C11.5827 61.0795 11.6403 61.1027 11.7141 61.1526Z" fill="#CC7344"/>
<path d="M12.7322 61.8677C12.7126 61.8725 12.6832 61.8519 12.6445 61.8054C12.6643 61.8004 12.6934 61.8213 12.7322 61.8677Z" fill="#CC7344"/>
<path d="M12.8328 61.9706C12.8118 61.9775 12.7829 61.9587 12.7441 61.9154C12.7644 61.9088 12.7946 61.9268 12.8328 61.9706Z" fill="#CC7344"/>
<path d="M12.955 62.0685C12.9363 62.0763 12.9007 62.0603 12.8516 62.0178C12.8713 62.0091 12.9048 62.0269 12.955 62.0685Z" fill="#CC7344"/>
<path d="M13.3507 62.4726C13.3321 62.4809 13.299 62.4646 13.252 62.424C13.2707 62.4157 13.3034 62.4319 13.3507 62.4726Z" fill="#CC7243"/>
<path d="M13.5348 62.6847C13.5169 62.6875 13.4884 62.6656 13.4512 62.6175C13.4696 62.6142 13.4969 62.6371 13.5348 62.6847Z" fill="#CC7243"/>
<path d="M12.2253 61.4612C12.2059 61.4677 12.1769 61.4494 12.1367 61.4074C12.1556 61.4013 12.1857 61.4189 12.2253 61.4612Z" fill="#CC7344"/>
<path d="M49.2444 85.2477C49.8003 85.0012 50.322 84.7699 50.8463 84.5446C51.1415 84.4178 51.4428 84.412 51.5692 84.7527C51.7045 85.1172 51.3866 85.1962 51.1292 85.2876C49.7428 85.7794 48.4529 86.4514 47.2695 87.3295C47.1609 87.4102 46.9847 87.3998 46.8398 87.4317C46.8566 87.2644 46.8112 87.0409 46.902 86.9405C47.1699 86.6442 47.4706 86.3666 47.7976 86.1373C48.2502 85.8201 48.7384 85.5536 49.2444 85.2477Z" fill="#A75C38"/>
<path d="M11.7982 63.8565C11.9172 64.0616 12.0408 64.2303 12.0974 64.4191C12.2119 64.8008 11.9774 65.1406 11.5836 65.133C11.1475 65.1246 10.9902 65.372 10.9106 65.731C10.8502 66.0029 10.7872 66.2997 10.4238 66.2431C10.0239 66.1809 10.0419 65.812 10.1176 65.5663C10.2555 65.1181 10.4899 64.6997 10.7063 64.2194C10.4948 64.0539 10.2265 64.1009 9.91228 64.2386C9.71693 64.3242 9.33203 64.3805 9.26817 64.2876C9.07474 64.0064 9.21988 63.7216 9.49637 63.5171C10.1626 63.0242 11.0592 63.1452 11.7982 63.8565Z" fill="#A15A36"/>
<path d="M13.8141 68.0781C13.7736 68.1226 13.6948 68.1651 13.582 68.2166C13.624 68.1758 13.7 68.126 13.8141 68.0781Z" fill="#CC7243"/>
<path d="M14.0257 67.9766C14.0089 68.0099 13.9602 68.0433 13.8809 68.0797C13.8981 68.0472 13.946 68.012 14.0257 67.9766Z" fill="#CC7243"/>
<path d="M14.1657 67.8828C14.1678 67.9053 14.1387 67.9334 14.0801 67.9699C14.0786 67.9482 14.1065 67.9184 14.1657 67.8828Z" fill="#CC7243"/>
<path d="M37.0875 65.8543C37.0268 65.8906 36.9685 65.899 36.9102 65.9074C36.9144 65.8791 36.9162 65.827 36.9233 65.8263C36.9782 65.8208 37.0342 65.8251 37.0875 65.8543Z" fill="#A75C38"/>
</g>
<defs>
<clipPath id="clip0_6575_47464">
<rect width="88" height="88" rx="44" fill="white"/>
</clipPath>
</defs>
</svg>
