<svg width="72" height="72" viewBox="0 0 72 72" fill="none" xmlns="http://www.w3.org/2000/svg">
<rect width="72" height="72" rx="36" fill="url(#paint0_linear_7189_25568)"/>
<g clip-path="url(#clip0_7189_25568)">
<path d="M25.501 34.4999H43.291L37.846 27.9599C37.5914 27.6536 37.4689 27.2587 37.5054 26.862C37.542 26.4654 37.7347 26.0995 38.041 25.8449C38.3473 25.5903 38.7422 25.4678 39.1389 25.5044C39.5355 25.541 39.9014 25.7336 40.156 26.0399L47.656 35.0399C47.7064 35.1115 47.7516 35.1867 47.791 35.2649C47.791 35.3399 47.791 35.3849 47.896 35.4599C47.964 35.6319 47.9996 35.815 48.001 35.9999C47.9996 36.1849 47.964 36.3679 47.896 36.5399C47.896 36.6149 47.896 36.6599 47.791 36.7349C47.7516 36.8131 47.7064 36.8883 47.656 36.9599L40.156 45.9599C40.0149 46.1292 39.8383 46.2654 39.6387 46.3588C39.4391 46.4521 39.2213 46.5003 39.001 46.4999C38.6505 46.5006 38.3108 46.3785 38.041 46.1549C37.8891 46.029 37.7635 45.8743 37.6715 45.6998C37.5795 45.5253 37.5228 45.3343 37.5047 45.1379C37.4866 44.9414 37.5074 44.7433 37.5659 44.5549C37.6245 44.3665 37.7197 44.1915 37.846 44.0399L43.291 37.4999H25.501C25.1032 37.4999 24.7216 37.3419 24.4403 37.0606C24.159 36.7793 24.001 36.3977 24.001 35.9999C24.001 35.6021 24.159 35.2206 24.4403 34.9393C24.7216 34.658 25.1032 34.4999 25.501 34.4999Z" fill="white"/>
</g>
<defs>
<linearGradient id="paint0_linear_7189_25568" x1="72" y1="72" x2="13.9143" y2="62.0579" gradientUnits="userSpaceOnUse">
<stop stop-color="#E15404"/>
<stop offset="1" stop-color="#FF9050"/>
</linearGradient>
<clipPath id="clip0_7189_25568">
<rect width="36" height="36" fill="white" transform="matrix(-1 0 0 1 54 18)"/>
</clipPath>
</defs>
</svg>
