<svg width="72" height="72" viewBox="0 0 72 72" fill="none" xmlns="http://www.w3.org/2000/svg">
<rect width="72" height="72" rx="36" fill="url(#paint0_linear_7533_28123)"/>
<g clip-path="url(#clip0_7533_28123)">
<path d="M25.5 34.5019H43.29L37.845 27.9619C37.5904 27.6556 37.4679 27.2606 37.5045 26.864C37.541 26.4674 37.7337 26.1015 38.04 25.8469C38.3463 25.5923 38.7412 25.4698 39.1379 25.5063C39.5345 25.5429 39.9004 25.7356 40.155 26.0419L47.655 35.0419C47.7055 35.1135 47.7506 35.1887 47.79 35.2669C47.79 35.3419 47.79 35.3869 47.895 35.4619C47.963 35.6339 47.9986 35.8169 48 36.0019C47.9986 36.1868 47.963 36.3699 47.895 36.5419C47.895 36.6169 47.895 36.6619 47.79 36.7369C47.7506 36.8151 47.7055 36.8903 47.655 36.9619L40.155 45.9619C40.014 46.1312 39.8374 46.2674 39.6377 46.3607C39.4381 46.454 39.2204 46.5022 39 46.5019C38.6495 46.5026 38.3099 46.3805 38.04 46.1569C37.8881 46.031 37.7626 45.8763 37.6705 45.7018C37.5785 45.5273 37.5218 45.3363 37.5037 45.1398C37.4856 44.9434 37.5064 44.7453 37.565 44.5569C37.6235 44.3685 37.7187 44.1935 37.845 44.0419L43.29 37.5019H25.5C25.1022 37.5019 24.7206 37.3438 24.4393 37.0625C24.158 36.7812 24 36.3997 24 36.0019C24 35.6041 24.158 35.2225 24.4393 34.9412C24.7206 34.6599 25.1022 34.5019 25.5 34.5019Z" fill="white"/>
</g>
<defs>
<linearGradient id="paint0_linear_7533_28123" x1="72" y1="72" x2="13.9143" y2="62.0579" gradientUnits="userSpaceOnUse">
<stop stop-color="#E15404"/>
<stop offset="1" stop-color="#FF9050"/>
</linearGradient>
<clipPath id="clip0_7533_28123">
<rect width="36" height="36" fill="white" transform="matrix(-1 0 0 1 54 18)"/>
</clipPath>
</defs>
</svg>
