<svg width="379" height="379" viewBox="0 0 379 379" fill="none" xmlns="http://www.w3.org/2000/svg">
<path d="M189.5 379C294.158 379 379 294.158 379 189.5C379 84.842 294.158 0 189.5 0C84.8421 0 0 84.842 0 189.5C0 294.158 84.8421 379 189.5 379Z" fill="#FF7F36"/>
<path d="M190.209 375.516C293.334 375.516 376.933 291.916 376.933 188.791C376.933 85.6658 293.334 2.06641 190.209 2.06641C87.0837 2.06641 3.48438 85.6658 3.48438 188.791C3.48438 291.916 87.0837 375.516 190.209 375.516Z" fill="#FEB992"/>
<path d="M200.143 350.63C295.012 350.63 371.919 273.723 371.919 178.854C371.919 83.9847 295.012 7.07812 200.143 7.07812C105.274 7.07812 28.3672 83.9847 28.3672 178.854C28.3672 273.723 105.274 350.63 200.143 350.63Z" fill="#FEE4D5"/>
<path d="M318.765 113.559C316.095 122.226 303.645 121.345 293.499 118.219C283.352 115.094 278.723 108.569 281.392 99.9021C284.062 91.2356 294.451 86.7433 304.597 89.8687C314.743 92.9946 321.434 104.893 318.765 113.559Z" fill="#FEFFFD"/>
<path d="M339.14 127.584C340.638 122.719 337.236 117.353 331.54 115.598C325.845 113.844 320.013 116.366 318.514 121.23C317.016 126.095 320.418 131.461 326.113 133.216C331.809 134.97 337.641 132.449 339.14 127.584Z" fill="#FEFFFD"/>
<path d="M321.213 146.19C318.443 148.248 314.243 147.288 311.833 144.044C309.423 140.801 311.032 135.785 313.802 133.727C316.573 131.668 319.456 133.346 321.867 136.59C324.276 139.833 323.984 144.131 321.213 146.19Z" fill="#FEFFFD"/>
</svg>
