<svg width="101" height="79" viewBox="0 0 101 79" fill="none" xmlns="http://www.w3.org/2000/svg">
<path d="M33.18 20.8816C30.9313 20.8816 29.1249 19.0752 29.1249 16.8265C29.1249 12.2553 25.4016 8.53203 20.8304 8.53203C16.2592 8.53203 12.5359 12.2553 12.5359 16.8265C12.5359 19.0752 10.7296 20.8816 8.48086 20.8816C6.23213 20.8816 4.42578 19.0752 4.42578 16.8265C4.42578 7.79475 11.7987 0.421875 20.8304 0.421875C29.8622 0.421875 37.2351 7.79475 37.2351 16.8265C37.2351 19.0752 35.4287 20.8816 33.18 20.8816Z" fill="#FEB992"/>
<path d="M91.7933 20.8816C89.5445 20.8816 87.7382 19.0752 87.7382 16.8265C87.7382 12.2553 84.0149 8.53203 79.4437 8.53203C74.8725 8.53203 71.1492 12.2553 71.1492 16.8265C71.1492 19.0752 69.3429 20.8816 67.0941 20.8816C64.8454 20.8816 63.0391 19.0752 63.0391 16.8265C63.0391 7.79475 70.4119 0.421875 79.4437 0.421875C88.4755 0.421875 95.8483 7.79475 95.8483 16.8265C95.8483 19.0752 94.042 20.8816 91.7933 20.8816Z" fill="#FEB992"/>
<path d="M50.3213 78.7576C40.1836 78.7576 30.1934 76.5088 21.4565 72.2326C12.904 68.0669 5.75229 62.058 0.738734 54.9063C-0.551519 53.0631 -0.109147 50.5563 1.73407 49.2661C3.57729 47.9758 6.08406 48.4182 7.37432 50.2614C16.148 62.8322 32.6264 70.6474 50.3213 70.6474C68.0162 70.6474 84.4945 62.8322 93.2683 50.2614C94.5585 48.4182 97.0653 47.9758 98.9085 49.2661C100.752 50.5563 101.194 53.0631 99.9039 54.9063C94.8903 62.058 87.7386 68.0669 79.1861 72.2326C70.4492 76.5088 60.459 78.7576 50.3213 78.7576Z" fill="#FEB992"/>
</svg>
