<svg width="620" height="112" viewBox="0 0 620 112" fill="none" xmlns="http://www.w3.org/2000/svg">
<path d="M24.1298 86.2709C26.8082 86.2709 28.9794 75.8485 28.9794 62.9919C28.9794 50.1353 26.8082 39.7129 24.1298 39.7129C21.4515 39.7129 19.2803 50.1353 19.2803 62.9919C19.2803 75.8485 21.4515 86.2709 24.1298 86.2709Z" fill="#1A1A1A"/>
<path d="M24.1313 86.4917C20.9586 86.4917 19.0625 74.5445 19.0625 62.9939C19.0625 51.4433 20.9586 39.4961 24.1313 39.4961C27.304 39.4961 29.1996 51.4433 29.1996 62.9939C29.2001 74.5445 27.304 86.4917 24.1313 86.4917ZM24.1313 39.9341C21.8948 39.9341 19.5005 49.2001 19.5005 62.9939C19.5005 76.7877 21.8948 86.0537 24.1313 86.0537C26.3678 86.0537 28.762 76.7877 28.762 62.9939C28.762 49.2001 26.3678 39.9341 24.1313 39.9341Z" fill="#333F61"/>
<path d="M152.497 32.5918H152.196V93.5162H156.087V36.1821C156.087 34.1991 154.48 32.5918 152.497 32.5918Z" fill="#1A1A1A"/>
<path d="M156.151 93.579H152.131V32.5254H152.195C154.376 32.5254 156.151 34.2998 156.151 36.4806V93.579ZM152.26 93.4498H156.021V36.4806C156.021 34.3925 154.34 32.6898 152.26 32.6555V93.4498Z" fill="#333F61"/>
<path d="M156.37 93.7963H151.913V32.3047H152.196C154.498 32.3047 156.37 34.1771 156.37 36.4787V93.7963ZM152.48 93.2291H155.804V36.4787C155.804 34.5973 154.332 33.0292 152.48 32.8831V93.2291Z" fill="#333F61"/>
<path d="M152.196 39.7129H24.1318V86.2705H152.196V39.7129Z" fill="#FF4B4B"/>
<path d="M152.562 86.6366H23.7686V39.3496H152.562V86.6366ZM24.498 85.9072H151.832V40.0791H24.498V85.9072Z" fill="#333F61"/>
<path d="M81.8564 5.57227H161.521L152.199 39.7147H90.3368L81.8564 5.57227Z" fill="#1A1A1A"/>
<path d="M152.366 39.9336H90.1653L81.5762 5.35352H161.808L152.366 39.9336ZM90.5075 39.4956H152.032L161.234 5.79111H82.1358L90.5075 39.4956Z" fill="#333F61"/>
<path d="M156.088 9.71094H87.5879L94.1406 37.1283H149.105L156.088 9.71094Z" fill="#1CB0F6"/>
<path d="M149.153 37.1931H94.0883L87.5049 9.64648H156.17L156.149 9.72714L149.153 37.1931ZM94.1899 37.0638H149.053L156.003 9.7757H87.6684L94.1899 37.0638Z" fill="#333F61"/>
<path d="M77.3387 0.220703H163.135C164.499 0.220703 165.605 1.32625 165.605 2.69026V3.10379C165.605 4.46779 164.499 5.57334 163.135 5.57334H77.3387C75.9747 5.57334 74.8691 4.46779 74.8691 3.10379V2.69026C74.8691 1.32625 75.9751 0.220703 77.3387 0.220703Z" fill="#FF4B4B"/>
<path d="M163.214 5.79067H77.2626C75.8229 5.79067 74.6514 4.61916 74.6514 3.1794V2.61126C74.6514 1.1715 75.8229 0 77.2626 0H163.214C164.653 0 165.825 1.1715 165.825 2.61126V3.1794C165.825 4.61961 164.653 5.79067 163.214 5.79067ZM77.2626 0.438469C76.0644 0.438469 75.0894 1.41347 75.0894 2.61171V3.17985C75.0894 4.37809 76.0644 5.35308 77.2626 5.35308H163.214C164.412 5.35308 165.387 4.37809 165.387 3.17985V2.61171C165.387 1.41347 164.412 0.438469 163.214 0.438469H77.2626Z" fill="#333F61"/>
<path d="M123.236 9.71094H119.356V37.1283H123.236V9.71094Z" fill="#1A1A1A"/>
<path d="M60.6075 12.0117H39.4482V39.7161H60.6075V12.0117Z" fill="#1A1A1A"/>
<path d="M61.1423 8.13086H37.9106C36.9218 8.13086 36.1201 8.93251 36.1201 9.92131V10.2208C36.1201 11.2096 36.9218 12.0112 37.9106 12.0112H61.1423C62.1311 12.0112 62.9328 11.2096 62.9328 10.2208V9.92131C62.9323 8.93251 62.1307 8.13086 61.1423 8.13086Z" fill="#FF4B4B"/>
<path d="M61.1991 12.2281H37.8554C36.7784 12.2281 35.9023 11.352 35.9023 10.275V9.86325C35.9023 8.78622 36.7784 7.91016 37.8554 7.91016H61.1995C62.2765 7.91016 63.1526 8.78622 63.1526 9.86325V10.275C63.1522 11.352 62.2761 12.2281 61.1991 12.2281ZM37.8554 8.34774C37.0199 8.34774 36.3399 9.02774 36.3399 9.86325V10.275C36.3399 11.1105 37.0199 11.7901 37.8554 11.7901H61.1995C62.035 11.7901 62.7146 11.1105 62.7146 10.275V9.86325C62.7146 9.02774 62.035 8.34774 61.1995 8.34774H37.8554Z" fill="#333F61"/>
<path d="M152.196 86.2715H24.1318V93.5139H152.196V86.2715Z" fill="#1A1A1A"/>
<path d="M152.412 93.7347H23.9111V86.0547H152.412V93.7347ZM24.3492 93.2972H151.975V86.4927H24.3492V93.2972Z" fill="#333F61"/>
<path d="M152.259 93.5787H24.0664V86.207H152.259V93.5787ZM24.1956 93.4495H152.13V86.3367H24.1956V93.4495Z" fill="#333F61"/>
<path d="M83.5674 107.99C91.562 107.99 98.0429 101.509 98.0429 93.5146C98.0429 85.52 91.562 79.0391 83.5674 79.0391C75.5727 79.0391 69.0918 85.52 69.0918 93.5146C69.0918 101.509 75.5727 107.99 83.5674 107.99Z" fill="#1A1A1A"/>
<path d="M83.5684 108.209C75.4659 108.209 68.874 101.617 68.874 93.5147C68.874 85.4122 75.4659 78.8203 83.5684 78.8203C91.6709 78.8203 98.2627 85.4122 98.2627 93.5147C98.2627 101.617 91.6709 108.209 83.5684 108.209ZM83.5684 79.2575C75.7074 79.2575 69.3116 85.6528 69.3116 93.5143C69.3116 101.375 75.707 107.771 83.5684 107.771C91.4294 107.771 97.8252 101.376 97.8252 93.5143C97.8252 85.6533 91.4294 79.2575 83.5684 79.2575Z" fill="#333F61"/>
<path d="M90.4892 100.437C94.3126 96.6131 94.3126 90.4142 90.4892 86.5908C86.6658 82.7675 80.4669 82.7675 76.6435 86.5908C72.8202 90.4142 72.8202 96.6131 76.6435 100.437C80.4669 104.26 86.6658 104.26 90.4892 100.437Z" fill="#FF7F36"/>
<path d="M87.2299 97.1769C89.2531 95.1538 89.2531 91.8736 87.2299 89.8505C85.2068 87.8273 81.9266 87.8273 79.9035 89.8505C77.8803 91.8736 77.8803 95.1538 79.9035 97.1769C81.9266 99.2001 85.2068 99.2001 87.2299 97.1769Z" fill="white"/>
<path d="M83.5704 98.7561C80.6784 98.7561 78.3252 96.4033 78.3252 93.5109C78.3252 90.6189 80.678 88.2656 83.5704 88.2656C86.4629 88.2656 88.8157 90.6184 88.8157 93.5109C88.8157 96.4033 86.4629 98.7561 83.5704 98.7561ZM83.5704 88.3953C80.7497 88.3953 78.4549 90.6902 78.4549 93.5113C78.4549 96.3325 80.7497 98.6273 83.5704 98.6273C86.3911 98.6273 88.6865 96.3325 88.6865 93.5113C88.6865 90.6902 86.3911 88.3953 83.5704 88.3953Z" fill="#333F61"/>
<path d="M50.0518 107.99C58.0464 107.99 64.5273 101.509 64.5273 93.5146C64.5273 85.52 58.0464 79.0391 50.0518 79.0391C42.0571 79.0391 35.5762 85.52 35.5762 93.5146C35.5762 101.509 42.0571 107.99 50.0518 107.99Z" fill="#1A1A1A"/>
<path d="M50.0528 108.209C41.9503 108.209 35.3584 101.617 35.3584 93.5147C35.3584 85.4122 41.9503 78.8203 50.0528 78.8203C58.1553 78.8203 64.7471 85.4122 64.7471 93.5147C64.7471 101.617 58.1553 108.209 50.0528 108.209ZM50.0528 79.2575C42.1918 79.2575 35.796 85.6528 35.796 93.5143C35.796 101.375 42.1914 107.771 50.0528 107.771C57.9142 107.771 64.3095 101.376 64.3095 93.5143C64.3095 85.6533 57.9137 79.2575 50.0528 79.2575Z" fill="#333F61"/>
<path d="M53.8105 102.561C58.8061 100.491 61.1784 94.7642 59.1091 89.7686C57.0398 84.773 51.3125 82.4007 46.3169 84.47C41.3213 86.5393 38.949 92.2666 41.0183 97.2622C43.0876 102.258 48.8149 104.63 53.8105 102.561Z" fill="#FF7F36"/>
<path d="M52.0466 98.305C54.69 97.21 55.9453 94.1794 54.8503 91.536C53.7554 88.8925 50.7248 87.6372 48.0813 88.7322C45.4379 89.8272 44.1826 92.8578 45.2776 95.5013C46.3725 98.1447 49.4031 99.4 52.0466 98.305Z" fill="white"/>
<path d="M50.0548 98.762C47.1628 98.762 44.8096 96.4092 44.8096 93.5167C44.8096 90.6247 47.1624 88.2715 50.0548 88.2715C52.9473 88.2715 55.3001 90.6243 55.3001 93.5167C55.3001 96.4092 52.9468 98.762 50.0548 98.762ZM50.0548 88.4012C47.2341 88.4012 44.9392 90.696 44.9392 93.5172C44.9392 96.3383 47.2341 98.6332 50.0548 98.6332C52.8755 98.6332 55.1709 96.3383 55.1709 93.5172C55.1704 90.696 52.8755 88.4012 50.0548 88.4012Z" fill="#333F61"/>
<path d="M127.695 107.989C140.906 107.989 151.616 97.2789 151.616 84.0676C151.616 70.8564 140.906 60.1465 127.695 60.1465C114.483 60.1465 103.773 70.8564 103.773 84.0676C103.773 97.2789 114.483 107.989 127.695 107.989Z" fill="#1A1A1A"/>
<path d="M127.696 108.21C114.385 108.21 103.556 97.3804 103.556 84.0696C103.556 70.7589 114.385 59.9297 127.696 59.9297C141.006 59.9297 151.836 70.7589 151.836 84.0696C151.836 97.3804 141.006 108.21 127.696 108.21ZM127.696 60.3673C114.626 60.3673 103.994 70.9999 103.994 84.0692C103.994 97.1384 114.626 107.771 127.696 107.771C140.765 107.771 151.397 97.1384 151.397 84.0692C151.397 70.9999 140.765 60.3673 127.696 60.3673Z" fill="#333F61"/>
<path d="M127.695 100.247C136.63 100.247 143.873 93.0039 143.873 84.0689C143.873 75.1339 136.63 67.8906 127.695 67.8906C118.76 67.8906 111.517 75.1339 111.517 84.0689C111.517 93.0039 118.76 100.247 127.695 100.247Z" fill="#FF7F36"/>
<path d="M127.697 92.629C132.425 92.629 136.258 88.7963 136.258 84.0684C136.258 79.3405 132.425 75.5078 127.697 75.5078C122.969 75.5078 119.137 79.3405 119.137 84.0684C119.137 88.7963 122.969 92.629 127.697 92.629Z" fill="white"/>
<path d="M127.697 92.6961C122.941 92.6961 119.071 88.8269 119.071 84.071C119.071 79.315 122.941 75.4453 127.697 75.4453C132.453 75.4453 136.323 79.3146 136.323 84.071C136.322 88.8269 132.453 92.6961 127.697 92.6961ZM127.697 75.5746C123.012 75.5746 119.201 79.3858 119.201 84.0705C119.201 88.7552 123.012 92.5665 127.697 92.5665C132.382 92.5665 136.193 88.7552 136.193 84.0705C136.193 79.3863 132.382 75.5746 127.697 75.5746Z" fill="#333F61"/>
<path d="M28.9818 86.2715V93.5135L21.8453 104.636H0.635742L24.1322 86.2715H28.9818Z" fill="#FFCC00"/>
<path d="M60.6075 22.0625H39.4482V23.2264H60.6075V22.0625Z" fill="#ED1C24"/>
<path d="M60.6075 24.6992H39.4482V25.8631H60.6075V24.6992Z" fill="#ED1C24"/>
<path d="M60.6075 19.5391H39.4482V20.703H60.6075V19.5391Z" fill="#ED1C24"/>
<path d="M95.0889 25.2954L95.0885 25.295C94.7217 25.1671 94.5457 24.7442 94.7226 24.3984C97.6276 18.724 111.955 12.8861 115.159 11.638C115.494 11.5074 115.871 11.6759 115.997 12.0132L115.999 12.0172C116.122 12.3474 115.959 12.715 115.631 12.8438C114.218 13.3972 110.482 14.911 106.621 16.8841C100.728 19.8964 97.0358 22.681 95.8754 24.9795C95.7297 25.2678 95.3933 25.4015 95.0889 25.2954Z" fill="white"/>
<path d="M99.3247 25.88C98.9441 25.7454 98.7828 25.3011 98.9802 24.9491C100.117 22.9238 103.143 20.6655 107.994 18.2236C111.008 16.7067 113.928 15.5307 115.16 15.0517C115.497 14.9212 115.874 15.0918 115.998 15.4305C116.121 15.7616 115.955 16.1292 115.625 16.2553C111.364 17.8898 102.046 22.0589 100.103 25.585C99.9508 25.8608 99.6215 25.9852 99.3247 25.88Z" fill="white"/>
<path d="M132.141 26.1183H132.141C131.76 25.9837 131.599 25.5394 131.797 25.1874C132.934 23.1621 135.96 20.9033 140.811 18.4618C143.825 16.945 146.744 15.769 147.977 15.29C148.313 15.1594 148.69 15.3301 148.815 15.6688C148.937 15.9999 148.771 16.3675 148.442 16.4936C144.18 18.1281 134.863 22.2972 132.92 25.8233C132.767 26.0996 132.438 26.2234 132.141 26.1183Z" fill="white"/>
<path d="M174.402 83.7246L175.684 92.5655H236.599L237.781 83.7246H174.402Z" fill="#1A1A1A"/>
<path d="M236.792 92.7828H175.495L174.15 83.5039L235.952 85.5544L236.792 92.7828ZM175.874 92.3452H236.409L235.952 85.3316L174.657 83.942L175.874 92.3452Z" fill="#333F61"/>
<path d="M190.674 107.99C198.668 107.99 205.149 101.509 205.149 93.5146C205.149 85.52 198.668 79.0391 190.674 79.0391C182.679 79.0391 176.198 85.52 176.198 93.5146C176.198 101.509 182.679 107.99 190.674 107.99Z" fill="#1A1A1A"/>
<path d="M190.674 108.209C182.571 108.209 175.979 101.617 175.979 93.5147C175.979 85.4122 182.571 78.8203 190.674 78.8203C198.776 78.8203 205.368 85.4122 205.368 93.5147C205.368 101.617 198.776 108.209 190.674 108.209ZM190.674 79.2575C182.813 79.2575 176.417 85.6528 176.417 93.5143C176.417 101.375 182.812 107.771 190.674 107.771C198.535 107.771 204.931 101.376 204.931 93.5143C204.931 85.6533 198.535 79.2575 190.674 79.2575Z" fill="#333F61"/>
<path d="M194.436 102.561C199.431 100.491 201.803 94.7642 199.734 89.7686C197.665 84.7729 191.938 82.4007 186.942 84.47C181.946 86.5393 179.574 92.2666 181.643 97.2622C183.713 102.258 189.44 104.63 194.436 102.561Z" fill="#FF7F36"/>
<path d="M192.666 98.2991C195.309 97.2042 196.564 94.1736 195.469 91.5301C194.375 88.8867 191.344 87.6314 188.7 88.7263C186.057 89.8213 184.802 92.8519 185.897 95.4954C186.992 98.1388 190.022 99.3941 192.666 98.2991Z" fill="white"/>
<path d="M190.673 98.76C187.781 98.76 185.428 96.4072 185.428 93.5148C185.428 90.6228 187.781 88.2695 190.673 88.2695C193.565 88.2695 195.918 90.6223 195.918 93.5148C195.918 96.4072 193.565 98.76 190.673 98.76ZM190.673 88.3992C187.852 88.3992 185.557 90.6941 185.557 93.5152C185.557 96.3364 187.852 98.6313 190.673 98.6313C193.494 98.6313 195.789 96.3364 195.789 93.5152C195.789 90.6941 193.494 88.3992 190.673 88.3992Z" fill="#333F61"/>
<path d="M224.709 107.99C232.704 107.99 239.185 101.509 239.185 93.5146C239.185 85.52 232.704 79.0391 224.709 79.0391C216.714 79.0391 210.233 85.52 210.233 93.5146C210.233 101.509 216.714 107.99 224.709 107.99Z" fill="#1A1A1A"/>
<path d="M224.711 108.209C216.608 108.209 210.017 101.617 210.017 93.5147C210.017 85.4122 216.608 78.8203 224.711 78.8203C232.813 78.8203 239.405 85.4122 239.405 93.5147C239.405 101.617 232.813 108.209 224.711 108.209ZM224.711 79.2575C216.85 79.2575 210.454 85.6528 210.454 93.5143C210.454 101.375 216.85 107.771 224.711 107.771C232.572 107.771 238.968 101.376 238.968 93.5143C238.968 85.6533 232.572 79.2575 224.711 79.2575Z" fill="#333F61"/>
<path d="M231.632 100.437C235.455 96.6131 235.455 90.4142 231.632 86.5908C227.808 82.7675 221.609 82.7675 217.786 86.5908C213.963 90.4142 213.963 96.6131 217.786 100.437C221.609 104.26 227.808 104.26 231.632 100.437Z" fill="#FF7F36"/>
<path d="M228.369 97.1808C230.392 95.1577 230.392 91.8775 228.369 89.8544C226.345 87.8312 223.065 87.8312 221.042 89.8544C219.019 91.8775 219.019 95.1577 221.042 97.1808C223.065 99.204 226.345 99.204 228.369 97.1808Z" fill="white"/>
<path d="M224.71 98.76C221.818 98.76 219.465 96.4072 219.465 93.5148C219.465 90.6228 221.818 88.2695 224.71 88.2695C227.603 88.2695 229.955 90.6223 229.955 93.5148C229.955 96.4072 227.603 98.76 224.71 98.76ZM224.71 88.3992C221.889 88.3992 219.595 90.6941 219.595 93.5152C219.595 96.3364 221.889 98.6313 224.71 98.6313C227.531 98.6313 229.826 96.3364 229.826 93.5152C229.826 90.6941 227.531 88.3992 224.71 88.3992Z" fill="#333F61"/>
<path d="M174.653 83.9414L156.002 85.9057L155.802 89.8916L175.871 92.3447L174.653 83.9414Z" fill="#1A1A1A"/>
<path d="M176.131 92.5979L175.846 92.5631L155.575 90.0856L155.795 85.7088L174.841 83.7031L176.131 92.5979ZM156.033 89.7006L175.615 92.0939L174.469 84.1826L156.213 86.1054L156.033 89.7006Z" fill="#333F61"/>
<path d="M265.274 83.7246L266.556 92.5655H327.471L328.653 83.7246H265.274Z" fill="#1A1A1A"/>
<path d="M327.664 92.7828H266.367L265.022 83.5039H328.904L327.664 92.7828ZM266.746 92.3452H327.281L328.404 83.942H265.529L266.746 92.3452Z" fill="#333F61"/>
<path d="M314.454 107.99C322.449 107.99 328.93 101.509 328.93 93.5146C328.93 85.52 322.449 79.0391 314.454 79.0391C306.459 79.0391 299.979 85.52 299.979 93.5146C299.979 101.509 306.459 107.99 314.454 107.99Z" fill="#1A1A1A"/>
<path d="M314.456 108.209C306.354 108.209 299.762 101.617 299.762 93.5147C299.762 85.4122 306.354 78.8203 314.456 78.8203C322.559 78.8203 329.15 85.4122 329.15 93.5147C329.15 101.617 322.559 108.209 314.456 108.209ZM314.456 79.2575C306.595 79.2575 300.199 85.6528 300.199 93.5143C300.199 101.375 306.595 107.771 314.456 107.771C322.318 107.771 328.713 101.376 328.713 93.5143C328.713 85.6533 322.317 79.2575 314.456 79.2575Z" fill="#333F61"/>
<path d="M321.369 100.437C325.192 96.6131 325.192 90.4142 321.369 86.5909C317.546 82.7675 311.347 82.7675 307.523 86.5908C303.7 90.4142 303.7 96.6131 307.523 100.437C311.347 104.26 317.546 104.26 321.369 100.437Z" fill="#FF7F36"/>
<path d="M318.109 97.1788C320.132 95.1557 320.132 91.8755 318.109 89.8524C316.086 87.8293 312.806 87.8292 310.782 89.8524C308.759 91.8755 308.759 95.1557 310.782 97.1789C312.806 99.202 316.086 99.202 318.109 97.1788Z" fill="white"/>
<path d="M314.452 98.76C311.56 98.76 309.207 96.4072 309.207 93.5148C309.207 90.6228 311.56 88.2695 314.452 88.2695C317.345 88.2695 319.698 90.6223 319.698 93.5148C319.698 96.4072 317.344 98.76 314.452 98.76ZM314.452 88.3992C311.632 88.3992 309.337 90.6941 309.337 93.5152C309.337 96.3364 311.632 98.6313 314.452 98.6313C317.273 98.6313 319.568 96.3364 319.568 93.5152C319.568 90.6941 317.273 88.3992 314.452 88.3992Z" fill="#333F61"/>
<path d="M281.55 107.99C289.544 107.99 296.025 101.509 296.025 93.5146C296.025 85.52 289.544 79.0391 281.55 79.0391C273.555 79.0391 267.074 85.52 267.074 93.5146C267.074 101.509 273.555 107.99 281.55 107.99Z" fill="#1A1A1A"/>
<path d="M281.552 108.209C273.449 108.209 266.857 101.617 266.857 93.5147C266.857 85.4122 273.449 78.8203 281.552 78.8203C289.654 78.8203 296.246 85.4122 296.246 93.5147C296.246 101.617 289.654 108.209 281.552 108.209ZM281.552 79.2575C273.691 79.2575 267.295 85.6528 267.295 93.5143C267.295 101.375 273.69 107.771 281.552 107.771C289.413 107.771 295.809 101.376 295.809 93.5143C295.809 85.6533 289.413 79.2575 281.552 79.2575Z" fill="#333F61"/>
<path d="M285.309 102.557C290.304 100.488 292.676 94.7603 290.607 89.7647C288.538 84.769 282.811 82.3968 277.815 84.4661C272.819 86.5354 270.447 92.2627 272.516 97.2583C274.586 102.254 280.313 104.626 285.309 102.557Z" fill="#FF7F36"/>
<path d="M283.544 98.2991C286.187 97.2042 287.442 94.1736 286.347 91.5301C285.252 88.8867 282.222 87.6314 279.578 88.7264C276.935 89.8213 275.68 92.8519 276.775 95.4954C277.87 98.1388 280.9 99.3941 283.544 98.2991Z" fill="white"/>
<path d="M281.549 98.76C278.657 98.76 276.304 96.4072 276.304 93.5148C276.304 90.6228 278.657 88.2695 281.549 88.2695C284.441 88.2695 286.794 90.6223 286.794 93.5148C286.794 96.4072 284.441 98.76 281.549 98.76ZM281.549 88.3992C278.728 88.3992 276.433 90.6941 276.433 93.5152C276.433 96.3364 278.728 98.6313 281.549 98.6313C284.37 98.6313 286.665 96.3364 286.665 93.5152C286.665 90.6941 284.37 88.3992 281.549 88.3992Z" fill="#333F61"/>
<path d="M265.53 83.9414L236.288 85.9057L236.088 89.8916L266.747 92.3447L265.53 83.9414Z" fill="#1A1A1A"/>
<path d="M267.005 92.5979L266.72 92.5631L235.858 90.0856L236.079 85.7088L265.715 83.7031L267.005 92.5979ZM236.316 89.7006L266.489 92.0939L265.343 84.1826L236.497 86.1054L236.316 89.7006Z" fill="#333F61"/>
<path d="M357.617 83.7246L358.898 92.5655H419.814L420.996 83.7246H357.617Z" fill="#1A1A1A"/>
<path d="M420.003 92.7828H358.706L357.361 83.5039H421.243L420.003 92.7828ZM359.085 92.3452H419.62L420.743 83.942H357.867L359.085 92.3452Z" fill="#333F61"/>
<path d="M373.89 107.99C381.884 107.99 388.365 101.509 388.365 93.5146C388.365 85.52 381.884 79.0391 373.89 79.0391C365.895 79.0391 359.414 85.52 359.414 93.5146C359.414 101.509 365.895 107.99 373.89 107.99Z" fill="#1A1A1A"/>
<path d="M373.894 108.209C365.791 108.209 359.199 101.617 359.199 93.5147C359.199 85.4122 365.791 78.8203 373.894 78.8203C381.996 78.8203 388.588 85.4122 388.588 93.5147C388.588 101.617 381.996 108.209 373.894 108.209ZM373.894 79.2575C366.033 79.2575 359.637 85.6528 359.637 93.5143C359.637 101.375 366.032 107.771 373.894 107.771C381.755 107.771 388.15 101.376 388.15 93.5143C388.15 85.6533 381.755 79.2575 373.894 79.2575Z" fill="#333F61"/>
<path d="M380.806 100.438C384.629 96.6151 384.629 90.4162 380.806 86.5928C376.982 82.7694 370.783 82.7694 366.96 86.5928C363.137 90.4161 363.137 96.6151 366.96 100.438C370.783 104.262 376.982 104.262 380.806 100.438Z" fill="#FF7F36"/>
<path d="M377.546 97.1789C379.569 95.1557 379.569 91.8756 377.546 89.8524C375.523 87.8293 372.243 87.8293 370.22 89.8524C368.197 91.8755 368.197 95.1557 370.22 97.1789C372.243 99.202 375.523 99.202 377.546 97.1789Z" fill="white"/>
<path d="M373.89 98.76C370.998 98.76 368.645 96.4072 368.645 93.5148C368.645 90.6228 370.997 88.2695 373.89 88.2695C376.782 88.2695 379.135 90.6223 379.135 93.5148C379.135 96.4072 376.782 98.76 373.89 98.76ZM373.89 88.3992C371.069 88.3992 368.774 90.6941 368.774 93.5152C368.774 96.3364 371.069 98.6313 373.89 98.6313C376.71 98.6313 379.006 96.3364 379.006 93.5152C379.005 90.6941 376.71 88.3992 373.89 88.3992Z" fill="#333F61"/>
<path d="M408.358 107.99C416.353 107.99 422.834 101.509 422.834 93.5146C422.834 85.52 416.353 79.0391 408.358 79.0391C400.364 79.0391 393.883 85.52 393.883 93.5146C393.883 101.509 400.364 107.99 408.358 107.99Z" fill="#1A1A1A"/>
<path d="M408.36 108.209C400.258 108.209 393.666 101.617 393.666 93.5147C393.666 85.4122 400.258 78.8203 408.36 78.8203C416.463 78.8203 423.055 85.4122 423.055 93.5147C423.055 101.617 416.463 108.209 408.36 108.209ZM408.36 79.2575C400.499 79.2575 394.104 85.6528 394.104 93.5143C394.104 101.375 400.499 107.771 408.36 107.771C416.221 107.771 422.617 101.376 422.617 93.5143C422.617 85.6533 416.221 79.2575 408.36 79.2575Z" fill="#333F61"/>
<path d="M412.122 102.557C417.118 100.488 419.49 94.7603 417.421 89.7647C415.351 84.769 409.624 82.3968 404.628 84.4661C399.633 86.5354 397.261 92.2627 399.33 97.2583C401.399 102.254 407.126 104.626 412.122 102.557Z" fill="#FF7F36"/>
<path d="M410.357 98.2991C413.001 97.2042 414.256 94.1736 413.161 91.5301C412.066 88.8867 409.035 87.6314 406.392 88.7264C403.748 89.8213 402.493 92.8519 403.588 95.4954C404.683 98.1388 407.714 99.3941 410.357 98.2991Z" fill="white"/>
<path d="M408.357 98.76C405.465 98.76 403.111 96.4072 403.111 93.5148C403.111 90.6228 405.464 88.2695 408.357 88.2695C411.249 88.2695 413.602 90.6223 413.602 93.5148C413.601 96.4072 411.249 98.76 408.357 98.76ZM408.357 88.3992C405.536 88.3992 403.241 90.6941 403.241 93.5152C403.241 96.3364 405.536 98.6313 408.357 98.6313C411.177 98.6313 413.473 96.3364 413.473 93.5152C413.472 90.6941 411.177 88.3992 408.357 88.3992Z" fill="#333F61"/>
<path d="M357.867 83.9414L327.126 85.9057L326.926 89.8916L359.085 92.3447L357.867 83.9414Z" fill="#1A1A1A"/>
<path d="M359.342 92.5979L359.058 92.5631L326.696 90.0856L326.916 85.7088L358.053 83.7031L359.342 92.5979ZM327.154 89.7006L358.827 92.0939L357.68 84.1826L327.334 86.1054L327.154 89.7006Z" fill="#333F61"/>
<path d="M451.018 83.7246L452.299 92.5655H513.215L514.396 83.7246H451.018Z" fill="#1A1A1A"/>
<path d="M513.404 92.7828H452.107L450.762 83.5039H514.643L513.404 92.7828ZM452.486 92.3452H513.021L514.144 83.942H451.268L452.486 92.3452Z" fill="#333F61"/>
<path d="M466.847 107.99C474.841 107.99 481.322 101.509 481.322 93.5146C481.322 85.52 474.841 79.0391 466.847 79.0391C458.852 79.0391 452.371 85.52 452.371 93.5146C452.371 101.509 458.852 107.99 466.847 107.99Z" fill="#1A1A1A"/>
<path d="M466.847 108.209C458.744 108.209 452.152 101.617 452.152 93.5147C452.152 85.4122 458.744 78.8203 466.847 78.8203C474.949 78.8203 481.541 85.4122 481.541 93.5147C481.541 101.617 474.95 108.209 466.847 108.209ZM466.847 79.2575C458.986 79.2575 452.59 85.6528 452.59 93.5143C452.59 101.375 458.985 107.771 466.847 107.771C474.708 107.771 481.103 101.376 481.103 93.5143C481.103 85.6533 474.708 79.2575 466.847 79.2575Z" fill="#333F61"/>
<path d="M476.394 95.8075C477.636 90.5453 474.378 85.2722 469.116 84.0296C463.853 82.7871 458.58 86.0456 457.338 91.3078C456.095 96.57 459.354 101.843 464.616 103.086C469.878 104.328 475.151 101.07 476.394 95.8075Z" fill="#FF7F36"/>
<path d="M471.909 94.7455C472.566 91.961 470.842 89.1707 468.058 88.5132C465.273 87.8557 462.483 89.58 461.825 92.3645C461.168 95.149 462.892 97.9393 465.677 98.5968C468.461 99.2543 471.251 97.53 471.909 94.7455Z" fill="white"/>
<path d="M466.849 98.76C463.957 98.76 461.604 96.4072 461.604 93.5148C461.604 90.6228 463.956 88.2695 466.849 88.2695C469.741 88.2695 472.094 90.6223 472.094 93.5148C472.094 96.4072 469.741 98.76 466.849 98.76ZM466.849 88.3992C464.028 88.3992 461.733 90.6941 461.733 93.5152C461.733 96.3364 464.028 98.6313 466.849 98.6313C469.669 98.6313 471.965 96.3364 471.965 93.5152C471.965 90.6941 469.67 88.3992 466.849 88.3992Z" fill="#333F61"/>
<path d="M502.671 107.99C510.666 107.99 517.146 101.509 517.146 93.5146C517.146 85.52 510.666 79.0391 502.671 79.0391C494.676 79.0391 488.195 85.52 488.195 93.5146C488.195 101.509 494.676 107.99 502.671 107.99Z" fill="#1A1A1A"/>
<path d="M502.671 108.209C494.568 108.209 487.977 101.617 487.977 93.5147C487.977 85.4122 494.568 78.8203 502.671 78.8203C510.773 78.8203 517.365 85.4122 517.365 93.5147C517.365 101.617 510.773 108.209 502.671 108.209ZM502.671 79.2575C494.81 79.2575 488.414 85.6528 488.414 93.5143C488.414 101.375 494.809 107.771 502.671 107.771C510.532 107.771 516.928 101.376 516.928 93.5143C516.928 85.6533 510.532 79.2575 502.671 79.2575Z" fill="#333F61"/>
<path d="M509.589 100.442C513.412 96.619 513.412 90.4201 509.589 86.5967C505.765 82.7733 499.566 82.7733 495.743 86.5967C491.92 90.4201 491.92 96.619 495.743 100.442C499.567 104.266 505.765 104.266 509.589 100.442Z" fill="#FF7F36"/>
<path d="M506.332 97.1789C508.356 95.1557 508.356 91.8755 506.332 89.8524C504.309 87.8292 501.029 87.8293 499.006 89.8524C496.983 91.8755 496.983 95.1557 499.006 97.1789C501.029 99.202 504.309 99.202 506.332 97.1789Z" fill="white"/>
<path d="M502.676 98.76C499.784 98.76 497.431 96.4072 497.431 93.5148C497.431 90.6228 499.783 88.2695 502.676 88.2695C505.568 88.2695 507.921 90.6223 507.921 93.5148C507.921 96.4072 505.568 98.76 502.676 98.76ZM502.676 88.3992C499.855 88.3992 497.56 90.6941 497.56 93.5152C497.56 96.3364 499.855 98.6313 502.676 98.6313C505.497 98.6313 507.792 96.3364 507.792 93.5152C507.792 90.6941 505.497 88.3992 502.676 88.3992Z" fill="#333F61"/>
<path d="M451.27 83.9414L419.061 85.9057L418.861 89.8916L452.488 92.3447L451.27 83.9414Z" fill="#1A1A1A"/>
<path d="M452.745 92.5979L452.461 92.5631L418.632 90.0856L418.852 85.7088L451.456 83.7031L452.745 92.5979ZM419.09 89.7006L452.229 92.0939L451.083 84.1826L419.27 86.1054L419.09 89.7006Z" fill="#333F61"/>
<path d="M619.859 108.209H0V112H619.859V108.209Z" fill="#1A1A1A"/>
<path d="M545.694 83.7246L546.975 92.5655H607.891L609.073 83.7246H545.694Z" fill="#1A1A1A"/>
<path d="M608.082 92.7828H546.785L545.44 83.5039H609.322L608.082 92.7828ZM547.164 92.3452H607.699L608.822 83.942H545.947L547.164 92.3452Z" fill="#333F61"/>
<path d="M561.525 107.99C569.52 107.99 576.001 101.509 576.001 93.5146C576.001 85.52 569.52 79.0391 561.525 79.0391C553.531 79.0391 547.05 85.52 547.05 93.5146C547.05 101.509 553.531 107.99 561.525 107.99Z" fill="#1A1A1A"/>
<path d="M561.527 108.209C553.425 108.209 546.833 101.617 546.833 93.5147C546.833 85.4122 553.425 78.8203 561.527 78.8203C569.63 78.8203 576.222 85.4122 576.222 93.5147C576.222 101.617 569.63 108.209 561.527 108.209ZM561.527 79.2575C553.666 79.2575 547.271 85.6528 547.271 93.5143C547.271 101.375 553.666 107.771 561.527 107.771C569.388 107.771 575.784 101.376 575.784 93.5143C575.784 85.6533 569.389 79.2575 561.527 79.2575Z" fill="#333F61"/>
<path d="M571.079 95.8095C572.322 90.5473 569.063 85.2741 563.801 84.0316C558.539 82.789 553.266 86.0476 552.023 91.3098C550.781 96.5721 554.039 101.845 559.302 103.088C564.564 104.33 569.837 101.072 571.079 95.8095Z" fill="#FF7F36"/>
<path d="M566.59 94.7553C567.247 91.9707 565.523 89.1804 562.738 88.5229C559.954 87.8654 557.163 89.5897 556.506 92.3742C555.848 95.1587 557.573 97.949 560.357 98.6065C563.142 99.264 565.932 97.5398 566.59 94.7553Z" fill="white"/>
<path d="M561.527 98.76C558.635 98.76 556.282 96.4072 556.282 93.5148C556.282 90.6228 558.635 88.2695 561.527 88.2695C564.42 88.2695 566.773 90.6223 566.773 93.5148C566.773 96.4072 564.42 98.76 561.527 98.76ZM561.527 88.3992C558.707 88.3992 556.412 90.6941 556.412 93.5152C556.412 96.3364 558.707 98.6313 561.527 98.6313C564.348 98.6313 566.644 96.3364 566.644 93.5152C566.644 90.6941 564.349 88.3992 561.527 88.3992Z" fill="#333F61"/>
<path d="M597.35 107.99C605.344 107.99 611.825 101.509 611.825 93.5146C611.825 85.52 605.344 79.0391 597.35 79.0391C589.355 79.0391 582.874 85.52 582.874 93.5146C582.874 101.509 589.355 107.99 597.35 107.99Z" fill="#1A1A1A"/>
<path d="M597.352 108.209C589.249 108.209 582.657 101.617 582.657 93.5147C582.657 85.4122 589.249 78.8203 597.352 78.8203C605.454 78.8203 612.046 85.4122 612.046 93.5147C612.046 101.617 605.454 108.209 597.352 108.209ZM597.352 79.2575C589.491 79.2575 583.095 85.6528 583.095 93.5143C583.095 101.375 589.49 107.771 597.352 107.771C605.213 107.771 611.608 101.376 611.608 93.5143C611.608 85.6533 605.213 79.2575 597.352 79.2575Z" fill="#333F61"/>
<path d="M604.265 100.442C608.088 96.619 608.088 90.4201 604.265 86.5967C600.441 82.7733 594.242 82.7733 590.419 86.5967C586.596 90.4201 586.596 96.619 590.419 100.442C594.242 104.266 600.441 104.266 604.265 100.442Z" fill="#FF7F36"/>
<path d="M601.008 97.1828C603.031 95.1596 603.031 91.8795 601.008 89.8563C598.985 87.8332 595.705 87.8332 593.682 89.8563C591.659 91.8795 591.659 95.1596 593.682 97.1828C595.705 99.2059 598.985 99.2059 601.008 97.1828Z" fill="white"/>
<path d="M597.352 98.76C594.46 98.76 592.106 96.4072 592.106 93.5148C592.106 90.6228 594.459 88.2695 597.352 88.2695C600.244 88.2695 602.597 90.6223 602.597 93.5148C602.597 96.4072 600.244 98.76 597.352 98.76ZM597.352 88.3992C594.531 88.3992 592.236 90.6941 592.236 93.5152C592.236 96.3364 594.531 98.6313 597.352 98.6313C600.172 98.6313 602.468 96.3364 602.468 93.5152C602.467 90.6941 600.172 88.3992 597.352 88.3992Z" fill="#333F61"/>
<path d="M545.943 83.9414L513.735 85.9057L513.534 89.8916L547.161 92.3447L545.943 83.9414Z" fill="#1A1A1A"/>
<path d="M547.421 92.5979L547.136 92.5631L513.308 90.0856L513.528 85.7088L546.132 83.7031L547.421 92.5979ZM513.765 89.7006L546.905 92.0939L545.759 84.1826L513.946 86.1054L513.765 89.7006Z" fill="#333F61"/>
<path d="M101.242 49.0039H39.4473V51.6308H101.242V49.0039Z" fill="#1A1A1A"/>
<path d="M101.242 53.9668H39.4473V56.5937H101.242V53.9668Z" fill="#1A1A1A"/>
<path d="M101.242 58.9297H39.4473V61.5565H101.242V58.9297Z" fill="#1A1A1A"/>
<path d="M101.242 63.8906H39.4473V66.5175H101.242V63.8906Z" fill="#1A1A1A"/>
<path d="M101.242 68.8535H39.4473V71.4804H101.242V68.8535Z" fill="#1A1A1A"/>
</svg>
