<svg width="1320" height="128" viewBox="0 0 1320 128" fill="none" xmlns="http://www.w3.org/2000/svg">
<path d="M0 0H1320V127.933C1320 127.933 1270.35 102.715 1237 105.751C1212.02 108.024 1201.57 127.735 1176.5 127.933C1150.87 128.135 1140.13 105.751 1114.5 105.751C1088.87 105.751 1078.1 126.632 1052.5 127.933C1022.63 129.451 1008.89 104.676 979 105.751C952.28 106.713 940.737 127.933 914 127.933C887.263 127.933 875.736 105.557 849 105.751C822.82 105.941 811.681 127.998 785.5 127.933C759.504 127.868 748.493 106.185 722.5 105.751C695.21 105.296 683.282 128.742 656 127.933C630.936 127.189 620.574 105.751 595.5 105.751C570.426 105.751 560.068 127.364 535 127.933C508.27 128.54 496.725 104.923 470 105.751C445.488 106.51 435.508 127.059 411 127.933C383.908 128.899 372.098 105.009 345 105.751C319.935 106.437 309.553 126.861 284.5 127.933C256.114 129.147 243.407 106.203 215 105.751C185.097 105.275 171.398 128.667 141.5 127.933C113.843 127.254 101.656 106.482 74 105.751C43.916 104.956 0 127.933 0 127.933V0Z" fill="#A856FF"/>
</svg>
